G75*
G70*
%OFA0B0*%
%FSLAX25Y25*%
%IPPOS*%
%LPD*%
%AMOC8*
5,1,8,0,0,1.08239X$1,22.5*
%
%ADD11O,0.06693X0.07677*%
%ADD13C,0.33465*%
%ADD35R,0.07500X0.07874*%
%ADD36C,0.02913*%
%ADD41C,0.06693*%
%ADD42C,0.07874*%
%ADD49R,0.06693X0.06693*%
%ADD58C,0.02362*%
%ADD60O,0.06693X0.06693*%
%ADD61C,0.17717*%
%ADD62C,0.00787*%
%ADD64R,0.07677X0.07677*%
%ADD65C,0.07677*%
%ADD66O,0.07500X0.07874*%
%ADD75C,0.11220*%
%ADD86C,0.09449*%
%ADD88C,0.03900*%
%ADD90C,0.06000*%
X0000000Y0000000D02*
%LPD*%
G01*
D62*
X0015748Y0568110D02*
G75*
G03*
X0027559Y0579921I0000000J0011811D01*
G01*
X0602362Y0472441D02*
X0602362Y0552362D01*
X0027559Y0015748D02*
G75*
G03*
X0043307Y0000000I0015748J0000000D01*
G01*
X0043307Y0595669D02*
X0559055Y0595669D01*
X0586614Y0027559D02*
G75*
G03*
X0602362Y0043307I0000000J0015748D01*
G01*
X0576772Y0299213D02*
X0570866Y0299213D01*
X0043307Y0000000D02*
X0559055Y0000000D01*
X0566929Y0303150D02*
G75*
G03*
X0570866Y0299213I0003937J0000000D01*
G01*
X0015748Y0027559D02*
G75*
G02*
X0000000Y0043307I0000000J0015748D01*
G01*
X0566929Y0303150D02*
X0566929Y0314961D01*
X0578740Y0448819D02*
G75*
G02*
X0590551Y0460630I0011811J0000000D01*
G01*
X0586614Y0027559D02*
G75*
G03*
X0574803Y0015748I0000000J-011811D01*
G01*
X0027559Y0579921D02*
G75*
G02*
X0043307Y0595669I0015748J0000000D01*
G01*
X0000000Y0043307D02*
X0000000Y0552362D01*
X0574803Y0579921D02*
G75*
G03*
X0559055Y0595669I-015748J0000000D01*
G01*
X0590551Y0275591D02*
G75*
G02*
X0602362Y0263780I0000000J-011811D01*
G01*
X0570866Y0318898D02*
X0576772Y0318898D01*
X0015748Y0027559D02*
G75*
G02*
X0027559Y0015748I0000000J-011811D01*
G01*
X0586614Y0568110D02*
G75*
G02*
X0574803Y0579921I0000000J0011811D01*
G01*
X0576772Y0299213D02*
G75*
G02*
X0578740Y0297244I0000000J-001969D01*
G01*
X0576772Y0318898D02*
G75*
G03*
X0578740Y0320866I0000000J0001969D01*
G01*
X0566929Y0314961D02*
G75*
G02*
X0570866Y0318898I0003937J0000000D01*
G01*
X0578740Y0320866D02*
X0578740Y0448819D01*
X0578740Y0287402D02*
X0578740Y0297244D01*
X0590551Y0460630D02*
G75*
G03*
X0602362Y0472441I0000000J0011811D01*
G01*
X0574803Y0015748D02*
G75*
G02*
X0559055Y0000000I-015748J0000000D01*
G01*
X0015748Y0568110D02*
G75*
G03*
X0000000Y0552362I0000000J-015748D01*
G01*
X0578740Y0287402D02*
G75*
G03*
X0590551Y0275591I0011811J0000000D01*
G01*
X0602362Y0043307D02*
X0602362Y0263780D01*
X0586614Y0568110D02*
G75*
G02*
X0602362Y0552362I0000000J-015748D01*
G01*
D41*
X0426575Y0277559D03*
X0285433Y0488189D03*
X0122047Y0452756D03*
X0175394Y0330709D03*
X0206693Y0488189D03*
X0080000Y0060000D03*
X0080000Y0070000D03*
X0080000Y0080000D03*
X0080000Y0090000D03*
X0080000Y0100000D03*
X0090000Y0060000D03*
X0090000Y0070000D03*
X0090000Y0080000D03*
X0090000Y0090000D03*
X0090000Y0100000D03*
X0100000Y0060000D03*
X0100000Y0070000D03*
X0100000Y0080000D03*
X0100000Y0090000D03*
X0100000Y0100000D03*
X0318898Y0106299D03*
X0157480Y0488189D03*
X0366142Y0106299D03*
X0145669Y0470472D03*
X0332677Y0452756D03*
D90*
X0537402Y0487992D03*
X0537402Y0468701D03*
D58*
X0238806Y0067569D03*
X0240873Y0071014D03*
X0243825Y0066388D03*
X0257802Y0066683D03*
D41*
X0426575Y0242126D03*
X0426575Y0224409D03*
X0050000Y0060000D03*
X0050000Y0070000D03*
X0050000Y0080000D03*
X0050000Y0090000D03*
X0050000Y0100000D03*
X0060000Y0060000D03*
X0060000Y0070000D03*
X0060000Y0080000D03*
X0060000Y0090000D03*
X0060000Y0100000D03*
X0070000Y0060000D03*
X0070000Y0070000D03*
X0070000Y0080000D03*
X0070000Y0090000D03*
X0070000Y0100000D03*
X0307087Y0106299D03*
X0160000Y0080000D03*
X0150000Y0080000D03*
X0140000Y0080000D03*
X0130000Y0080000D03*
X0120000Y0080000D03*
X0160000Y0090000D03*
X0150000Y0090000D03*
X0140000Y0090000D03*
X0130000Y0090000D03*
X0120000Y0090000D03*
X0160000Y0100000D03*
X0150000Y0100000D03*
X0140000Y0100000D03*
X0130000Y0100000D03*
X0120000Y0100000D03*
X0332677Y0470472D03*
X0297244Y0488189D03*
X0426575Y0324803D03*
X0297244Y0470472D03*
X0354331Y0106299D03*
D61*
X0015945Y0491339D03*
D41*
X0426575Y0312992D03*
X0273622Y0470472D03*
X0562992Y0472441D03*
X0342520Y0106299D03*
X0183071Y0470472D03*
X0173425Y0246063D03*
D90*
X0551181Y0487992D03*
X0551181Y0468701D03*
D41*
X0248031Y0106299D03*
D90*
X0407874Y0491752D03*
X0407874Y0476752D03*
D41*
X0377953Y0106299D03*
X0261811Y0452756D03*
G36*
G01*
X0459449Y0085925D02*
X0459449Y0091634D01*
G75*
G02*
X0460433Y0092618I0000984J0000000D01*
G01*
X0465157Y0092618D01*
G75*
G02*
X0466142Y0091634I0000000J-000984D01*
G01*
X0466142Y0085925D01*
G75*
G02*
X0465157Y0084941I-000984J0000000D01*
G01*
X0460433Y0084941D01*
G75*
G02*
X0459449Y0085925I0000000J0000984D01*
G01*
G37*
D11*
X0472638Y0088780D03*
X0482480Y0088780D03*
X0492323Y0088780D03*
X0502165Y0088780D03*
X0512008Y0088780D03*
X0521850Y0088780D03*
X0531693Y0088780D03*
X0541535Y0088780D03*
X0551378Y0088780D03*
D61*
X0015945Y0066142D03*
D41*
X0332677Y0488189D03*
X0098425Y0470472D03*
X0297244Y0452756D03*
X0194882Y0470472D03*
X0133858Y0470472D03*
D61*
X0301181Y0015551D03*
D41*
X0122047Y0488189D03*
D61*
X0586417Y0253150D03*
D41*
X0452756Y0488189D03*
D49*
X0274252Y0018504D03*
D60*
X0264252Y0018504D03*
X0254252Y0018504D03*
X0244252Y0018504D03*
X0234252Y0018504D03*
X0224252Y0018504D03*
D41*
X0062992Y0488189D03*
X0383858Y0488189D03*
X0395669Y0488189D03*
D90*
X0544094Y0464587D03*
X0544094Y0449587D03*
D41*
X0283465Y0106299D03*
X0133858Y0488189D03*
X0431102Y0488189D03*
X0218504Y0488189D03*
X0426575Y0301181D03*
X0426378Y0348425D03*
X0230315Y0488189D03*
X0273622Y0488189D03*
X0098425Y0488189D03*
X0320866Y0488189D03*
X0426575Y0188976D03*
X0250000Y0488189D03*
X0426575Y0259843D03*
X0175394Y0263780D03*
X0309055Y0470472D03*
X0218504Y0470472D03*
X0110000Y0010000D03*
X0110000Y0020000D03*
X0110000Y0030000D03*
X0110000Y0040000D03*
X0110000Y0050000D03*
X0120000Y0010000D03*
X0120000Y0020000D03*
X0120000Y0030000D03*
X0120000Y0040000D03*
X0120000Y0050000D03*
X0130000Y0010000D03*
X0130000Y0020000D03*
X0130000Y0030000D03*
X0130000Y0040000D03*
X0130000Y0050000D03*
X0051181Y0488189D03*
X0173425Y0200787D03*
X0050000Y0010000D03*
X0050000Y0020000D03*
X0050000Y0030000D03*
X0050000Y0040000D03*
X0050000Y0050000D03*
X0060000Y0010000D03*
X0060000Y0020000D03*
X0060000Y0030000D03*
X0060000Y0040000D03*
X0060000Y0050000D03*
X0070000Y0010000D03*
X0070000Y0020000D03*
X0070000Y0030000D03*
X0070000Y0040000D03*
X0070000Y0050000D03*
X0309055Y0488189D03*
X0250000Y0452756D03*
X0175394Y0306496D03*
X0080000Y0010000D03*
X0080000Y0020000D03*
X0080000Y0030000D03*
X0080000Y0040000D03*
X0080000Y0050000D03*
X0090000Y0010000D03*
X0090000Y0020000D03*
X0090000Y0030000D03*
X0090000Y0040000D03*
X0090000Y0050000D03*
X0100000Y0010000D03*
X0100000Y0020000D03*
X0100000Y0030000D03*
X0100000Y0040000D03*
X0100000Y0050000D03*
X0320866Y0470472D03*
X0295276Y0106299D03*
X0110236Y0488189D03*
X0261811Y0488189D03*
D61*
X0586417Y0491339D03*
D90*
X0372047Y0494508D03*
X0372047Y0479508D03*
D41*
X0259843Y0106299D03*
X0051181Y0470472D03*
X0122047Y0470472D03*
X0572441Y0204724D03*
X0285433Y0470472D03*
D61*
X0015945Y0314173D03*
D42*
X0131890Y0157185D03*
X0454331Y0412697D03*
D75*
X0219291Y0187500D03*
D42*
X0539370Y0163091D03*
X0393307Y0231988D03*
D75*
X0101181Y0175689D03*
X0498819Y0400098D03*
D42*
X0525591Y0418602D03*
X0200787Y0160728D03*
X0393307Y0146949D03*
X0539370Y0412697D03*
X0468110Y0157185D03*
X0060630Y0412697D03*
X0206693Y0231988D03*
X0200787Y0218209D03*
D75*
X0101181Y0400098D03*
D42*
X0145669Y0163091D03*
D75*
X0498819Y0175689D03*
X0380709Y0187500D03*
D42*
X0399213Y0160728D03*
X0131890Y0418602D03*
X0468110Y0418602D03*
X0074409Y0157185D03*
X0060630Y0163091D03*
X0074409Y0418602D03*
X0454331Y0163091D03*
X0525591Y0157185D03*
X0206693Y0146949D03*
X0145669Y0412697D03*
X0399213Y0218209D03*
D86*
X0512598Y0201280D03*
X0512598Y0217028D03*
X0512598Y0232776D03*
X0512598Y0248524D03*
X0512598Y0264272D03*
X0512598Y0280020D03*
X0512598Y0295768D03*
X0512598Y0311516D03*
X0512598Y0327264D03*
X0512598Y0343012D03*
X0512598Y0358760D03*
X0512598Y0374508D03*
X0496850Y0209154D03*
X0496850Y0224902D03*
X0496850Y0240650D03*
X0496850Y0256398D03*
X0496850Y0272146D03*
X0496850Y0287894D03*
X0496850Y0303642D03*
X0496850Y0319390D03*
X0496850Y0335138D03*
X0496850Y0350886D03*
X0496850Y0366634D03*
X0481102Y0201280D03*
X0481102Y0217028D03*
X0481102Y0232776D03*
X0481102Y0248524D03*
X0481102Y0264272D03*
X0481102Y0280020D03*
X0481102Y0295768D03*
X0481102Y0311516D03*
X0481102Y0327264D03*
X0481102Y0343012D03*
X0481102Y0358760D03*
X0481102Y0374508D03*
X0244882Y0173720D03*
X0260630Y0173720D03*
X0276378Y0173720D03*
X0292126Y0173720D03*
X0307874Y0173720D03*
X0323622Y0173720D03*
X0339370Y0173720D03*
X0355118Y0173720D03*
X0252756Y0189469D03*
X0268504Y0189469D03*
X0284252Y0189469D03*
X0300000Y0189469D03*
X0315748Y0189469D03*
X0331496Y0189469D03*
X0347244Y0189469D03*
X0244882Y0205217D03*
X0260630Y0205217D03*
X0276378Y0205217D03*
X0292126Y0205217D03*
X0307874Y0205217D03*
X0323622Y0205217D03*
X0339370Y0205217D03*
X0355118Y0205217D03*
X0087402Y0374508D03*
X0087402Y0358760D03*
X0087402Y0343012D03*
X0087402Y0327264D03*
X0087402Y0311516D03*
X0087402Y0295768D03*
X0087402Y0280020D03*
X0087402Y0264272D03*
X0087402Y0248524D03*
X0087402Y0232776D03*
X0087402Y0217028D03*
X0087402Y0201280D03*
X0103150Y0366634D03*
X0103150Y0350886D03*
X0103150Y0335138D03*
X0103150Y0319390D03*
X0103150Y0303642D03*
X0103150Y0287894D03*
X0103150Y0272146D03*
X0103150Y0256398D03*
X0103150Y0240650D03*
X0103150Y0224902D03*
X0103150Y0209154D03*
X0118898Y0374508D03*
X0118898Y0358760D03*
X0118898Y0343012D03*
X0118898Y0327264D03*
X0118898Y0311516D03*
X0118898Y0295768D03*
X0118898Y0280020D03*
X0118898Y0264272D03*
X0118898Y0248524D03*
X0118898Y0232776D03*
X0118898Y0217028D03*
X0118898Y0201280D03*
D41*
X0175394Y0295276D03*
X0419291Y0488189D03*
X0079528Y0453150D03*
X0271654Y0106299D03*
X0110236Y0470472D03*
X0320866Y0452756D03*
X0175394Y0283465D03*
X0408858Y0265748D03*
X0261811Y0470472D03*
X0482283Y0488189D03*
D90*
X0049409Y0452756D03*
X0068701Y0452756D03*
D41*
X0183071Y0488189D03*
X0285433Y0452756D03*
X0145669Y0488189D03*
D61*
X0586417Y0066142D03*
D65*
X0561811Y0516732D03*
X0549488Y0516732D03*
X0537165Y0516732D03*
X0524843Y0516732D03*
X0512520Y0516732D03*
X0500197Y0516732D03*
X0487874Y0516732D03*
X0465866Y0516732D03*
X0453543Y0516732D03*
X0561811Y0534055D03*
X0550787Y0534055D03*
X0540945Y0534055D03*
X0531102Y0534055D03*
X0521260Y0534055D03*
X0511417Y0534055D03*
X0501575Y0534055D03*
X0491732Y0534055D03*
X0481890Y0534055D03*
X0472047Y0534055D03*
X0462205Y0534055D03*
X0452362Y0534055D03*
X0561811Y0548228D03*
X0550787Y0548228D03*
X0540945Y0548228D03*
X0521260Y0548228D03*
X0511417Y0548228D03*
X0491732Y0548228D03*
X0481890Y0548228D03*
X0472047Y0548228D03*
X0462205Y0548228D03*
X0452362Y0548228D03*
X0430315Y0516732D03*
X0419291Y0516732D03*
X0406969Y0516732D03*
X0394646Y0516732D03*
X0382323Y0516732D03*
X0361417Y0516732D03*
X0350394Y0516732D03*
X0430315Y0534055D03*
X0420472Y0534055D03*
X0410630Y0534055D03*
X0400787Y0534055D03*
X0390945Y0534055D03*
X0381102Y0534055D03*
X0371260Y0534055D03*
X0361417Y0534055D03*
X0350394Y0534055D03*
X0430315Y0548228D03*
X0420472Y0548228D03*
X0410630Y0548228D03*
X0390945Y0548228D03*
X0381102Y0548228D03*
X0371260Y0548228D03*
X0361417Y0548228D03*
X0350394Y0548228D03*
X0325984Y0516732D03*
X0314961Y0516732D03*
X0295276Y0516732D03*
X0285433Y0516732D03*
X0275591Y0516732D03*
X0265748Y0516732D03*
X0254724Y0516732D03*
X0325984Y0534055D03*
X0314961Y0534055D03*
X0305118Y0534055D03*
X0295276Y0534055D03*
X0285433Y0534055D03*
X0275591Y0534055D03*
X0265748Y0534055D03*
X0254724Y0534055D03*
X0325984Y0548228D03*
X0314961Y0548228D03*
X0305118Y0548228D03*
X0295276Y0548228D03*
X0285433Y0548228D03*
X0265748Y0548228D03*
X0254724Y0548228D03*
X0231496Y0516732D03*
X0221654Y0516732D03*
X0211811Y0516732D03*
X0201969Y0516732D03*
X0192126Y0516732D03*
X0182283Y0516732D03*
X0231496Y0534055D03*
X0221654Y0534055D03*
X0211811Y0534055D03*
X0201969Y0534055D03*
X0192126Y0534055D03*
X0182283Y0534055D03*
X0231496Y0548228D03*
X0221654Y0548228D03*
X0201969Y0548228D03*
X0192126Y0548228D03*
X0182283Y0548228D03*
X0159055Y0516732D03*
X0146732Y0516732D03*
X0134409Y0516732D03*
X0122087Y0516732D03*
X0109764Y0516732D03*
X0097441Y0516732D03*
X0085118Y0516732D03*
X0063110Y0516732D03*
D64*
X0050787Y0516732D03*
D65*
X0159055Y0534055D03*
X0148031Y0534055D03*
X0138189Y0534055D03*
X0128346Y0534055D03*
X0118504Y0534055D03*
X0108661Y0534055D03*
X0098819Y0534055D03*
X0088976Y0534055D03*
X0079134Y0534055D03*
X0069291Y0534055D03*
X0059449Y0534055D03*
X0049606Y0534055D03*
X0159055Y0548228D03*
X0148031Y0548228D03*
X0138189Y0548228D03*
X0118504Y0548228D03*
X0108661Y0548228D03*
X0088976Y0548228D03*
X0079134Y0548228D03*
X0069291Y0548228D03*
X0059449Y0548228D03*
X0049606Y0548228D03*
D13*
X0097638Y0569685D03*
X0274409Y0569685D03*
X0531102Y0569685D03*
D41*
X0426575Y0289370D03*
X0074803Y0470472D03*
X0140000Y0010000D03*
X0140000Y0020000D03*
X0140000Y0030000D03*
X0140000Y0040000D03*
X0140000Y0050000D03*
X0150000Y0010000D03*
X0150000Y0020000D03*
X0150000Y0030000D03*
X0150000Y0040000D03*
X0150000Y0050000D03*
X0160000Y0010000D03*
X0160000Y0020000D03*
X0160000Y0030000D03*
X0160000Y0040000D03*
X0160000Y0050000D03*
X0062992Y0470472D03*
X0426378Y0336614D03*
X0250000Y0470472D03*
X0194882Y0488189D03*
X0074803Y0488189D03*
X0268307Y0038878D02*
%LPD*%
G01*
D35*
X0409016Y0090453D03*
D66*
X0399016Y0090453D03*
X0389016Y0090453D03*
D88*
X0272480Y0049705D03*
X0292480Y0045705D03*
X0292480Y0053705D03*
X0233392Y0097884D02*
G01*
G75*
D36*
X0257801Y0066683D02*
D03*
X0243825Y0066388D02*
D03*
X0238805Y0067569D02*
D03*
X0240872Y0071014D02*
D03*
M02*
