G75*
G70*
%OFA0B0*%
%FSLAX25Y25*%
%IPPOS*%
%LPD*%
%AMOC8*
5,1,8,0,0,1.08239X$1,22.5*
%
%AMM22*
21,1,0.040950,0.030320,0.000000,-0.000000,90.000000*
21,1,0.028350,0.042910,0.000000,-0.000000,90.000000*
1,1,0.012600,0.015160,0.014170*
1,1,0.012600,0.015160,-0.014170*
1,1,0.012600,-0.015160,-0.014170*
1,1,0.012600,-0.015160,0.014170*
%
%AMM23*
21,1,0.038980,0.026770,0.000000,-0.000000,270.000000*
21,1,0.026770,0.038980,0.000000,-0.000000,270.000000*
1,1,0.012210,-0.013390,-0.013390*
1,1,0.012210,-0.013390,0.013390*
1,1,0.012210,0.013390,0.013390*
1,1,0.012210,0.013390,-0.013390*
%
%AMM24*
21,1,0.033070,0.030710,0.000000,-0.000000,90.000000*
21,1,0.022050,0.041730,0.000000,-0.000000,90.000000*
1,1,0.011020,0.015350,0.011020*
1,1,0.011020,0.015350,-0.011020*
1,1,0.011020,-0.015350,-0.011020*
1,1,0.011020,-0.015350,0.011020*
%
%ADD108M22*%
%ADD109M23*%
%ADD11O,0.06693X0.07677*%
%ADD110M24*%
%ADD13C,0.33465*%
%ADD15C,0.03100*%
%ADD17O,0.01535X0.02520*%
%ADD24R,0.22835X0.25197*%
%ADD28R,0.04803X0.02559*%
%ADD29R,0.03543X0.03150*%
%ADD33O,0.01969X0.00984*%
%ADD35R,0.07500X0.07874*%
%ADD36C,0.02913*%
%ADD39O,0.02520X0.01535*%
%ADD41C,0.06693*%
%ADD42C,0.07874*%
%ADD45R,0.04724X0.08661*%
%ADD47R,0.05709X0.01772*%
%ADD49R,0.06693X0.06693*%
%ADD51R,0.03150X0.03543*%
%ADD53O,0.00984X0.01969*%
%ADD58C,0.02362*%
%ADD60O,0.06693X0.06693*%
%ADD61C,0.17717*%
%ADD62C,0.00787*%
%ADD63R,0.09843X0.07087*%
%ADD64R,0.07677X0.07677*%
%ADD65C,0.07677*%
%ADD66O,0.07500X0.07874*%
%ADD72R,0.05984X0.10000*%
%ADD75C,0.11220*%
%ADD79R,0.02717X0.05315*%
%ADD86C,0.09449*%
%ADD88C,0.03900*%
%ADD90C,0.06000*%
%ADD97O,0.02913X0.09213*%
X0000000Y0000000D02*
%LPD*%
G01*
D62*
X0015748Y0568110D02*
G75*
G03*
X0027559Y0579921I0000000J0011811D01*
G01*
X0602362Y0472441D02*
X0602362Y0552362D01*
X0027559Y0015748D02*
G75*
G03*
X0043307Y0000000I0015748J0000000D01*
G01*
X0043307Y0595669D02*
X0559055Y0595669D01*
X0586614Y0027559D02*
G75*
G03*
X0602362Y0043307I0000000J0015748D01*
G01*
X0576772Y0299213D02*
X0570866Y0299213D01*
X0043307Y0000000D02*
X0559055Y0000000D01*
X0566929Y0303150D02*
G75*
G03*
X0570866Y0299213I0003937J0000000D01*
G01*
X0015748Y0027559D02*
G75*
G02*
X0000000Y0043307I0000000J0015748D01*
G01*
X0566929Y0303150D02*
X0566929Y0314961D01*
X0578740Y0448819D02*
G75*
G02*
X0590551Y0460630I0011811J0000000D01*
G01*
X0586614Y0027559D02*
G75*
G03*
X0574803Y0015748I0000000J-011811D01*
G01*
X0027559Y0579921D02*
G75*
G02*
X0043307Y0595669I0015748J0000000D01*
G01*
X0000000Y0043307D02*
X0000000Y0552362D01*
X0574803Y0579921D02*
G75*
G03*
X0559055Y0595669I-015748J0000000D01*
G01*
X0590551Y0275591D02*
G75*
G02*
X0602362Y0263780I0000000J-011811D01*
G01*
X0570866Y0318898D02*
X0576772Y0318898D01*
X0015748Y0027559D02*
G75*
G02*
X0027559Y0015748I0000000J-011811D01*
G01*
X0586614Y0568110D02*
G75*
G02*
X0574803Y0579921I0000000J0011811D01*
G01*
X0576772Y0299213D02*
G75*
G02*
X0578740Y0297244I0000000J-001969D01*
G01*
X0576772Y0318898D02*
G75*
G03*
X0578740Y0320866I0000000J0001969D01*
G01*
X0566929Y0314961D02*
G75*
G02*
X0570866Y0318898I0003937J0000000D01*
G01*
X0578740Y0320866D02*
X0578740Y0448819D01*
X0578740Y0287402D02*
X0578740Y0297244D01*
X0590551Y0460630D02*
G75*
G03*
X0602362Y0472441I0000000J0011811D01*
G01*
X0574803Y0015748D02*
G75*
G02*
X0559055Y0000000I-015748J0000000D01*
G01*
X0015748Y0568110D02*
G75*
G03*
X0000000Y0552362I0000000J-015748D01*
G01*
X0578740Y0287402D02*
G75*
G03*
X0590551Y0275591I0011811J0000000D01*
G01*
X0602362Y0043307D02*
X0602362Y0263780D01*
X0586614Y0568110D02*
G75*
G02*
X0602362Y0552362I0000000J-015748D01*
G01*
D41*
X0426575Y0277559D03*
X0285433Y0488189D03*
X0122047Y0452756D03*
D63*
X0446850Y0468898D03*
X0431102Y0468898D03*
D41*
X0175394Y0330709D03*
X0206693Y0488189D03*
X0080000Y0060000D03*
X0080000Y0070000D03*
X0080000Y0080000D03*
X0080000Y0090000D03*
X0080000Y0100000D03*
X0090000Y0060000D03*
X0090000Y0070000D03*
X0090000Y0080000D03*
X0090000Y0090000D03*
X0090000Y0100000D03*
X0100000Y0060000D03*
X0100000Y0070000D03*
X0100000Y0080000D03*
X0100000Y0090000D03*
X0100000Y0100000D03*
X0318898Y0106299D03*
X0157480Y0488189D03*
G36*
G01*
X0186087Y0115539D02*
X0186087Y0118610D01*
G75*
G02*
X0186362Y0118886I0000276J0000000D01*
G01*
X0188567Y0118886D01*
G75*
G02*
X0188843Y0118610I0000000J-000276D01*
G01*
X0188843Y0115539D01*
G75*
G02*
X0188567Y0115264I-000276J0000000D01*
G01*
X0186362Y0115264D01*
G75*
G02*
X0186087Y0115539I0000000J0000276D01*
G01*
G37*
G36*
G01*
X0192386Y0115539D02*
X0192386Y0118610D01*
G75*
G02*
X0192661Y0118886I0000276J0000000D01*
G01*
X0194866Y0118886D01*
G75*
G02*
X0195142Y0118610I0000000J-000276D01*
G01*
X0195142Y0115539D01*
G75*
G02*
X0194866Y0115264I-000276J0000000D01*
G01*
X0192661Y0115264D01*
G75*
G02*
X0192386Y0115539I0000000J0000276D01*
G01*
G37*
X0366142Y0106299D03*
X0145669Y0470472D03*
X0332677Y0452756D03*
D90*
X0537402Y0487992D03*
G36*
G01*
X0533858Y0482697D02*
X0533858Y0485413D01*
G75*
G02*
X0534764Y0486319I0000906J0000000D01*
G01*
X0540039Y0486319D01*
G75*
G02*
X0540945Y0485413I0000000J-000906D01*
G01*
X0540945Y0482697D01*
G75*
G02*
X0540039Y0481791I-000906J0000000D01*
G01*
X0534764Y0481791D01*
G75*
G02*
X0533858Y0482697I0000000J0000906D01*
G01*
G37*
G36*
G01*
X0533858Y0471279D02*
X0533858Y0473996D01*
G75*
G02*
X0534764Y0474902I0000906J0000000D01*
G01*
X0540039Y0474902D01*
G75*
G02*
X0540945Y0473996I0000000J-000906D01*
G01*
X0540945Y0471279D01*
G75*
G02*
X0540039Y0470374I-000906J0000000D01*
G01*
X0534764Y0470374D01*
G75*
G02*
X0533858Y0471279I0000000J0000906D01*
G01*
G37*
X0537402Y0468701D03*
D53*
X0234475Y0054577D03*
D33*
X0234672Y0095325D03*
X0234672Y0093356D03*
D58*
X0238806Y0067569D03*
X0240873Y0071014D03*
X0243825Y0066388D03*
X0257802Y0066683D03*
D41*
X0426575Y0242126D03*
X0426575Y0224409D03*
X0050000Y0060000D03*
X0050000Y0070000D03*
X0050000Y0080000D03*
X0050000Y0090000D03*
X0050000Y0100000D03*
X0060000Y0060000D03*
X0060000Y0070000D03*
X0060000Y0080000D03*
X0060000Y0090000D03*
X0060000Y0100000D03*
X0070000Y0060000D03*
X0070000Y0070000D03*
X0070000Y0080000D03*
X0070000Y0090000D03*
X0070000Y0100000D03*
X0307087Y0106299D03*
X0160000Y0080000D03*
X0150000Y0080000D03*
X0140000Y0080000D03*
X0130000Y0080000D03*
X0120000Y0080000D03*
X0160000Y0090000D03*
X0150000Y0090000D03*
X0140000Y0090000D03*
X0130000Y0090000D03*
X0120000Y0090000D03*
X0160000Y0100000D03*
X0150000Y0100000D03*
X0140000Y0100000D03*
X0130000Y0100000D03*
X0120000Y0100000D03*
X0332677Y0470472D03*
X0297244Y0488189D03*
X0426575Y0324803D03*
X0297244Y0470472D03*
X0354331Y0106299D03*
D61*
X0015945Y0491339D03*
D41*
X0426575Y0312992D03*
X0273622Y0470472D03*
X0562992Y0472441D03*
X0342520Y0106299D03*
X0183071Y0470472D03*
X0173425Y0246063D03*
G36*
G01*
X0547638Y0482697D02*
X0547638Y0485413D01*
G75*
G02*
X0548543Y0486319I0000906J0000000D01*
G01*
X0553819Y0486319D01*
G75*
G02*
X0554724Y0485413I0000000J-000906D01*
G01*
X0554724Y0482697D01*
G75*
G02*
X0553819Y0481791I-000906J0000000D01*
G01*
X0548543Y0481791D01*
G75*
G02*
X0547638Y0482697I0000000J0000906D01*
G01*
G37*
D90*
X0551181Y0487992D03*
X0551181Y0468701D03*
G36*
G01*
X0547638Y0471279D02*
X0547638Y0473996D01*
G75*
G02*
X0548543Y0474902I0000906J0000000D01*
G01*
X0553819Y0474902D01*
G75*
G02*
X0554724Y0473996I0000000J-000906D01*
G01*
X0554724Y0471279D01*
G75*
G02*
X0553819Y0470374I-000906J0000000D01*
G01*
X0548543Y0470374D01*
G75*
G02*
X0547638Y0471279I0000000J0000906D01*
G01*
G37*
D41*
X0248031Y0106299D03*
G36*
G01*
X0405413Y0489961D02*
X0410335Y0489961D01*
G75*
G02*
X0410728Y0489567I0000000J-000394D01*
G01*
X0410728Y0486417D01*
G75*
G02*
X0410335Y0486024I-000394J0000000D01*
G01*
X0405413Y0486024D01*
G75*
G02*
X0405020Y0486417I0000000J0000394D01*
G01*
X0405020Y0489567D01*
G75*
G02*
X0405413Y0489961I0000394J0000000D01*
G01*
G37*
D90*
X0407874Y0491752D03*
X0407874Y0476752D03*
G36*
G01*
X0405413Y0482480D02*
X0410335Y0482480D01*
G75*
G02*
X0410728Y0482087I0000000J-000394D01*
G01*
X0410728Y0478937D01*
G75*
G02*
X0410335Y0478543I-000394J0000000D01*
G01*
X0405413Y0478543D01*
G75*
G02*
X0405020Y0478937I0000000J0000394D01*
G01*
X0405020Y0482087D01*
G75*
G02*
X0405413Y0482480I0000394J0000000D01*
G01*
G37*
D41*
X0377953Y0106299D03*
X0261811Y0452756D03*
G36*
G01*
X0459449Y0085925D02*
X0459449Y0091634D01*
G75*
G02*
X0460433Y0092618I0000984J0000000D01*
G01*
X0465157Y0092618D01*
G75*
G02*
X0466142Y0091634I0000000J-000984D01*
G01*
X0466142Y0085925D01*
G75*
G02*
X0465157Y0084941I-000984J0000000D01*
G01*
X0460433Y0084941D01*
G75*
G02*
X0459449Y0085925I0000000J0000984D01*
G01*
G37*
D11*
X0472638Y0088780D03*
X0482480Y0088780D03*
X0492323Y0088780D03*
X0502165Y0088780D03*
X0512008Y0088780D03*
X0521850Y0088780D03*
X0531693Y0088780D03*
X0541535Y0088780D03*
X0551378Y0088780D03*
D61*
X0015945Y0066142D03*
D41*
X0332677Y0488189D03*
X0098425Y0470472D03*
X0297244Y0452756D03*
X0194882Y0470472D03*
X0133858Y0470472D03*
D61*
X0301181Y0015551D03*
D41*
X0122047Y0488189D03*
D61*
X0586417Y0253150D03*
D63*
X0377953Y0468504D03*
X0362205Y0468504D03*
D41*
X0452756Y0488189D03*
D49*
X0274252Y0018504D03*
D60*
X0264252Y0018504D03*
X0254252Y0018504D03*
X0244252Y0018504D03*
X0234252Y0018504D03*
X0224252Y0018504D03*
D41*
X0062992Y0488189D03*
X0383858Y0488189D03*
X0395669Y0488189D03*
D90*
X0544094Y0464587D03*
G36*
G01*
X0541634Y0462795D02*
X0546555Y0462795D01*
G75*
G02*
X0546949Y0462402I0000000J-000394D01*
G01*
X0546949Y0459252D01*
G75*
G02*
X0546555Y0458858I-000394J0000000D01*
G01*
X0541634Y0458858D01*
G75*
G02*
X0541240Y0459252I0000000J0000394D01*
G01*
X0541240Y0462402D01*
G75*
G02*
X0541634Y0462795I0000394J0000000D01*
G01*
G37*
X0544094Y0449587D03*
G36*
G01*
X0541634Y0455315D02*
X0546555Y0455315D01*
G75*
G02*
X0546949Y0454921I0000000J-000394D01*
G01*
X0546949Y0451772D01*
G75*
G02*
X0546555Y0451378I-000394J0000000D01*
G01*
X0541634Y0451378D01*
G75*
G02*
X0541240Y0451772I0000000J0000394D01*
G01*
X0541240Y0454921D01*
G75*
G02*
X0541634Y0455315I0000394J0000000D01*
G01*
G37*
G36*
G01*
X0195437Y0111720D02*
X0195437Y0109043D01*
G75*
G02*
X0195102Y0108709I-000335J0000000D01*
G01*
X0192425Y0108709D01*
G75*
G02*
X0192091Y0109043I0000000J0000335D01*
G01*
X0192091Y0111720D01*
G75*
G02*
X0192425Y0112055I0000335J0000000D01*
G01*
X0195102Y0112055D01*
G75*
G02*
X0195437Y0111720I0000000J-000335D01*
G01*
G37*
G36*
G01*
X0189217Y0111720D02*
X0189217Y0109043D01*
G75*
G02*
X0188882Y0108709I-000335J0000000D01*
G01*
X0186205Y0108709D01*
G75*
G02*
X0185870Y0109043I0000000J0000335D01*
G01*
X0185870Y0111720D01*
G75*
G02*
X0186205Y0112055I0000335J0000000D01*
G01*
X0188882Y0112055D01*
G75*
G02*
X0189217Y0111720I0000000J-000335D01*
G01*
G37*
D41*
X0283465Y0106299D03*
X0133858Y0488189D03*
X0431102Y0488189D03*
X0218504Y0488189D03*
X0426575Y0301181D03*
X0426378Y0348425D03*
X0230315Y0488189D03*
X0273622Y0488189D03*
X0098425Y0488189D03*
X0320866Y0488189D03*
X0426575Y0188976D03*
X0250000Y0488189D03*
X0426575Y0259843D03*
X0175394Y0263780D03*
X0309055Y0470472D03*
X0218504Y0470472D03*
X0110000Y0010000D03*
X0110000Y0020000D03*
X0110000Y0030000D03*
X0110000Y0040000D03*
X0110000Y0050000D03*
X0120000Y0010000D03*
X0120000Y0020000D03*
X0120000Y0030000D03*
X0120000Y0040000D03*
X0120000Y0050000D03*
X0130000Y0010000D03*
X0130000Y0020000D03*
X0130000Y0030000D03*
X0130000Y0040000D03*
X0130000Y0050000D03*
X0051181Y0488189D03*
X0173425Y0200787D03*
X0050000Y0010000D03*
X0050000Y0020000D03*
X0050000Y0030000D03*
X0050000Y0040000D03*
X0050000Y0050000D03*
X0060000Y0010000D03*
X0060000Y0020000D03*
X0060000Y0030000D03*
X0060000Y0040000D03*
X0060000Y0050000D03*
X0070000Y0010000D03*
X0070000Y0020000D03*
X0070000Y0030000D03*
X0070000Y0040000D03*
X0070000Y0050000D03*
X0309055Y0488189D03*
X0250000Y0452756D03*
X0175394Y0306496D03*
X0080000Y0010000D03*
X0080000Y0020000D03*
X0080000Y0030000D03*
X0080000Y0040000D03*
X0080000Y0050000D03*
X0090000Y0010000D03*
X0090000Y0020000D03*
X0090000Y0030000D03*
X0090000Y0040000D03*
X0090000Y0050000D03*
X0100000Y0010000D03*
X0100000Y0020000D03*
X0100000Y0030000D03*
X0100000Y0040000D03*
X0100000Y0050000D03*
X0320866Y0470472D03*
X0295276Y0106299D03*
X0110236Y0488189D03*
X0261811Y0488189D03*
D61*
X0586417Y0491339D03*
D90*
X0372047Y0494508D03*
G36*
G01*
X0369587Y0492717D02*
X0374508Y0492717D01*
G75*
G02*
X0374902Y0492323I0000000J-000394D01*
G01*
X0374902Y0489173D01*
G75*
G02*
X0374508Y0488780I-000394J0000000D01*
G01*
X0369587Y0488780D01*
G75*
G02*
X0369193Y0489173I0000000J0000394D01*
G01*
X0369193Y0492323D01*
G75*
G02*
X0369587Y0492717I0000394J0000000D01*
G01*
G37*
G36*
G01*
X0369587Y0485236D02*
X0374508Y0485236D01*
G75*
G02*
X0374902Y0484842I0000000J-000394D01*
G01*
X0374902Y0481693D01*
G75*
G02*
X0374508Y0481299I-000394J0000000D01*
G01*
X0369587Y0481299D01*
G75*
G02*
X0369193Y0481693I0000000J0000394D01*
G01*
X0369193Y0484842D01*
G75*
G02*
X0369587Y0485236I0000394J0000000D01*
G01*
G37*
X0372047Y0479508D03*
D41*
X0259843Y0106299D03*
X0051181Y0470472D03*
X0122047Y0470472D03*
X0572441Y0204724D03*
X0285433Y0470472D03*
D63*
X0377953Y0453937D03*
X0362205Y0453937D03*
D61*
X0015945Y0314173D03*
D42*
X0131890Y0157185D03*
X0454331Y0412697D03*
D75*
X0219291Y0187500D03*
D42*
X0539370Y0163091D03*
X0393307Y0231988D03*
D75*
X0101181Y0175689D03*
X0498819Y0400098D03*
D42*
X0525591Y0418602D03*
X0200787Y0160728D03*
X0393307Y0146949D03*
X0539370Y0412697D03*
X0468110Y0157185D03*
X0060630Y0412697D03*
X0206693Y0231988D03*
X0200787Y0218209D03*
D75*
X0101181Y0400098D03*
D42*
X0145669Y0163091D03*
D75*
X0498819Y0175689D03*
X0380709Y0187500D03*
D42*
X0399213Y0160728D03*
X0131890Y0418602D03*
X0468110Y0418602D03*
X0074409Y0157185D03*
X0060630Y0163091D03*
X0074409Y0418602D03*
X0454331Y0163091D03*
X0525591Y0157185D03*
X0206693Y0146949D03*
X0145669Y0412697D03*
X0399213Y0218209D03*
D86*
X0512598Y0201280D03*
X0512598Y0217028D03*
X0512598Y0232776D03*
X0512598Y0248524D03*
X0512598Y0264272D03*
X0512598Y0280020D03*
X0512598Y0295768D03*
X0512598Y0311516D03*
X0512598Y0327264D03*
X0512598Y0343012D03*
X0512598Y0358760D03*
X0512598Y0374508D03*
X0496850Y0209154D03*
X0496850Y0224902D03*
X0496850Y0240650D03*
X0496850Y0256398D03*
X0496850Y0272146D03*
X0496850Y0287894D03*
X0496850Y0303642D03*
X0496850Y0319390D03*
X0496850Y0335138D03*
X0496850Y0350886D03*
X0496850Y0366634D03*
X0481102Y0201280D03*
X0481102Y0217028D03*
X0481102Y0232776D03*
X0481102Y0248524D03*
X0481102Y0264272D03*
X0481102Y0280020D03*
X0481102Y0295768D03*
X0481102Y0311516D03*
X0481102Y0327264D03*
X0481102Y0343012D03*
X0481102Y0358760D03*
X0481102Y0374508D03*
X0244882Y0173720D03*
X0260630Y0173720D03*
X0276378Y0173720D03*
X0292126Y0173720D03*
X0307874Y0173720D03*
X0323622Y0173720D03*
X0339370Y0173720D03*
X0355118Y0173720D03*
X0252756Y0189469D03*
X0268504Y0189469D03*
X0284252Y0189469D03*
X0300000Y0189469D03*
X0315748Y0189469D03*
X0331496Y0189469D03*
X0347244Y0189469D03*
X0244882Y0205217D03*
X0260630Y0205217D03*
X0276378Y0205217D03*
X0292126Y0205217D03*
X0307874Y0205217D03*
X0323622Y0205217D03*
X0339370Y0205217D03*
X0355118Y0205217D03*
X0087402Y0374508D03*
X0087402Y0358760D03*
X0087402Y0343012D03*
X0087402Y0327264D03*
X0087402Y0311516D03*
X0087402Y0295768D03*
X0087402Y0280020D03*
X0087402Y0264272D03*
X0087402Y0248524D03*
X0087402Y0232776D03*
X0087402Y0217028D03*
X0087402Y0201280D03*
X0103150Y0366634D03*
X0103150Y0350886D03*
X0103150Y0335138D03*
X0103150Y0319390D03*
X0103150Y0303642D03*
X0103150Y0287894D03*
X0103150Y0272146D03*
X0103150Y0256398D03*
X0103150Y0240650D03*
X0103150Y0224902D03*
X0103150Y0209154D03*
X0118898Y0374508D03*
X0118898Y0358760D03*
X0118898Y0343012D03*
X0118898Y0327264D03*
X0118898Y0311516D03*
X0118898Y0295768D03*
X0118898Y0280020D03*
X0118898Y0264272D03*
X0118898Y0248524D03*
X0118898Y0232776D03*
X0118898Y0217028D03*
X0118898Y0201280D03*
D41*
X0175394Y0295276D03*
X0419291Y0488189D03*
X0079528Y0453150D03*
X0271654Y0106299D03*
X0110236Y0470472D03*
X0320866Y0452756D03*
X0175394Y0283465D03*
X0408858Y0265748D03*
X0261811Y0470472D03*
X0482283Y0488189D03*
G36*
G01*
X0054705Y0449213D02*
X0051988Y0449213D01*
G75*
G02*
X0051083Y0450118I0000000J0000906D01*
G01*
X0051083Y0455394D01*
G75*
G02*
X0051988Y0456299I0000906J0000000D01*
G01*
X0054705Y0456299D01*
G75*
G02*
X0055610Y0455394I0000000J-000906D01*
G01*
X0055610Y0450118D01*
G75*
G02*
X0054705Y0449213I-000906J0000000D01*
G01*
G37*
D90*
X0049409Y0452756D03*
G36*
G01*
X0066122Y0449213D02*
X0063406Y0449213D01*
G75*
G02*
X0062500Y0450118I0000000J0000906D01*
G01*
X0062500Y0455394D01*
G75*
G02*
X0063406Y0456299I0000906J0000000D01*
G01*
X0066122Y0456299D01*
G75*
G02*
X0067028Y0455394I0000000J-000906D01*
G01*
X0067028Y0450118D01*
G75*
G02*
X0066122Y0449213I-000906J0000000D01*
G01*
G37*
X0068701Y0452756D03*
D41*
X0183071Y0488189D03*
X0285433Y0452756D03*
X0145669Y0488189D03*
D61*
X0586417Y0066142D03*
D65*
X0561811Y0516732D03*
X0549488Y0516732D03*
X0537165Y0516732D03*
X0524843Y0516732D03*
X0512520Y0516732D03*
X0500197Y0516732D03*
X0487874Y0516732D03*
X0465866Y0516732D03*
X0453543Y0516732D03*
X0561811Y0534055D03*
X0550787Y0534055D03*
X0540945Y0534055D03*
X0531102Y0534055D03*
X0521260Y0534055D03*
X0511417Y0534055D03*
X0501575Y0534055D03*
X0491732Y0534055D03*
X0481890Y0534055D03*
X0472047Y0534055D03*
X0462205Y0534055D03*
X0452362Y0534055D03*
X0561811Y0548228D03*
X0550787Y0548228D03*
X0540945Y0548228D03*
X0521260Y0548228D03*
X0511417Y0548228D03*
X0491732Y0548228D03*
X0481890Y0548228D03*
X0472047Y0548228D03*
X0462205Y0548228D03*
X0452362Y0548228D03*
X0430315Y0516732D03*
X0419291Y0516732D03*
X0406969Y0516732D03*
X0394646Y0516732D03*
X0382323Y0516732D03*
X0361417Y0516732D03*
X0350394Y0516732D03*
X0430315Y0534055D03*
X0420472Y0534055D03*
X0410630Y0534055D03*
X0400787Y0534055D03*
X0390945Y0534055D03*
X0381102Y0534055D03*
X0371260Y0534055D03*
X0361417Y0534055D03*
X0350394Y0534055D03*
X0430315Y0548228D03*
X0420472Y0548228D03*
X0410630Y0548228D03*
X0390945Y0548228D03*
X0381102Y0548228D03*
X0371260Y0548228D03*
X0361417Y0548228D03*
X0350394Y0548228D03*
X0325984Y0516732D03*
X0314961Y0516732D03*
X0295276Y0516732D03*
X0285433Y0516732D03*
X0275591Y0516732D03*
X0265748Y0516732D03*
X0254724Y0516732D03*
X0325984Y0534055D03*
X0314961Y0534055D03*
X0305118Y0534055D03*
X0295276Y0534055D03*
X0285433Y0534055D03*
X0275591Y0534055D03*
X0265748Y0534055D03*
X0254724Y0534055D03*
X0325984Y0548228D03*
X0314961Y0548228D03*
X0305118Y0548228D03*
X0295276Y0548228D03*
X0285433Y0548228D03*
X0265748Y0548228D03*
X0254724Y0548228D03*
X0231496Y0516732D03*
X0221654Y0516732D03*
X0211811Y0516732D03*
X0201969Y0516732D03*
X0192126Y0516732D03*
X0182283Y0516732D03*
X0231496Y0534055D03*
X0221654Y0534055D03*
X0211811Y0534055D03*
X0201969Y0534055D03*
X0192126Y0534055D03*
X0182283Y0534055D03*
X0231496Y0548228D03*
X0221654Y0548228D03*
X0201969Y0548228D03*
X0192126Y0548228D03*
X0182283Y0548228D03*
X0159055Y0516732D03*
X0146732Y0516732D03*
X0134409Y0516732D03*
X0122087Y0516732D03*
X0109764Y0516732D03*
X0097441Y0516732D03*
X0085118Y0516732D03*
X0063110Y0516732D03*
D64*
X0050787Y0516732D03*
D65*
X0159055Y0534055D03*
X0148031Y0534055D03*
X0138189Y0534055D03*
X0128346Y0534055D03*
X0118504Y0534055D03*
X0108661Y0534055D03*
X0098819Y0534055D03*
X0088976Y0534055D03*
X0079134Y0534055D03*
X0069291Y0534055D03*
X0059449Y0534055D03*
X0049606Y0534055D03*
X0159055Y0548228D03*
X0148031Y0548228D03*
X0138189Y0548228D03*
X0118504Y0548228D03*
X0108661Y0548228D03*
X0088976Y0548228D03*
X0079134Y0548228D03*
X0069291Y0548228D03*
X0059449Y0548228D03*
X0049606Y0548228D03*
D13*
X0097638Y0569685D03*
X0274409Y0569685D03*
X0531102Y0569685D03*
D41*
X0426575Y0289370D03*
G36*
G01*
X0198035Y0109043D02*
X0198035Y0111720D01*
G75*
G02*
X0198370Y0112055I0000335J0000000D01*
G01*
X0201047Y0112055D01*
G75*
G02*
X0201382Y0111720I0000000J-000335D01*
G01*
X0201382Y0109043D01*
G75*
G02*
X0201047Y0108709I-000335J0000000D01*
G01*
X0198370Y0108709D01*
G75*
G02*
X0198035Y0109043I0000000J0000335D01*
G01*
G37*
G36*
G01*
X0204256Y0109043D02*
X0204256Y0111720D01*
G75*
G02*
X0204591Y0112055I0000335J0000000D01*
G01*
X0207268Y0112055D01*
G75*
G02*
X0207602Y0111720I0000000J-000335D01*
G01*
X0207602Y0109043D01*
G75*
G02*
X0207268Y0108709I-000335J0000000D01*
G01*
X0204591Y0108709D01*
G75*
G02*
X0204256Y0109043I0000000J0000335D01*
G01*
G37*
X0074803Y0470472D03*
X0140000Y0010000D03*
X0140000Y0020000D03*
X0140000Y0030000D03*
X0140000Y0040000D03*
X0140000Y0050000D03*
X0150000Y0010000D03*
X0150000Y0020000D03*
X0150000Y0030000D03*
X0150000Y0040000D03*
X0150000Y0050000D03*
X0160000Y0010000D03*
X0160000Y0020000D03*
X0160000Y0030000D03*
X0160000Y0040000D03*
X0160000Y0050000D03*
D79*
X0208681Y0083567D03*
D72*
X0216161Y0097567D03*
D79*
X0203681Y0083567D03*
D72*
X0206161Y0097567D03*
X0196161Y0097567D03*
D79*
X0198681Y0083567D03*
D72*
X0186161Y0097567D03*
D79*
X0193681Y0083567D03*
D72*
X0186161Y0031567D03*
D79*
X0193681Y0044817D03*
X0198681Y0044817D03*
D72*
X0196161Y0031567D03*
D79*
X0203681Y0044817D03*
D72*
X0206161Y0031567D03*
D79*
X0208681Y0044817D03*
D72*
X0216161Y0031567D03*
D41*
X0062992Y0470472D03*
X0426378Y0336614D03*
X0250000Y0470472D03*
X0194882Y0488189D03*
X0074803Y0488189D03*
X0268307Y0038878D02*
%LPD*%
G01*
D35*
X0409016Y0090453D03*
D66*
X0399016Y0090453D03*
X0389016Y0090453D03*
G36*
G01*
X0336900Y0075177D02*
X0335541Y0075177D01*
G75*
G02*
X0334961Y0075758I0000000J0000581D01*
G01*
X0334961Y0076919D01*
G75*
G02*
X0335541Y0077500I0000581J0000000D01*
G01*
X0336900Y0077500D01*
G75*
G02*
X0337480Y0076919I0000000J-000581D01*
G01*
X0337480Y0075758D01*
G75*
G02*
X0336900Y0075177I-000581J0000000D01*
G01*
G37*
G36*
G01*
X0336900Y0078996D02*
X0335541Y0078996D01*
G75*
G02*
X0334961Y0079577I0000000J0000581D01*
G01*
X0334961Y0080738D01*
G75*
G02*
X0335541Y0081319I0000581J0000000D01*
G01*
X0336900Y0081319D01*
G75*
G02*
X0337480Y0080738I0000000J-000581D01*
G01*
X0337480Y0079577D01*
G75*
G02*
X0336900Y0078996I-000581J0000000D01*
G01*
G37*
G36*
G01*
X0371722Y0050520D02*
X0371722Y0049161D01*
G75*
G02*
X0371142Y0048581I-000581J0000000D01*
G01*
X0369980Y0048581D01*
G75*
G02*
X0369400Y0049161I0000000J0000581D01*
G01*
X0369400Y0050520D01*
G75*
G02*
X0369980Y0051100I0000581J0000000D01*
G01*
X0371142Y0051100D01*
G75*
G02*
X0371722Y0050520I0000000J-000581D01*
G01*
G37*
G36*
G01*
X0367903Y0050520D02*
X0367903Y0049161D01*
G75*
G02*
X0367323Y0048581I-000581J0000000D01*
G01*
X0366161Y0048581D01*
G75*
G02*
X0365581Y0049161I0000000J0000581D01*
G01*
X0365581Y0050520D01*
G75*
G02*
X0366161Y0051100I0000581J0000000D01*
G01*
X0367323Y0051100D01*
G75*
G02*
X0367903Y0050520I0000000J-000581D01*
G01*
G37*
G36*
G01*
X0374331Y0075411D02*
X0374331Y0076770D01*
G75*
G02*
X0374911Y0077350I0000581J0000000D01*
G01*
X0376073Y0077350D01*
G75*
G02*
X0376653Y0076770I0000000J-000581D01*
G01*
X0376653Y0075411D01*
G75*
G02*
X0376073Y0074831I-000581J0000000D01*
G01*
X0374911Y0074831D01*
G75*
G02*
X0374331Y0075411I0000000J0000581D01*
G01*
G37*
G36*
G01*
X0378150Y0075411D02*
X0378150Y0076770D01*
G75*
G02*
X0378730Y0077350I0000581J0000000D01*
G01*
X0379892Y0077350D01*
G75*
G02*
X0380472Y0076770I0000000J-000581D01*
G01*
X0380472Y0075411D01*
G75*
G02*
X0379892Y0074831I-000581J0000000D01*
G01*
X0378730Y0074831D01*
G75*
G02*
X0378150Y0075411I0000000J0000581D01*
G01*
G37*
G36*
G01*
X0274307Y0059030D02*
X0274307Y0060388D01*
G75*
G02*
X0274888Y0060969I0000581J0000000D01*
G01*
X0276049Y0060969D01*
G75*
G02*
X0276630Y0060388I0000000J-000581D01*
G01*
X0276630Y0059030D01*
G75*
G02*
X0276049Y0058449I-000581J0000000D01*
G01*
X0274888Y0058449D01*
G75*
G02*
X0274307Y0059030I0000000J0000581D01*
G01*
G37*
G36*
G01*
X0278126Y0059030D02*
X0278126Y0060388D01*
G75*
G02*
X0278707Y0060969I0000581J0000000D01*
G01*
X0279868Y0060969D01*
G75*
G02*
X0280449Y0060388I0000000J-000581D01*
G01*
X0280449Y0059030D01*
G75*
G02*
X0279868Y0058449I-000581J0000000D01*
G01*
X0278707Y0058449D01*
G75*
G02*
X0278126Y0059030I0000000J0000581D01*
G01*
G37*
G36*
G01*
X0287869Y0073032D02*
X0289887Y0073032D01*
G75*
G02*
X0290748Y0072170I0000000J-000861D01*
G01*
X0290748Y0070448D01*
G75*
G02*
X0289887Y0069587I-000861J0000000D01*
G01*
X0287869Y0069587D01*
G75*
G02*
X0287008Y0070448I0000000J0000861D01*
G01*
X0287008Y0072170D01*
G75*
G02*
X0287869Y0073032I0000861J0000000D01*
G01*
G37*
G36*
G01*
X0287869Y0066831D02*
X0289887Y0066831D01*
G75*
G02*
X0290748Y0065970I0000000J-000861D01*
G01*
X0290748Y0064247D01*
G75*
G02*
X0289887Y0063386I-000861J0000000D01*
G01*
X0287869Y0063386D01*
G75*
G02*
X0287008Y0064247I0000000J0000861D01*
G01*
X0287008Y0065970D01*
G75*
G02*
X0287869Y0066831I0000861J0000000D01*
G01*
G37*
G36*
G01*
X0358579Y0076082D02*
X0358579Y0078099D01*
G75*
G02*
X0359440Y0078961I0000861J0000000D01*
G01*
X0361162Y0078961D01*
G75*
G02*
X0362024Y0078099I0000000J-000861D01*
G01*
X0362024Y0076082D01*
G75*
G02*
X0361162Y0075221I-000861J0000000D01*
G01*
X0359440Y0075221D01*
G75*
G02*
X0358579Y0076082I0000000J0000861D01*
G01*
G37*
G36*
G01*
X0364779Y0076082D02*
X0364779Y0078099D01*
G75*
G02*
X0365641Y0078961I0000861J0000000D01*
G01*
X0367363Y0078961D01*
G75*
G02*
X0368224Y0078099I0000000J-000861D01*
G01*
X0368224Y0076082D01*
G75*
G02*
X0367363Y0075221I-000861J0000000D01*
G01*
X0365641Y0075221D01*
G75*
G02*
X0364779Y0076082I0000000J0000861D01*
G01*
G37*
G36*
G01*
X0363972Y0050520D02*
X0363972Y0049161D01*
G75*
G02*
X0363392Y0048581I-000581J0000000D01*
G01*
X0362230Y0048581D01*
G75*
G02*
X0361650Y0049161I0000000J0000581D01*
G01*
X0361650Y0050520D01*
G75*
G02*
X0362230Y0051100I0000581J0000000D01*
G01*
X0363392Y0051100D01*
G75*
G02*
X0363972Y0050520I0000000J-000581D01*
G01*
G37*
G36*
G01*
X0360153Y0050520D02*
X0360153Y0049161D01*
G75*
G02*
X0359573Y0048581I-000581J0000000D01*
G01*
X0358411Y0048581D01*
G75*
G02*
X0357831Y0049161I0000000J0000581D01*
G01*
X0357831Y0050520D01*
G75*
G02*
X0358411Y0051100I0000581J0000000D01*
G01*
X0359573Y0051100D01*
G75*
G02*
X0360153Y0050520I0000000J-000581D01*
G01*
G37*
G36*
G01*
X0376081Y0067020D02*
X0374722Y0067020D01*
G75*
G02*
X0374142Y0067600I0000000J0000581D01*
G01*
X0374142Y0068762D01*
G75*
G02*
X0374722Y0069343I0000581J0000000D01*
G01*
X0376081Y0069343D01*
G75*
G02*
X0376661Y0068762I0000000J-000581D01*
G01*
X0376661Y0067600D01*
G75*
G02*
X0376081Y0067020I-000581J0000000D01*
G01*
G37*
G36*
G01*
X0376081Y0070839D02*
X0374722Y0070839D01*
G75*
G02*
X0374142Y0071419I0000000J0000581D01*
G01*
X0374142Y0072581D01*
G75*
G02*
X0374722Y0073161I0000581J0000000D01*
G01*
X0376081Y0073161D01*
G75*
G02*
X0376661Y0072581I0000000J-000581D01*
G01*
X0376661Y0071419D01*
G75*
G02*
X0376081Y0070839I-000581J0000000D01*
G01*
G37*
G36*
G01*
X0369793Y0088996D02*
X0371151Y0088996D01*
G75*
G02*
X0371732Y0088415I0000000J-000581D01*
G01*
X0371732Y0087254D01*
G75*
G02*
X0371151Y0086673I-000581J0000000D01*
G01*
X0369793Y0086673D01*
G75*
G02*
X0369213Y0087254I0000000J0000581D01*
G01*
X0369213Y0088415D01*
G75*
G02*
X0369793Y0088996I0000581J0000000D01*
G01*
G37*
G36*
G01*
X0369793Y0085177D02*
X0371151Y0085177D01*
G75*
G02*
X0371732Y0084597I0000000J-000581D01*
G01*
X0371732Y0083435D01*
G75*
G02*
X0371151Y0082854I-000581J0000000D01*
G01*
X0369793Y0082854D01*
G75*
G02*
X0369213Y0083435I0000000J0000581D01*
G01*
X0369213Y0084597D01*
G75*
G02*
X0369793Y0085177I0000581J0000000D01*
G01*
G37*
G36*
G01*
X0365236Y0092333D02*
X0365236Y0093691D01*
G75*
G02*
X0365817Y0094272I0000581J0000000D01*
G01*
X0366978Y0094272D01*
G75*
G02*
X0367559Y0093691I0000000J-000581D01*
G01*
X0367559Y0092333D01*
G75*
G02*
X0366978Y0091752I-000581J0000000D01*
G01*
X0365817Y0091752D01*
G75*
G02*
X0365236Y0092333I0000000J0000581D01*
G01*
G37*
G36*
G01*
X0369055Y0092333D02*
X0369055Y0093691D01*
G75*
G02*
X0369636Y0094272I0000581J0000000D01*
G01*
X0370797Y0094272D01*
G75*
G02*
X0371378Y0093691I0000000J-000581D01*
G01*
X0371378Y0092333D01*
G75*
G02*
X0370797Y0091752I-000581J0000000D01*
G01*
X0369636Y0091752D01*
G75*
G02*
X0369055Y0092333I0000000J0000581D01*
G01*
G37*
G36*
G01*
X0340433Y0093514D02*
X0340433Y0094872D01*
G75*
G02*
X0341014Y0095453I0000581J0000000D01*
G01*
X0342175Y0095453D01*
G75*
G02*
X0342756Y0094872I0000000J-000581D01*
G01*
X0342756Y0093514D01*
G75*
G02*
X0342175Y0092933I-000581J0000000D01*
G01*
X0341014Y0092933D01*
G75*
G02*
X0340433Y0093514I0000000J0000581D01*
G01*
G37*
G36*
G01*
X0344252Y0093514D02*
X0344252Y0094872D01*
G75*
G02*
X0344833Y0095453I0000581J0000000D01*
G01*
X0345994Y0095453D01*
G75*
G02*
X0346575Y0094872I0000000J-000581D01*
G01*
X0346575Y0093514D01*
G75*
G02*
X0345994Y0092933I-000581J0000000D01*
G01*
X0344833Y0092933D01*
G75*
G02*
X0344252Y0093514I0000000J0000581D01*
G01*
G37*
G36*
G01*
X0356222Y0050520D02*
X0356222Y0049161D01*
G75*
G02*
X0355642Y0048581I-000581J0000000D01*
G01*
X0354480Y0048581D01*
G75*
G02*
X0353900Y0049161I0000000J0000581D01*
G01*
X0353900Y0050520D01*
G75*
G02*
X0354480Y0051100I0000581J0000000D01*
G01*
X0355642Y0051100D01*
G75*
G02*
X0356222Y0050520I0000000J-000581D01*
G01*
G37*
G36*
G01*
X0352403Y0050520D02*
X0352403Y0049161D01*
G75*
G02*
X0351823Y0048581I-000581J0000000D01*
G01*
X0350661Y0048581D01*
G75*
G02*
X0350081Y0049161I0000000J0000581D01*
G01*
X0350081Y0050520D01*
G75*
G02*
X0350661Y0051100I0000581J0000000D01*
G01*
X0351823Y0051100D01*
G75*
G02*
X0352403Y0050520I0000000J-000581D01*
G01*
G37*
G36*
G01*
X0348472Y0050520D02*
X0348472Y0049161D01*
G75*
G02*
X0347892Y0048581I-000581J0000000D01*
G01*
X0346730Y0048581D01*
G75*
G02*
X0346150Y0049161I0000000J0000581D01*
G01*
X0346150Y0050520D01*
G75*
G02*
X0346730Y0051100I0000581J0000000D01*
G01*
X0347892Y0051100D01*
G75*
G02*
X0348472Y0050520I0000000J-000581D01*
G01*
G37*
G36*
G01*
X0344653Y0050520D02*
X0344653Y0049161D01*
G75*
G02*
X0344073Y0048581I-000581J0000000D01*
G01*
X0342911Y0048581D01*
G75*
G02*
X0342331Y0049161I0000000J0000581D01*
G01*
X0342331Y0050520D01*
G75*
G02*
X0342911Y0051100I0000581J0000000D01*
G01*
X0344073Y0051100D01*
G75*
G02*
X0344653Y0050520I0000000J-000581D01*
G01*
G37*
G36*
G01*
X0372081Y0075020D02*
X0370722Y0075020D01*
G75*
G02*
X0370142Y0075600I0000000J0000581D01*
G01*
X0370142Y0076762D01*
G75*
G02*
X0370722Y0077343I0000581J0000000D01*
G01*
X0372081Y0077343D01*
G75*
G02*
X0372661Y0076762I0000000J-000581D01*
G01*
X0372661Y0075600D01*
G75*
G02*
X0372081Y0075020I-000581J0000000D01*
G01*
G37*
G36*
G01*
X0372081Y0078839D02*
X0370722Y0078839D01*
G75*
G02*
X0370142Y0079419I0000000J0000581D01*
G01*
X0370142Y0080581D01*
G75*
G02*
X0370722Y0081161I0000581J0000000D01*
G01*
X0372081Y0081161D01*
G75*
G02*
X0372661Y0080581I0000000J-000581D01*
G01*
X0372661Y0079419D01*
G75*
G02*
X0372081Y0078839I-000581J0000000D01*
G01*
G37*
D29*
X0282315Y0065069D03*
X0282315Y0072549D03*
X0274441Y0068809D03*
D47*
X0345787Y0070768D03*
X0345787Y0068209D03*
X0345787Y0065650D03*
X0345787Y0063091D03*
X0345787Y0060532D03*
X0345787Y0057972D03*
X0345787Y0055413D03*
X0369016Y0055413D03*
X0369016Y0057972D03*
X0369016Y0060532D03*
X0369016Y0063091D03*
X0369016Y0065650D03*
X0369016Y0068209D03*
X0369016Y0070768D03*
G36*
G01*
X0380081Y0067020D02*
X0378722Y0067020D01*
G75*
G02*
X0378142Y0067600I0000000J0000581D01*
G01*
X0378142Y0068762D01*
G75*
G02*
X0378722Y0069343I0000581J0000000D01*
G01*
X0380081Y0069343D01*
G75*
G02*
X0380661Y0068762I0000000J-000581D01*
G01*
X0380661Y0067600D01*
G75*
G02*
X0380081Y0067020I-000581J0000000D01*
G01*
G37*
G36*
G01*
X0380081Y0070839D02*
X0378722Y0070839D01*
G75*
G02*
X0378142Y0071419I0000000J0000581D01*
G01*
X0378142Y0072581D01*
G75*
G02*
X0378722Y0073161I0000581J0000000D01*
G01*
X0380081Y0073161D01*
G75*
G02*
X0380661Y0072581I0000000J-000581D01*
G01*
X0380661Y0071419D01*
G75*
G02*
X0380081Y0070839I-000581J0000000D01*
G01*
G37*
G36*
G01*
X0332953Y0089774D02*
X0332953Y0091132D01*
G75*
G02*
X0333533Y0091713I0000581J0000000D01*
G01*
X0334695Y0091713D01*
G75*
G02*
X0335276Y0091132I0000000J-000581D01*
G01*
X0335276Y0089774D01*
G75*
G02*
X0334695Y0089193I-000581J0000000D01*
G01*
X0333533Y0089193D01*
G75*
G02*
X0332953Y0089774I0000000J0000581D01*
G01*
G37*
G36*
G01*
X0336772Y0089774D02*
X0336772Y0091132D01*
G75*
G02*
X0337352Y0091713I0000581J0000000D01*
G01*
X0338514Y0091713D01*
G75*
G02*
X0339094Y0091132I0000000J-000581D01*
G01*
X0339094Y0089774D01*
G75*
G02*
X0338514Y0089193I-000581J0000000D01*
G01*
X0337352Y0089193D01*
G75*
G02*
X0336772Y0089774I0000000J0000581D01*
G01*
G37*
G36*
G01*
X0339094Y0094872D02*
X0339094Y0093514D01*
G75*
G02*
X0338514Y0092933I-000581J0000000D01*
G01*
X0337352Y0092933D01*
G75*
G02*
X0336772Y0093514I0000000J0000581D01*
G01*
X0336772Y0094872D01*
G75*
G02*
X0337352Y0095453I0000581J0000000D01*
G01*
X0338514Y0095453D01*
G75*
G02*
X0339094Y0094872I0000000J-000581D01*
G01*
G37*
G36*
G01*
X0335276Y0094872D02*
X0335276Y0093514D01*
G75*
G02*
X0334695Y0092933I-000581J0000000D01*
G01*
X0333533Y0092933D01*
G75*
G02*
X0332953Y0093514I0000000J0000581D01*
G01*
X0332953Y0094872D01*
G75*
G02*
X0333533Y0095453I0000581J0000000D01*
G01*
X0334695Y0095453D01*
G75*
G02*
X0335276Y0094872I0000000J-000581D01*
G01*
G37*
G36*
G01*
X0335541Y0073839D02*
X0336900Y0073839D01*
G75*
G02*
X0337480Y0073258I0000000J-000581D01*
G01*
X0337480Y0072097D01*
G75*
G02*
X0336900Y0071516I-000581J0000000D01*
G01*
X0335541Y0071516D01*
G75*
G02*
X0334961Y0072097I0000000J0000581D01*
G01*
X0334961Y0073258D01*
G75*
G02*
X0335541Y0073839I0000581J0000000D01*
G01*
G37*
G36*
G01*
X0335541Y0070020D02*
X0336900Y0070020D01*
G75*
G02*
X0337480Y0069439I0000000J-000581D01*
G01*
X0337480Y0068278D01*
G75*
G02*
X0336900Y0067697I-000581J0000000D01*
G01*
X0335541Y0067697D01*
G75*
G02*
X0334961Y0068278I0000000J0000581D01*
G01*
X0334961Y0069439D01*
G75*
G02*
X0335541Y0070020I0000581J0000000D01*
G01*
G37*
G36*
G01*
X0381978Y0084035D02*
X0380620Y0084035D01*
G75*
G02*
X0380039Y0084616I0000000J0000581D01*
G01*
X0380039Y0085778D01*
G75*
G02*
X0380620Y0086358I0000581J0000000D01*
G01*
X0381978Y0086358D01*
G75*
G02*
X0382559Y0085778I0000000J-000581D01*
G01*
X0382559Y0084616D01*
G75*
G02*
X0381978Y0084035I-000581J0000000D01*
G01*
G37*
G36*
G01*
X0381978Y0087854D02*
X0380620Y0087854D01*
G75*
G02*
X0380039Y0088435I0000000J0000581D01*
G01*
X0380039Y0089597D01*
G75*
G02*
X0380620Y0090177I0000581J0000000D01*
G01*
X0381978Y0090177D01*
G75*
G02*
X0382559Y0089597I0000000J-000581D01*
G01*
X0382559Y0088435D01*
G75*
G02*
X0381978Y0087854I-000581J0000000D01*
G01*
G37*
G36*
G01*
X0307421Y0093514D02*
X0307421Y0094872D01*
G75*
G02*
X0308002Y0095453I0000581J0000000D01*
G01*
X0309163Y0095453D01*
G75*
G02*
X0309744Y0094872I0000000J-000581D01*
G01*
X0309744Y0093514D01*
G75*
G02*
X0309163Y0092933I-000581J0000000D01*
G01*
X0308002Y0092933D01*
G75*
G02*
X0307421Y0093514I0000000J0000581D01*
G01*
G37*
G36*
G01*
X0311240Y0093514D02*
X0311240Y0094872D01*
G75*
G02*
X0311821Y0095453I0000581J0000000D01*
G01*
X0312982Y0095453D01*
G75*
G02*
X0313563Y0094872I0000000J-000581D01*
G01*
X0313563Y0093514D01*
G75*
G02*
X0312982Y0092933I-000581J0000000D01*
G01*
X0311821Y0092933D01*
G75*
G02*
X0311240Y0093514I0000000J0000581D01*
G01*
G37*
G36*
G01*
X0330817Y0057697D02*
X0332175Y0057697D01*
G75*
G02*
X0332756Y0057116I0000000J-000581D01*
G01*
X0332756Y0055955D01*
G75*
G02*
X0332175Y0055374I-000581J0000000D01*
G01*
X0330817Y0055374D01*
G75*
G02*
X0330236Y0055955I0000000J0000581D01*
G01*
X0330236Y0057116D01*
G75*
G02*
X0330817Y0057697I0000581J0000000D01*
G01*
G37*
G36*
G01*
X0330817Y0053878D02*
X0332175Y0053878D01*
G75*
G02*
X0332756Y0053297I0000000J-000581D01*
G01*
X0332756Y0052136D01*
G75*
G02*
X0332175Y0051555I-000581J0000000D01*
G01*
X0330817Y0051555D01*
G75*
G02*
X0330236Y0052136I0000000J0000581D01*
G01*
X0330236Y0053297D01*
G75*
G02*
X0330817Y0053878I0000581J0000000D01*
G01*
G37*
G36*
G01*
X0296348Y0086791D02*
X0294990Y0086791D01*
G75*
G02*
X0294409Y0087372I0000000J0000581D01*
G01*
X0294409Y0088534D01*
G75*
G02*
X0294990Y0089114I0000581J0000000D01*
G01*
X0296348Y0089114D01*
G75*
G02*
X0296929Y0088534I0000000J-000581D01*
G01*
X0296929Y0087372D01*
G75*
G02*
X0296348Y0086791I-000581J0000000D01*
G01*
G37*
G36*
G01*
X0296348Y0090610D02*
X0294990Y0090610D01*
G75*
G02*
X0294409Y0091191I0000000J0000581D01*
G01*
X0294409Y0092352D01*
G75*
G02*
X0294990Y0092933I0000581J0000000D01*
G01*
X0296348Y0092933D01*
G75*
G02*
X0296929Y0092352I0000000J-000581D01*
G01*
X0296929Y0091191D01*
G75*
G02*
X0296348Y0090610I-000581J0000000D01*
G01*
G37*
D45*
X0388071Y0079823D03*
D24*
X0397047Y0055020D03*
D45*
X0406024Y0079823D03*
G36*
G01*
X0374823Y0045876D02*
X0374823Y0047234D01*
G75*
G02*
X0375403Y0047815I0000581J0000000D01*
G01*
X0376565Y0047815D01*
G75*
G02*
X0377146Y0047234I0000000J-000581D01*
G01*
X0377146Y0045876D01*
G75*
G02*
X0376565Y0045295I-000581J0000000D01*
G01*
X0375403Y0045295D01*
G75*
G02*
X0374823Y0045876I0000000J0000581D01*
G01*
G37*
G36*
G01*
X0378642Y0045876D02*
X0378642Y0047234D01*
G75*
G02*
X0379222Y0047815I0000581J0000000D01*
G01*
X0380384Y0047815D01*
G75*
G02*
X0380964Y0047234I0000000J-000581D01*
G01*
X0380964Y0045876D01*
G75*
G02*
X0380384Y0045295I-000581J0000000D01*
G01*
X0379222Y0045295D01*
G75*
G02*
X0378642Y0045876I0000000J0000581D01*
G01*
G37*
G36*
G01*
X0336703Y0051555D02*
X0335344Y0051555D01*
G75*
G02*
X0334764Y0052136I0000000J0000581D01*
G01*
X0334764Y0053297D01*
G75*
G02*
X0335344Y0053878I0000581J0000000D01*
G01*
X0336703Y0053878D01*
G75*
G02*
X0337283Y0053297I0000000J-000581D01*
G01*
X0337283Y0052136D01*
G75*
G02*
X0336703Y0051555I-000581J0000000D01*
G01*
G37*
G36*
G01*
X0336703Y0055374D02*
X0335344Y0055374D01*
G75*
G02*
X0334764Y0055955I0000000J0000581D01*
G01*
X0334764Y0057116D01*
G75*
G02*
X0335344Y0057697I0000581J0000000D01*
G01*
X0336703Y0057697D01*
G75*
G02*
X0337283Y0057116I0000000J-000581D01*
G01*
X0337283Y0055955D01*
G75*
G02*
X0336703Y0055374I-000581J0000000D01*
G01*
G37*
G36*
G01*
X0373051Y0092136D02*
X0373051Y0093494D01*
G75*
G02*
X0373632Y0094075I0000581J0000000D01*
G01*
X0374793Y0094075D01*
G75*
G02*
X0375374Y0093494I0000000J-000581D01*
G01*
X0375374Y0092136D01*
G75*
G02*
X0374793Y0091555I-000581J0000000D01*
G01*
X0373632Y0091555D01*
G75*
G02*
X0373051Y0092136I0000000J0000581D01*
G01*
G37*
G36*
G01*
X0376870Y0092136D02*
X0376870Y0093494D01*
G75*
G02*
X0377451Y0094075I0000581J0000000D01*
G01*
X0378612Y0094075D01*
G75*
G02*
X0379193Y0093494I0000000J-000581D01*
G01*
X0379193Y0092136D01*
G75*
G02*
X0378612Y0091555I-000581J0000000D01*
G01*
X0377451Y0091555D01*
G75*
G02*
X0376870Y0092136I0000000J0000581D01*
G01*
G37*
G36*
G01*
X0339222Y0058661D02*
X0340581Y0058661D01*
G75*
G02*
X0341161Y0058081I0000000J-000581D01*
G01*
X0341161Y0056919D01*
G75*
G02*
X0340581Y0056339I-000581J0000000D01*
G01*
X0339222Y0056339D01*
G75*
G02*
X0338642Y0056919I0000000J0000581D01*
G01*
X0338642Y0058081D01*
G75*
G02*
X0339222Y0058661I0000581J0000000D01*
G01*
G37*
G36*
G01*
X0339222Y0054843D02*
X0340581Y0054843D01*
G75*
G02*
X0341161Y0054262I0000000J-000581D01*
G01*
X0341161Y0053100D01*
G75*
G02*
X0340581Y0052520I-000581J0000000D01*
G01*
X0339222Y0052520D01*
G75*
G02*
X0338642Y0053100I0000000J0000581D01*
G01*
X0338642Y0054262D01*
G75*
G02*
X0339222Y0054843I0000581J0000000D01*
G01*
G37*
G36*
G01*
X0285118Y0059065D02*
X0285118Y0060423D01*
G75*
G02*
X0285699Y0061004I0000581J0000000D01*
G01*
X0286860Y0061004D01*
G75*
G02*
X0287441Y0060423I0000000J-000581D01*
G01*
X0287441Y0059065D01*
G75*
G02*
X0286860Y0058484I-000581J0000000D01*
G01*
X0285699Y0058484D01*
G75*
G02*
X0285118Y0059065I0000000J0000581D01*
G01*
G37*
G36*
G01*
X0288937Y0059065D02*
X0288937Y0060423D01*
G75*
G02*
X0289518Y0061004I0000581J0000000D01*
G01*
X0290679Y0061004D01*
G75*
G02*
X0291260Y0060423I0000000J-000581D01*
G01*
X0291260Y0059065D01*
G75*
G02*
X0290679Y0058484I-000581J0000000D01*
G01*
X0289518Y0058484D01*
G75*
G02*
X0288937Y0059065I0000000J0000581D01*
G01*
G37*
G36*
G01*
X0324224Y0049099D02*
X0324224Y0047082D01*
G75*
G02*
X0323363Y0046221I-000861J0000000D01*
G01*
X0321641Y0046221D01*
G75*
G02*
X0320779Y0047082I0000000J0000861D01*
G01*
X0320779Y0049099D01*
G75*
G02*
X0321641Y0049961I0000861J0000000D01*
G01*
X0323363Y0049961D01*
G75*
G02*
X0324224Y0049099I0000000J-000861D01*
G01*
G37*
G36*
G01*
X0318024Y0049099D02*
X0318024Y0047082D01*
G75*
G02*
X0317162Y0046221I-000861J0000000D01*
G01*
X0315440Y0046221D01*
G75*
G02*
X0314579Y0047082I0000000J0000861D01*
G01*
X0314579Y0049099D01*
G75*
G02*
X0315440Y0049961I0000861J0000000D01*
G01*
X0317162Y0049961D01*
G75*
G02*
X0318024Y0049099I0000000J-000861D01*
G01*
G37*
G36*
G01*
X0332472Y0048770D02*
X0332472Y0047411D01*
G75*
G02*
X0331892Y0046831I-000581J0000000D01*
G01*
X0330730Y0046831D01*
G75*
G02*
X0330150Y0047411I0000000J0000581D01*
G01*
X0330150Y0048770D01*
G75*
G02*
X0330730Y0049350I0000581J0000000D01*
G01*
X0331892Y0049350D01*
G75*
G02*
X0332472Y0048770I0000000J-000581D01*
G01*
G37*
G36*
G01*
X0328653Y0048770D02*
X0328653Y0047411D01*
G75*
G02*
X0328073Y0046831I-000581J0000000D01*
G01*
X0326911Y0046831D01*
G75*
G02*
X0326331Y0047411I0000000J0000581D01*
G01*
X0326331Y0048770D01*
G75*
G02*
X0326911Y0049350I0000581J0000000D01*
G01*
X0328073Y0049350D01*
G75*
G02*
X0328653Y0048770I0000000J-000581D01*
G01*
G37*
G36*
G01*
X0344972Y0076770D02*
X0344972Y0075411D01*
G75*
G02*
X0344392Y0074831I-000581J0000000D01*
G01*
X0343230Y0074831D01*
G75*
G02*
X0342650Y0075411I0000000J0000581D01*
G01*
X0342650Y0076770D01*
G75*
G02*
X0343230Y0077350I0000581J0000000D01*
G01*
X0344392Y0077350D01*
G75*
G02*
X0344972Y0076770I0000000J-000581D01*
G01*
G37*
G36*
G01*
X0341153Y0076770D02*
X0341153Y0075411D01*
G75*
G02*
X0340573Y0074831I-000581J0000000D01*
G01*
X0339411Y0074831D01*
G75*
G02*
X0338831Y0075411I0000000J0000581D01*
G01*
X0338831Y0076770D01*
G75*
G02*
X0339411Y0077350I0000581J0000000D01*
G01*
X0340573Y0077350D01*
G75*
G02*
X0341153Y0076770I0000000J-000581D01*
G01*
G37*
G36*
G01*
X0350722Y0081161D02*
X0352081Y0081161D01*
G75*
G02*
X0352661Y0080581I0000000J-000581D01*
G01*
X0352661Y0079419D01*
G75*
G02*
X0352081Y0078839I-000581J0000000D01*
G01*
X0350722Y0078839D01*
G75*
G02*
X0350142Y0079419I0000000J0000581D01*
G01*
X0350142Y0080581D01*
G75*
G02*
X0350722Y0081161I0000581J0000000D01*
G01*
G37*
G36*
G01*
X0350722Y0077343D02*
X0352081Y0077343D01*
G75*
G02*
X0352661Y0076762I0000000J-000581D01*
G01*
X0352661Y0075600D01*
G75*
G02*
X0352081Y0075020I-000581J0000000D01*
G01*
X0350722Y0075020D01*
G75*
G02*
X0350142Y0075600I0000000J0000581D01*
G01*
X0350142Y0076762D01*
G75*
G02*
X0350722Y0077343I0000581J0000000D01*
G01*
G37*
G36*
G01*
X0346959Y0081161D02*
X0348317Y0081161D01*
G75*
G02*
X0348898Y0080581I0000000J-000581D01*
G01*
X0348898Y0079419D01*
G75*
G02*
X0348317Y0078839I-000581J0000000D01*
G01*
X0346959Y0078839D01*
G75*
G02*
X0346378Y0079419I0000000J0000581D01*
G01*
X0346378Y0080581D01*
G75*
G02*
X0346959Y0081161I0000581J0000000D01*
G01*
G37*
G36*
G01*
X0346959Y0077343D02*
X0348317Y0077343D01*
G75*
G02*
X0348898Y0076762I0000000J-000581D01*
G01*
X0348898Y0075600D01*
G75*
G02*
X0348317Y0075020I-000581J0000000D01*
G01*
X0346959Y0075020D01*
G75*
G02*
X0346378Y0075600I0000000J0000581D01*
G01*
X0346378Y0076762D01*
G75*
G02*
X0346959Y0077343I0000581J0000000D01*
G01*
G37*
G36*
G01*
X0344972Y0080770D02*
X0344972Y0079411D01*
G75*
G02*
X0344392Y0078831I-000581J0000000D01*
G01*
X0343230Y0078831D01*
G75*
G02*
X0342650Y0079411I0000000J0000581D01*
G01*
X0342650Y0080770D01*
G75*
G02*
X0343230Y0081350I0000581J0000000D01*
G01*
X0344392Y0081350D01*
G75*
G02*
X0344972Y0080770I0000000J-000581D01*
G01*
G37*
G36*
G01*
X0341153Y0080770D02*
X0341153Y0079411D01*
G75*
G02*
X0340573Y0078831I-000581J0000000D01*
G01*
X0339411Y0078831D01*
G75*
G02*
X0338831Y0079411I0000000J0000581D01*
G01*
X0338831Y0080770D01*
G75*
G02*
X0339411Y0081350I0000581J0000000D01*
G01*
X0340573Y0081350D01*
G75*
G02*
X0341153Y0080770I0000000J-000581D01*
G01*
G37*
D28*
X0361063Y0085335D03*
X0361063Y0089075D03*
X0361063Y0092815D03*
X0350748Y0092815D03*
X0350748Y0085335D03*
G36*
G01*
X0354722Y0081161D02*
X0356081Y0081161D01*
G75*
G02*
X0356661Y0080581I0000000J-000581D01*
G01*
X0356661Y0079419D01*
G75*
G02*
X0356081Y0078839I-000581J0000000D01*
G01*
X0354722Y0078839D01*
G75*
G02*
X0354142Y0079419I0000000J0000581D01*
G01*
X0354142Y0080581D01*
G75*
G02*
X0354722Y0081161I0000581J0000000D01*
G01*
G37*
G36*
G01*
X0354722Y0077343D02*
X0356081Y0077343D01*
G75*
G02*
X0356661Y0076762I0000000J-000581D01*
G01*
X0356661Y0075600D01*
G75*
G02*
X0356081Y0075020I-000581J0000000D01*
G01*
X0354722Y0075020D01*
G75*
G02*
X0354142Y0075600I0000000J0000581D01*
G01*
X0354142Y0076762D01*
G75*
G02*
X0354722Y0077343I0000581J0000000D01*
G01*
G37*
G36*
G01*
X0365856Y0088209D02*
X0367214Y0088209D01*
G75*
G02*
X0367795Y0087628I0000000J-000581D01*
G01*
X0367795Y0086467D01*
G75*
G02*
X0367214Y0085886I-000581J0000000D01*
G01*
X0365856Y0085886D01*
G75*
G02*
X0365276Y0086467I0000000J0000581D01*
G01*
X0365276Y0087628D01*
G75*
G02*
X0365856Y0088209I0000581J0000000D01*
G01*
G37*
G36*
G01*
X0365856Y0084390D02*
X0367214Y0084390D01*
G75*
G02*
X0367795Y0083809I0000000J-000581D01*
G01*
X0367795Y0082648D01*
G75*
G02*
X0367214Y0082067I-000581J0000000D01*
G01*
X0365856Y0082067D01*
G75*
G02*
X0365276Y0082648I0000000J0000581D01*
G01*
X0365276Y0083809D01*
G75*
G02*
X0365856Y0084390I0000581J0000000D01*
G01*
G37*
G36*
G01*
X0379222Y0065661D02*
X0380581Y0065661D01*
G75*
G02*
X0381161Y0065081I0000000J-000581D01*
G01*
X0381161Y0063919D01*
G75*
G02*
X0380581Y0063339I-000581J0000000D01*
G01*
X0379222Y0063339D01*
G75*
G02*
X0378642Y0063919I0000000J0000581D01*
G01*
X0378642Y0065081D01*
G75*
G02*
X0379222Y0065661I0000581J0000000D01*
G01*
G37*
G36*
G01*
X0379222Y0061843D02*
X0380581Y0061843D01*
G75*
G02*
X0381161Y0061262I0000000J-000581D01*
G01*
X0381161Y0060100D01*
G75*
G02*
X0380581Y0059520I-000581J0000000D01*
G01*
X0379222Y0059520D01*
G75*
G02*
X0378642Y0060100I0000000J0000581D01*
G01*
X0378642Y0061262D01*
G75*
G02*
X0379222Y0061843I0000581J0000000D01*
G01*
G37*
G36*
G01*
X0377410Y0079268D02*
X0375393Y0079268D01*
G75*
G02*
X0374531Y0080129I0000000J0000861D01*
G01*
X0374531Y0081851D01*
G75*
G02*
X0375393Y0082713I0000861J0000000D01*
G01*
X0377410Y0082713D01*
G75*
G02*
X0378272Y0081851I0000000J-000861D01*
G01*
X0378272Y0080129D01*
G75*
G02*
X0377410Y0079268I-000861J0000000D01*
G01*
G37*
G36*
G01*
X0377410Y0085469D02*
X0375393Y0085469D01*
G75*
G02*
X0374531Y0086330I0000000J0000861D01*
G01*
X0374531Y0088052D01*
G75*
G02*
X0375393Y0088913I0000861J0000000D01*
G01*
X0377410Y0088913D01*
G75*
G02*
X0378272Y0088052I0000000J-000861D01*
G01*
X0378272Y0086330D01*
G75*
G02*
X0377410Y0085469I-000861J0000000D01*
G01*
G37*
G36*
G01*
X0374823Y0054144D02*
X0374823Y0055502D01*
G75*
G02*
X0375403Y0056083I0000581J0000000D01*
G01*
X0376565Y0056083D01*
G75*
G02*
X0377146Y0055502I0000000J-000581D01*
G01*
X0377146Y0054144D01*
G75*
G02*
X0376565Y0053563I-000581J0000000D01*
G01*
X0375403Y0053563D01*
G75*
G02*
X0374823Y0054144I0000000J0000581D01*
G01*
G37*
G36*
G01*
X0378642Y0054144D02*
X0378642Y0055502D01*
G75*
G02*
X0379222Y0056083I0000581J0000000D01*
G01*
X0380384Y0056083D01*
G75*
G02*
X0380964Y0055502I0000000J-000581D01*
G01*
X0380964Y0054144D01*
G75*
G02*
X0380384Y0053563I-000581J0000000D01*
G01*
X0379222Y0053563D01*
G75*
G02*
X0378642Y0054144I0000000J0000581D01*
G01*
G37*
G36*
G01*
X0380964Y0051368D02*
X0380964Y0050010D01*
G75*
G02*
X0380384Y0049429I-000581J0000000D01*
G01*
X0379222Y0049429D01*
G75*
G02*
X0378642Y0050010I0000000J0000581D01*
G01*
X0378642Y0051368D01*
G75*
G02*
X0379222Y0051949I0000581J0000000D01*
G01*
X0380384Y0051949D01*
G75*
G02*
X0380964Y0051368I0000000J-000581D01*
G01*
G37*
G36*
G01*
X0377146Y0051368D02*
X0377146Y0050010D01*
G75*
G02*
X0376565Y0049429I-000581J0000000D01*
G01*
X0375403Y0049429D01*
G75*
G02*
X0374823Y0050010I0000000J0000581D01*
G01*
X0374823Y0051368D01*
G75*
G02*
X0375403Y0051949I0000581J0000000D01*
G01*
X0376565Y0051949D01*
G75*
G02*
X0377146Y0051368I0000000J-000581D01*
G01*
G37*
G36*
G01*
X0302579Y0047082D02*
X0302579Y0049099D01*
G75*
G02*
X0303440Y0049961I0000861J0000000D01*
G01*
X0305162Y0049961D01*
G75*
G02*
X0306024Y0049099I0000000J-000861D01*
G01*
X0306024Y0047082D01*
G75*
G02*
X0305162Y0046221I-000861J0000000D01*
G01*
X0303440Y0046221D01*
G75*
G02*
X0302579Y0047082I0000000J0000861D01*
G01*
G37*
G36*
G01*
X0308779Y0047082D02*
X0308779Y0049099D01*
G75*
G02*
X0309641Y0049961I0000861J0000000D01*
G01*
X0311363Y0049961D01*
G75*
G02*
X0312224Y0049099I0000000J-000861D01*
G01*
X0312224Y0047082D01*
G75*
G02*
X0311363Y0046221I-000861J0000000D01*
G01*
X0309641Y0046221D01*
G75*
G02*
X0308779Y0047082I0000000J0000861D01*
G01*
G37*
G36*
G01*
X0299350Y0042530D02*
X0299350Y0043888D01*
G75*
G02*
X0299931Y0044469I0000581J0000000D01*
G01*
X0301092Y0044469D01*
G75*
G02*
X0301673Y0043888I0000000J-000581D01*
G01*
X0301673Y0042530D01*
G75*
G02*
X0301092Y0041949I-000581J0000000D01*
G01*
X0299931Y0041949D01*
G75*
G02*
X0299350Y0042530I0000000J0000581D01*
G01*
G37*
G36*
G01*
X0303169Y0042530D02*
X0303169Y0043888D01*
G75*
G02*
X0303750Y0044469I0000581J0000000D01*
G01*
X0304911Y0044469D01*
G75*
G02*
X0305492Y0043888I0000000J-000581D01*
G01*
X0305492Y0042530D01*
G75*
G02*
X0304911Y0041949I-000581J0000000D01*
G01*
X0303750Y0041949D01*
G75*
G02*
X0303169Y0042530I0000000J0000581D01*
G01*
G37*
G36*
G01*
X0346575Y0084636D02*
X0346575Y0083278D01*
G75*
G02*
X0345994Y0082697I-000581J0000000D01*
G01*
X0344833Y0082697D01*
G75*
G02*
X0344252Y0083278I0000000J0000581D01*
G01*
X0344252Y0084636D01*
G75*
G02*
X0344833Y0085217I0000581J0000000D01*
G01*
X0345994Y0085217D01*
G75*
G02*
X0346575Y0084636I0000000J-000581D01*
G01*
G37*
G36*
G01*
X0342756Y0084636D02*
X0342756Y0083278D01*
G75*
G02*
X0342175Y0082697I-000581J0000000D01*
G01*
X0341014Y0082697D01*
G75*
G02*
X0340433Y0083278I0000000J0000581D01*
G01*
X0340433Y0084636D01*
G75*
G02*
X0341014Y0085217I0000581J0000000D01*
G01*
X0342175Y0085217D01*
G75*
G02*
X0342756Y0084636I0000000J-000581D01*
G01*
G37*
G36*
G01*
X0333169Y0061024D02*
X0333169Y0060039D01*
G75*
G02*
X0332677Y0059547I-000492J0000000D01*
G01*
X0327756Y0059547D01*
G75*
G02*
X0327264Y0060039I0000000J0000492D01*
G01*
X0327264Y0061024D01*
G75*
G02*
X0327756Y0061516I0000492J0000000D01*
G01*
X0332677Y0061516D01*
G75*
G02*
X0333169Y0061024I0000000J-000492D01*
G01*
G37*
G36*
G01*
X0333169Y0064173D02*
X0333169Y0063189D01*
G75*
G02*
X0332677Y0062697I-000492J0000000D01*
G01*
X0327756Y0062697D01*
G75*
G02*
X0327264Y0063189I0000000J0000492D01*
G01*
X0327264Y0064173D01*
G75*
G02*
X0327756Y0064665I0000492J0000000D01*
G01*
X0332677Y0064665D01*
G75*
G02*
X0333169Y0064173I0000000J-000492D01*
G01*
G37*
G36*
G01*
X0333169Y0067323D02*
X0333169Y0066339D01*
G75*
G02*
X0332677Y0065847I-000492J0000000D01*
G01*
X0327756Y0065847D01*
G75*
G02*
X0327264Y0066339I0000000J0000492D01*
G01*
X0327264Y0067323D01*
G75*
G02*
X0327756Y0067815I0000492J0000000D01*
G01*
X0332677Y0067815D01*
G75*
G02*
X0333169Y0067323I0000000J-000492D01*
G01*
G37*
G36*
G01*
X0333169Y0070472D02*
X0333169Y0069488D01*
G75*
G02*
X0332677Y0068996I-000492J0000000D01*
G01*
X0327756Y0068996D01*
G75*
G02*
X0327264Y0069488I0000000J0000492D01*
G01*
X0327264Y0070472D01*
G75*
G02*
X0327756Y0070965I0000492J0000000D01*
G01*
X0332677Y0070965D01*
G75*
G02*
X0333169Y0070472I0000000J-000492D01*
G01*
G37*
G36*
G01*
X0333169Y0073622D02*
X0333169Y0072638D01*
G75*
G02*
X0332677Y0072146I-000492J0000000D01*
G01*
X0327756Y0072146D01*
G75*
G02*
X0327264Y0072638I0000000J0000492D01*
G01*
X0327264Y0073622D01*
G75*
G02*
X0327756Y0074114I0000492J0000000D01*
G01*
X0332677Y0074114D01*
G75*
G02*
X0333169Y0073622I0000000J-000492D01*
G01*
G37*
G36*
G01*
X0333169Y0076772D02*
X0333169Y0075787D01*
G75*
G02*
X0332677Y0075295I-000492J0000000D01*
G01*
X0327756Y0075295D01*
G75*
G02*
X0327264Y0075787I0000000J0000492D01*
G01*
X0327264Y0076772D01*
G75*
G02*
X0327756Y0077264I0000492J0000000D01*
G01*
X0332677Y0077264D01*
G75*
G02*
X0333169Y0076772I0000000J-000492D01*
G01*
G37*
G36*
G01*
X0333169Y0079921D02*
X0333169Y0078937D01*
G75*
G02*
X0332677Y0078445I-000492J0000000D01*
G01*
X0327756Y0078445D01*
G75*
G02*
X0327264Y0078937I0000000J0000492D01*
G01*
X0327264Y0079921D01*
G75*
G02*
X0327756Y0080413I0000492J0000000D01*
G01*
X0332677Y0080413D01*
G75*
G02*
X0333169Y0079921I0000000J-000492D01*
G01*
G37*
G36*
G01*
X0333169Y0083071D02*
X0333169Y0082087D01*
G75*
G02*
X0332677Y0081595I-000492J0000000D01*
G01*
X0327756Y0081595D01*
G75*
G02*
X0327264Y0082087I0000000J0000492D01*
G01*
X0327264Y0083071D01*
G75*
G02*
X0327756Y0083563I0000492J0000000D01*
G01*
X0332677Y0083563D01*
G75*
G02*
X0333169Y0083071I0000000J-000492D01*
G01*
G37*
G36*
G01*
X0325787Y0090453D02*
X0325787Y0085532D01*
G75*
G02*
X0325295Y0085039I-000492J0000000D01*
G01*
X0324311Y0085039D01*
G75*
G02*
X0323819Y0085532I0000000J0000492D01*
G01*
X0323819Y0090453D01*
G75*
G02*
X0324311Y0090945I0000492J0000000D01*
G01*
X0325295Y0090945D01*
G75*
G02*
X0325787Y0090453I0000000J-000492D01*
G01*
G37*
G36*
G01*
X0322638Y0090453D02*
X0322638Y0085532D01*
G75*
G02*
X0322146Y0085039I-000492J0000000D01*
G01*
X0321161Y0085039D01*
G75*
G02*
X0320669Y0085532I0000000J0000492D01*
G01*
X0320669Y0090453D01*
G75*
G02*
X0321161Y0090945I0000492J0000000D01*
G01*
X0322146Y0090945D01*
G75*
G02*
X0322638Y0090453I0000000J-000492D01*
G01*
G37*
G36*
G01*
X0319488Y0090453D02*
X0319488Y0085532D01*
G75*
G02*
X0318996Y0085039I-000492J0000000D01*
G01*
X0318012Y0085039D01*
G75*
G02*
X0317520Y0085532I0000000J0000492D01*
G01*
X0317520Y0090453D01*
G75*
G02*
X0318012Y0090945I0000492J0000000D01*
G01*
X0318996Y0090945D01*
G75*
G02*
X0319488Y0090453I0000000J-000492D01*
G01*
G37*
G36*
G01*
X0316338Y0090453D02*
X0316338Y0085532D01*
G75*
G02*
X0315846Y0085039I-000492J0000000D01*
G01*
X0314862Y0085039D01*
G75*
G02*
X0314370Y0085532I0000000J0000492D01*
G01*
X0314370Y0090453D01*
G75*
G02*
X0314862Y0090945I0000492J0000000D01*
G01*
X0315846Y0090945D01*
G75*
G02*
X0316338Y0090453I0000000J-000492D01*
G01*
G37*
G36*
G01*
X0313189Y0090453D02*
X0313189Y0085532D01*
G75*
G02*
X0312697Y0085039I-000492J0000000D01*
G01*
X0311713Y0085039D01*
G75*
G02*
X0311220Y0085532I0000000J0000492D01*
G01*
X0311220Y0090453D01*
G75*
G02*
X0311713Y0090945I0000492J0000000D01*
G01*
X0312697Y0090945D01*
G75*
G02*
X0313189Y0090453I0000000J-000492D01*
G01*
G37*
G36*
G01*
X0310039Y0090453D02*
X0310039Y0085532D01*
G75*
G02*
X0309547Y0085039I-000492J0000000D01*
G01*
X0308563Y0085039D01*
G75*
G02*
X0308071Y0085532I0000000J0000492D01*
G01*
X0308071Y0090453D01*
G75*
G02*
X0308563Y0090945I0000492J0000000D01*
G01*
X0309547Y0090945D01*
G75*
G02*
X0310039Y0090453I0000000J-000492D01*
G01*
G37*
G36*
G01*
X0306890Y0090453D02*
X0306890Y0085532D01*
G75*
G02*
X0306398Y0085039I-000492J0000000D01*
G01*
X0305413Y0085039D01*
G75*
G02*
X0304921Y0085532I0000000J0000492D01*
G01*
X0304921Y0090453D01*
G75*
G02*
X0305413Y0090945I0000492J0000000D01*
G01*
X0306398Y0090945D01*
G75*
G02*
X0306890Y0090453I0000000J-000492D01*
G01*
G37*
G36*
G01*
X0303740Y0090453D02*
X0303740Y0085532D01*
G75*
G02*
X0303248Y0085039I-000492J0000000D01*
G01*
X0302264Y0085039D01*
G75*
G02*
X0301772Y0085532I0000000J0000492D01*
G01*
X0301772Y0090453D01*
G75*
G02*
X0302264Y0090945I0000492J0000000D01*
G01*
X0303248Y0090945D01*
G75*
G02*
X0303740Y0090453I0000000J-000492D01*
G01*
G37*
G36*
G01*
X0300295Y0083071D02*
X0300295Y0082087D01*
G75*
G02*
X0299803Y0081595I-000492J0000000D01*
G01*
X0294882Y0081595D01*
G75*
G02*
X0294390Y0082087I0000000J0000492D01*
G01*
X0294390Y0083071D01*
G75*
G02*
X0294882Y0083563I0000492J0000000D01*
G01*
X0299803Y0083563D01*
G75*
G02*
X0300295Y0083071I0000000J-000492D01*
G01*
G37*
G36*
G01*
X0300295Y0079921D02*
X0300295Y0078937D01*
G75*
G02*
X0299803Y0078445I-000492J0000000D01*
G01*
X0294882Y0078445D01*
G75*
G02*
X0294390Y0078937I0000000J0000492D01*
G01*
X0294390Y0079921D01*
G75*
G02*
X0294882Y0080413I0000492J0000000D01*
G01*
X0299803Y0080413D01*
G75*
G02*
X0300295Y0079921I0000000J-000492D01*
G01*
G37*
G36*
G01*
X0300295Y0076772D02*
X0300295Y0075787D01*
G75*
G02*
X0299803Y0075295I-000492J0000000D01*
G01*
X0294882Y0075295D01*
G75*
G02*
X0294390Y0075787I0000000J0000492D01*
G01*
X0294390Y0076772D01*
G75*
G02*
X0294882Y0077264I0000492J0000000D01*
G01*
X0299803Y0077264D01*
G75*
G02*
X0300295Y0076772I0000000J-000492D01*
G01*
G37*
G36*
G01*
X0300295Y0073622D02*
X0300295Y0072638D01*
G75*
G02*
X0299803Y0072146I-000492J0000000D01*
G01*
X0294882Y0072146D01*
G75*
G02*
X0294390Y0072638I0000000J0000492D01*
G01*
X0294390Y0073622D01*
G75*
G02*
X0294882Y0074114I0000492J0000000D01*
G01*
X0299803Y0074114D01*
G75*
G02*
X0300295Y0073622I0000000J-000492D01*
G01*
G37*
G36*
G01*
X0300295Y0070472D02*
X0300295Y0069488D01*
G75*
G02*
X0299803Y0068996I-000492J0000000D01*
G01*
X0294882Y0068996D01*
G75*
G02*
X0294390Y0069488I0000000J0000492D01*
G01*
X0294390Y0070472D01*
G75*
G02*
X0294882Y0070965I0000492J0000000D01*
G01*
X0299803Y0070965D01*
G75*
G02*
X0300295Y0070472I0000000J-000492D01*
G01*
G37*
G36*
G01*
X0300295Y0067323D02*
X0300295Y0066339D01*
G75*
G02*
X0299803Y0065847I-000492J0000000D01*
G01*
X0294882Y0065847D01*
G75*
G02*
X0294390Y0066339I0000000J0000492D01*
G01*
X0294390Y0067323D01*
G75*
G02*
X0294882Y0067815I0000492J0000000D01*
G01*
X0299803Y0067815D01*
G75*
G02*
X0300295Y0067323I0000000J-000492D01*
G01*
G37*
G36*
G01*
X0300295Y0064173D02*
X0300295Y0063189D01*
G75*
G02*
X0299803Y0062697I-000492J0000000D01*
G01*
X0294882Y0062697D01*
G75*
G02*
X0294390Y0063189I0000000J0000492D01*
G01*
X0294390Y0064173D01*
G75*
G02*
X0294882Y0064665I0000492J0000000D01*
G01*
X0299803Y0064665D01*
G75*
G02*
X0300295Y0064173I0000000J-000492D01*
G01*
G37*
G36*
G01*
X0300295Y0061024D02*
X0300295Y0060039D01*
G75*
G02*
X0299803Y0059547I-000492J0000000D01*
G01*
X0294882Y0059547D01*
G75*
G02*
X0294390Y0060039I0000000J0000492D01*
G01*
X0294390Y0061024D01*
G75*
G02*
X0294882Y0061516I0000492J0000000D01*
G01*
X0299803Y0061516D01*
G75*
G02*
X0300295Y0061024I0000000J-000492D01*
G01*
G37*
G36*
G01*
X0303740Y0057579D02*
X0303740Y0052658D01*
G75*
G02*
X0303248Y0052165I-000492J0000000D01*
G01*
X0302264Y0052165D01*
G75*
G02*
X0301772Y0052658I0000000J0000492D01*
G01*
X0301772Y0057579D01*
G75*
G02*
X0302264Y0058071I0000492J0000000D01*
G01*
X0303248Y0058071D01*
G75*
G02*
X0303740Y0057579I0000000J-000492D01*
G01*
G37*
G36*
G01*
X0306890Y0057579D02*
X0306890Y0052658D01*
G75*
G02*
X0306398Y0052165I-000492J0000000D01*
G01*
X0305413Y0052165D01*
G75*
G02*
X0304921Y0052658I0000000J0000492D01*
G01*
X0304921Y0057579D01*
G75*
G02*
X0305413Y0058071I0000492J0000000D01*
G01*
X0306398Y0058071D01*
G75*
G02*
X0306890Y0057579I0000000J-000492D01*
G01*
G37*
G36*
G01*
X0310039Y0057579D02*
X0310039Y0052658D01*
G75*
G02*
X0309547Y0052165I-000492J0000000D01*
G01*
X0308563Y0052165D01*
G75*
G02*
X0308071Y0052658I0000000J0000492D01*
G01*
X0308071Y0057579D01*
G75*
G02*
X0308563Y0058071I0000492J0000000D01*
G01*
X0309547Y0058071D01*
G75*
G02*
X0310039Y0057579I0000000J-000492D01*
G01*
G37*
G36*
G01*
X0313189Y0057579D02*
X0313189Y0052658D01*
G75*
G02*
X0312697Y0052165I-000492J0000000D01*
G01*
X0311713Y0052165D01*
G75*
G02*
X0311220Y0052658I0000000J0000492D01*
G01*
X0311220Y0057579D01*
G75*
G02*
X0311713Y0058071I0000492J0000000D01*
G01*
X0312697Y0058071D01*
G75*
G02*
X0313189Y0057579I0000000J-000492D01*
G01*
G37*
G36*
G01*
X0316338Y0057579D02*
X0316338Y0052658D01*
G75*
G02*
X0315846Y0052165I-000492J0000000D01*
G01*
X0314862Y0052165D01*
G75*
G02*
X0314370Y0052658I0000000J0000492D01*
G01*
X0314370Y0057579D01*
G75*
G02*
X0314862Y0058071I0000492J0000000D01*
G01*
X0315846Y0058071D01*
G75*
G02*
X0316338Y0057579I0000000J-000492D01*
G01*
G37*
G36*
G01*
X0319488Y0057579D02*
X0319488Y0052658D01*
G75*
G02*
X0318996Y0052165I-000492J0000000D01*
G01*
X0318012Y0052165D01*
G75*
G02*
X0317520Y0052658I0000000J0000492D01*
G01*
X0317520Y0057579D01*
G75*
G02*
X0318012Y0058071I0000492J0000000D01*
G01*
X0318996Y0058071D01*
G75*
G02*
X0319488Y0057579I0000000J-000492D01*
G01*
G37*
G36*
G01*
X0322638Y0057579D02*
X0322638Y0052658D01*
G75*
G02*
X0322146Y0052165I-000492J0000000D01*
G01*
X0321161Y0052165D01*
G75*
G02*
X0320669Y0052658I0000000J0000492D01*
G01*
X0320669Y0057579D01*
G75*
G02*
X0321161Y0058071I0000492J0000000D01*
G01*
X0322146Y0058071D01*
G75*
G02*
X0322638Y0057579I0000000J-000492D01*
G01*
G37*
G36*
G01*
X0325787Y0057579D02*
X0325787Y0052658D01*
G75*
G02*
X0325295Y0052165I-000492J0000000D01*
G01*
X0324311Y0052165D01*
G75*
G02*
X0323819Y0052658I0000000J0000492D01*
G01*
X0323819Y0057579D01*
G75*
G02*
X0324311Y0058071I0000492J0000000D01*
G01*
X0325295Y0058071D01*
G75*
G02*
X0325787Y0057579I0000000J-000492D01*
G01*
G37*
G36*
G01*
X0332953Y0086034D02*
X0332953Y0087392D01*
G75*
G02*
X0333533Y0087972I0000581J0000000D01*
G01*
X0334695Y0087972D01*
G75*
G02*
X0335276Y0087392I0000000J-000581D01*
G01*
X0335276Y0086034D01*
G75*
G02*
X0334695Y0085453I-000581J0000000D01*
G01*
X0333533Y0085453D01*
G75*
G02*
X0332953Y0086034I0000000J0000581D01*
G01*
G37*
G36*
G01*
X0336772Y0086034D02*
X0336772Y0087392D01*
G75*
G02*
X0337352Y0087972I0000581J0000000D01*
G01*
X0338514Y0087972D01*
G75*
G02*
X0339094Y0087392I0000000J-000581D01*
G01*
X0339094Y0086034D01*
G75*
G02*
X0338514Y0085453I-000581J0000000D01*
G01*
X0337352Y0085453D01*
G75*
G02*
X0336772Y0086034I0000000J0000581D01*
G01*
G37*
G36*
G01*
X0346575Y0088573D02*
X0346575Y0087215D01*
G75*
G02*
X0345994Y0086634I-000581J0000000D01*
G01*
X0344833Y0086634D01*
G75*
G02*
X0344252Y0087215I0000000J0000581D01*
G01*
X0344252Y0088573D01*
G75*
G02*
X0344833Y0089154I0000581J0000000D01*
G01*
X0345994Y0089154D01*
G75*
G02*
X0346575Y0088573I0000000J-000581D01*
G01*
G37*
G36*
G01*
X0342756Y0088573D02*
X0342756Y0087215D01*
G75*
G02*
X0342175Y0086634I-000581J0000000D01*
G01*
X0341014Y0086634D01*
G75*
G02*
X0340433Y0087215I0000000J0000581D01*
G01*
X0340433Y0088573D01*
G75*
G02*
X0341014Y0089154I0000581J0000000D01*
G01*
X0342175Y0089154D01*
G75*
G02*
X0342756Y0088573I0000000J-000581D01*
G01*
G37*
G36*
G01*
X0341063Y0063376D02*
X0341063Y0062018D01*
G75*
G02*
X0340482Y0061437I-000581J0000000D01*
G01*
X0339321Y0061437D01*
G75*
G02*
X0338740Y0062018I0000000J0000581D01*
G01*
X0338740Y0063376D01*
G75*
G02*
X0339321Y0063957I0000581J0000000D01*
G01*
X0340482Y0063957D01*
G75*
G02*
X0341063Y0063376I0000000J-000581D01*
G01*
G37*
G36*
G01*
X0337244Y0063376D02*
X0337244Y0062018D01*
G75*
G02*
X0336663Y0061437I-000581J0000000D01*
G01*
X0335502Y0061437D01*
G75*
G02*
X0334921Y0062018I0000000J0000581D01*
G01*
X0334921Y0063376D01*
G75*
G02*
X0335502Y0063957I0000581J0000000D01*
G01*
X0336663Y0063957D01*
G75*
G02*
X0337244Y0063376I0000000J-000581D01*
G01*
G37*
G36*
G01*
X0288268Y0081555D02*
X0289626Y0081555D01*
G75*
G02*
X0290207Y0080974I0000000J-000581D01*
G01*
X0290207Y0079813D01*
G75*
G02*
X0289626Y0079232I-000581J0000000D01*
G01*
X0288268Y0079232D01*
G75*
G02*
X0287687Y0079813I0000000J0000581D01*
G01*
X0287687Y0080974D01*
G75*
G02*
X0288268Y0081555I0000581J0000000D01*
G01*
G37*
G36*
G01*
X0288268Y0077736D02*
X0289626Y0077736D01*
G75*
G02*
X0290207Y0077155I0000000J-000581D01*
G01*
X0290207Y0075994D01*
G75*
G02*
X0289626Y0075413I-000581J0000000D01*
G01*
X0288268Y0075413D01*
G75*
G02*
X0287687Y0075994I0000000J0000581D01*
G01*
X0287687Y0077155D01*
G75*
G02*
X0288268Y0077736I0000581J0000000D01*
G01*
G37*
G36*
G01*
X0297549Y0055197D02*
X0298907Y0055197D01*
G75*
G02*
X0299488Y0054616I0000000J-000581D01*
G01*
X0299488Y0053455D01*
G75*
G02*
X0298907Y0052874I-000581J0000000D01*
G01*
X0297549Y0052874D01*
G75*
G02*
X0296968Y0053455I0000000J0000581D01*
G01*
X0296968Y0054616D01*
G75*
G02*
X0297549Y0055197I0000581J0000000D01*
G01*
G37*
G36*
G01*
X0297549Y0051378D02*
X0298907Y0051378D01*
G75*
G02*
X0299488Y0050797I0000000J-000581D01*
G01*
X0299488Y0049636D01*
G75*
G02*
X0298907Y0049055I-000581J0000000D01*
G01*
X0297549Y0049055D01*
G75*
G02*
X0296968Y0049636I0000000J0000581D01*
G01*
X0296968Y0050797D01*
G75*
G02*
X0297549Y0051378I0000581J0000000D01*
G01*
G37*
G36*
G01*
X0273807Y0077530D02*
X0273807Y0078888D01*
G75*
G02*
X0274388Y0079469I0000581J0000000D01*
G01*
X0275549Y0079469D01*
G75*
G02*
X0276130Y0078888I0000000J-000581D01*
G01*
X0276130Y0077530D01*
G75*
G02*
X0275549Y0076949I-000581J0000000D01*
G01*
X0274388Y0076949D01*
G75*
G02*
X0273807Y0077530I0000000J0000581D01*
G01*
G37*
G36*
G01*
X0277626Y0077530D02*
X0277626Y0078888D01*
G75*
G02*
X0278207Y0079469I0000581J0000000D01*
G01*
X0279368Y0079469D01*
G75*
G02*
X0279949Y0078888I0000000J-000581D01*
G01*
X0279949Y0077530D01*
G75*
G02*
X0279368Y0076949I-000581J0000000D01*
G01*
X0278207Y0076949D01*
G75*
G02*
X0277626Y0077530I0000000J0000581D01*
G01*
G37*
D51*
X0275138Y0083272D03*
X0282618Y0083272D03*
X0278878Y0091146D03*
G36*
G01*
X0376581Y0059520D02*
X0375222Y0059520D01*
G75*
G02*
X0374642Y0060100I0000000J0000581D01*
G01*
X0374642Y0061262D01*
G75*
G02*
X0375222Y0061843I0000581J0000000D01*
G01*
X0376581Y0061843D01*
G75*
G02*
X0377161Y0061262I0000000J-000581D01*
G01*
X0377161Y0060100D01*
G75*
G02*
X0376581Y0059520I-000581J0000000D01*
G01*
G37*
G36*
G01*
X0376581Y0063339D02*
X0375222Y0063339D01*
G75*
G02*
X0374642Y0063919I0000000J0000581D01*
G01*
X0374642Y0065081D01*
G75*
G02*
X0375222Y0065661I0000581J0000000D01*
G01*
X0376581Y0065661D01*
G75*
G02*
X0377161Y0065081I0000000J-000581D01*
G01*
X0377161Y0063919D01*
G75*
G02*
X0376581Y0063339I-000581J0000000D01*
G01*
G37*
G36*
G01*
X0288233Y0093189D02*
X0290251Y0093189D01*
G75*
G02*
X0291112Y0092328I0000000J-000861D01*
G01*
X0291112Y0090605D01*
G75*
G02*
X0290251Y0089744I-000861J0000000D01*
G01*
X0288233Y0089744D01*
G75*
G02*
X0287372Y0090605I0000000J0000861D01*
G01*
X0287372Y0092328D01*
G75*
G02*
X0288233Y0093189I0000861J0000000D01*
G01*
G37*
G36*
G01*
X0288233Y0086988D02*
X0290251Y0086988D01*
G75*
G02*
X0291112Y0086127I0000000J-000861D01*
G01*
X0291112Y0084404D01*
G75*
G02*
X0290251Y0083543I-000861J0000000D01*
G01*
X0288233Y0083543D01*
G75*
G02*
X0287372Y0084404I0000000J0000861D01*
G01*
X0287372Y0086127D01*
G75*
G02*
X0288233Y0086988I0000861J0000000D01*
G01*
G37*
D88*
X0272480Y0049705D03*
X0292480Y0045705D03*
X0292480Y0053705D03*
D15*
X0277480Y0047205D03*
X0277480Y0052205D03*
X0282480Y0047205D03*
X0282480Y0052205D03*
X0287480Y0047205D03*
X0287480Y0052205D03*
X0233392Y0097884D02*
G01*
G75*
D17*
X0234475Y0054577D02*
D03*
D39*
X0234672Y0095325D02*
D03*
X0234672Y0093356D02*
D03*
D108*
X0246404Y0086467D02*
D03*
X0237152Y0090207D02*
D03*
D108*
X0246404Y0093947D02*
D03*
D97*
X0258018Y0078908D02*
D03*
X0253018Y0078908D02*
D03*
X0248018Y0078908D02*
D03*
X0243018Y0078908D02*
D03*
X0258018Y0060010D02*
D03*
X0253018Y0060010D02*
D03*
X0248018Y0060010D02*
D03*
X0243018Y0060010D02*
D03*
D109*
X0237723Y0063199D02*
D03*
X0237723Y0056979D02*
D03*
X0237723Y0071545D02*
D03*
X0237723Y0077766D02*
D03*
D110*
X0251305Y0093357D02*
D03*
X0251305Y0087057D02*
D03*
D36*
X0235262Y0082727D02*
D03*
X0257801Y0066683D02*
D03*
X0243825Y0066388D02*
D03*
X0238805Y0067569D02*
D03*
X0240872Y0071014D02*
D03*
M02*
