%TF.GenerationSoftware,KiCad,Pcbnew,(5.99.0-12439-g94954386e6)*%
%TF.CreationDate,2021-10-11T21:16:12+03:00*%
%TF.ProjectId,proteus125honda,70726f74-6575-4733-9132-35686f6e6461,rev?*%
%TF.SameCoordinates,Original*%
%TF.FileFunction,Soldermask,Top*%
%TF.FilePolarity,Negative*%
%FSLAX46Y46*%
G04 Gerber Fmt 4.6, Leading zero omitted, Abs format (unit mm)*
G04 Created by KiCad (PCBNEW (5.99.0-12439-g94954386e6)) date 2021-10-11 21:16:12*
%MOMM*%
%LPD*%
G01*
G04 APERTURE LIST*
G04 Aperture macros list*
%AMRoundRect*
0 Rectangle with rounded corners*
0 $1 Rounding radius*
0 $2 $3 $4 $5 $6 $7 $8 $9 X,Y pos of 4 corners*
0 Add a 4 corners polygon primitive as box body*
4,1,4,$2,$3,$4,$5,$6,$7,$8,$9,$2,$3,0*
0 Add four circle primitives for the rounded corners*
1,1,$1+$1,$2,$3*
1,1,$1+$1,$4,$5*
1,1,$1+$1,$6,$7*
1,1,$1+$1,$8,$9*
0 Add four rect primitives between the rounded corners*
20,1,$1+$1,$2,$3,$4,$5,0*
20,1,$1+$1,$4,$5,$6,$7,0*
20,1,$1+$1,$6,$7,$8,$9,0*
20,1,$1+$1,$8,$9,$2,$3,0*%
G04 Aperture macros list end*
%TA.AperFunction,Profile*%
%ADD10C,0.200000*%
%TD*%
%ADD11C,1.700000*%
%ADD12R,2.500000X1.800000*%
%ADD13RoundRect,0.070000X-0.280000X-0.390000X0.280000X-0.390000X0.280000X0.390000X-0.280000X0.390000X0*%
%ADD14C,1.524000*%
%ADD15RoundRect,0.230000X-0.670000X-0.345000X0.670000X-0.345000X0.670000X0.345000X-0.670000X0.345000X0*%
%ADD16O,0.250000X0.499999*%
%ADD17O,0.499999X0.250000*%
%ADD18C,0.599999*%
%ADD19C,4.500000*%
%ADD20RoundRect,0.100000X-0.625000X0.400000X-0.625000X-0.400000X0.625000X-0.400000X0.625000X0.400000X0*%
%ADD21RoundRect,0.250000X-0.600000X-0.725000X0.600000X-0.725000X0.600000X0.725000X-0.600000X0.725000X0*%
%ADD22O,1.700000X1.950000*%
%ADD23R,1.700000X1.700000*%
%ADD24O,1.700000X1.700000*%
%ADD25RoundRect,0.085000X0.340000X0.340000X-0.340000X0.340000X-0.340000X-0.340000X0.340000X-0.340000X0*%
%ADD26C,2.000000*%
%ADD27C,2.850000*%
%ADD28C,2.400000*%
%ADD29RoundRect,0.230000X0.345000X-0.670000X0.345000X0.670000X-0.345000X0.670000X-0.345000X-0.670000X0*%
%ADD30C,1.950000*%
%ADD31R,1.950000X1.950000*%
%ADD32C,8.500000*%
%ADD33RoundRect,0.085000X-0.340000X-0.340000X0.340000X-0.340000X0.340000X0.340000X-0.340000X0.340000X0*%
%ADD34R,0.690000X1.350000*%
%ADD35R,1.520000X2.540000*%
G04 APERTURE END LIST*
D10*
X99000001Y-73500001D02*
G75*
G03*
X102000000Y-70500000I-1J3000000D01*
G01*
X248000000Y-97800000D02*
X248000000Y-77500000D01*
X101999996Y-213800002D02*
G75*
G03*
X105999998Y-217800000I4000000J2D01*
G01*
X106000000Y-66500000D02*
X237000000Y-66500000D01*
X244000002Y-210799998D02*
G75*
G03*
X248000000Y-206800000I0J3999998D01*
G01*
X241500000Y-141800000D02*
X240000000Y-141800000D01*
X106000000Y-217800000D02*
X237000000Y-217800000D01*
X239000003Y-140800003D02*
G75*
G03*
X240000000Y-141800000I999997J0D01*
G01*
X98999996Y-210799998D02*
G75*
G02*
X94999998Y-206800000I0J3999998D01*
G01*
X239000000Y-140800000D02*
X239000000Y-137800000D01*
X242000000Y-103800000D02*
G75*
G02*
X245000000Y-100800000I3000000J0D01*
G01*
X244000000Y-210800000D02*
G75*
G03*
X241000000Y-213800000I0J-3000000D01*
G01*
X101999997Y-70499999D02*
G75*
G02*
X106000000Y-66500000I4000001J-2D01*
G01*
X94999998Y-206800000D02*
X95000000Y-77500000D01*
X241000003Y-70499999D02*
G75*
G03*
X237000000Y-66500000I-4000001J-2D01*
G01*
X245000000Y-147800000D02*
G75*
G02*
X248000000Y-150800000I0J-3000000D01*
G01*
X240000000Y-136800000D02*
X241500000Y-136800000D01*
X98999998Y-210800000D02*
G75*
G02*
X101999998Y-213800000I0J-3000000D01*
G01*
X243999999Y-73500001D02*
G75*
G02*
X241000000Y-70500000I1J3000000D01*
G01*
X241500001Y-141799999D02*
G75*
G02*
X242000000Y-142300000I-1J-500000D01*
G01*
X241500001Y-136799999D02*
G75*
G03*
X242000000Y-136300000I0J499999D01*
G01*
X238999997Y-137799997D02*
G75*
G02*
X240000000Y-136800000I1000000J-3D01*
G01*
X242000000Y-136300000D02*
X242000000Y-103800000D01*
X242000000Y-144800000D02*
X242000000Y-142300000D01*
X245000000Y-100800000D02*
G75*
G03*
X248000000Y-97800000I0J3000000D01*
G01*
X241000002Y-213800002D02*
G75*
G02*
X237000000Y-217800000I-4000000J2D01*
G01*
X98999999Y-73500001D02*
G75*
G03*
X95000000Y-77500000I0J-3999999D01*
G01*
X242000000Y-144800000D02*
G75*
G03*
X245000000Y-147800000I3000000J0D01*
G01*
X248000000Y-206800000D02*
X248000000Y-150800000D01*
X244000001Y-73500001D02*
G75*
G02*
X248000000Y-77500000I0J-3999999D01*
G01*
D11*
%TO.C,P69*%
X203349999Y-147300000D03*
%TD*%
%TO.C,P12*%
X167500000Y-93800000D03*
%TD*%
%TO.C,P51*%
X126000000Y-102800000D03*
%TD*%
D12*
%TO.C,D2*%
X208500001Y-98700000D03*
X204500001Y-98700000D03*
%TD*%
D11*
%TO.C,P86*%
X139549999Y-133800000D03*
%TD*%
%TO.C,P32*%
X147500000Y-93800000D03*
%TD*%
%TO.C,G7*%
X115320000Y-202560000D03*
X115320000Y-200020000D03*
X115320000Y-197480000D03*
X115320000Y-194940000D03*
X115320000Y-192400000D03*
X117860000Y-202560000D03*
X117860000Y-200020000D03*
X117860000Y-197480000D03*
X117860000Y-194940000D03*
X117860000Y-192400000D03*
X120400000Y-202560000D03*
X120400000Y-200020000D03*
X120400000Y-197480000D03*
X120400000Y-194940000D03*
X120400000Y-192400000D03*
%TD*%
%TO.C,P79*%
X176000000Y-190800000D03*
%TD*%
%TO.C,P40*%
X135000000Y-93800000D03*
%TD*%
D13*
%TO.C,R1*%
X142616013Y-188063001D03*
X144216013Y-188063001D03*
%TD*%
D11*
%TO.C,P80*%
X188000000Y-190800000D03*
%TD*%
%TO.C,P50*%
X132000000Y-98300000D03*
%TD*%
%TO.C,P24*%
X179500000Y-102800000D03*
%TD*%
D14*
%TO.C,F2*%
X231500000Y-93850000D03*
D15*
X231500000Y-94849990D03*
X231500000Y-97750010D03*
D14*
X231500000Y-98750000D03*
%TD*%
D16*
%TO.C,M2*%
X154556666Y-203937494D03*
D17*
X154606664Y-193587500D03*
X154606664Y-194087501D03*
D18*
X155656662Y-200637498D03*
X156181662Y-199762496D03*
X156931660Y-200937500D03*
X160481661Y-200862497D03*
%TD*%
D11*
%TO.C,P71*%
X203349999Y-156300000D03*
%TD*%
%TO.C,P60*%
X203349999Y-160800000D03*
%TD*%
%TO.C,G2*%
X107700000Y-202560000D03*
X107700000Y-200020000D03*
X107700000Y-197480000D03*
X107700000Y-194940000D03*
X107700000Y-192400000D03*
X110240000Y-202560000D03*
X110240000Y-200020000D03*
X110240000Y-197480000D03*
X110240000Y-194940000D03*
X110240000Y-192400000D03*
X112780000Y-202560000D03*
X112780000Y-200020000D03*
X112780000Y-197480000D03*
X112780000Y-194940000D03*
X112780000Y-192400000D03*
%TD*%
%TO.C,P83*%
X173000000Y-190800000D03*
%TD*%
%TO.C,G5*%
X135640000Y-197480000D03*
X133100000Y-197480000D03*
X130560000Y-197480000D03*
X128020000Y-197480000D03*
X125480000Y-197480000D03*
X135640000Y-194940000D03*
X133100000Y-194940000D03*
X130560000Y-194940000D03*
X128020000Y-194940000D03*
X125480000Y-194940000D03*
X135640000Y-192400000D03*
X133100000Y-192400000D03*
X130560000Y-192400000D03*
X128020000Y-192400000D03*
X125480000Y-192400000D03*
%TD*%
%TO.C,P16*%
X179500000Y-98300000D03*
%TD*%
%TO.C,P11*%
X170500000Y-93800000D03*
%TD*%
%TO.C,P65*%
X203349999Y-135300000D03*
%TD*%
%TO.C,P19*%
X170500000Y-98300000D03*
%TD*%
%TO.C,P78*%
X185000000Y-190800000D03*
%TD*%
D19*
%TO.C,J9*%
X99050000Y-93000000D03*
%TD*%
D11*
%TO.C,P66*%
X203349999Y-138300000D03*
%TD*%
%TO.C,P21*%
X164500000Y-98300000D03*
%TD*%
%TO.C,P1*%
X238000000Y-97800000D03*
%TD*%
%TO.C,P82*%
X182000000Y-190800000D03*
%TD*%
%TO.C,P38*%
X141500000Y-98300000D03*
%TD*%
%TO.C,P94*%
X139049999Y-155300000D03*
%TD*%
D15*
%TO.C,F1*%
X235000000Y-94849990D03*
D14*
X235000000Y-93850000D03*
X235000000Y-98750000D03*
D15*
X235000000Y-97750010D03*
%TD*%
D11*
%TO.C,P73*%
X158000000Y-190800000D03*
%TD*%
D20*
%TO.C,R2*%
X198600000Y-93849999D03*
D14*
X198600000Y-92895000D03*
X198600000Y-96705000D03*
D20*
X198600000Y-95750021D03*
%TD*%
D11*
%TO.C,P81*%
X191000000Y-190800000D03*
%TD*%
%TO.C,P29*%
X161500000Y-102800000D03*
%TD*%
D21*
%TO.C,J4*%
X212550000Y-195250000D03*
D22*
X215050000Y-195250000D03*
X217550000Y-195250000D03*
X220050000Y-195250000D03*
X222550000Y-195250000D03*
X225050000Y-195250000D03*
X227550000Y-195250000D03*
X230050000Y-195250000D03*
X232550000Y-195250000D03*
X235050000Y-195250000D03*
%TD*%
D19*
%TO.C,J13*%
X99050000Y-201000000D03*
%TD*%
D11*
%TO.C,P9*%
X179500000Y-93800000D03*
%TD*%
%TO.C,P53*%
X120000000Y-98300000D03*
%TD*%
%TO.C,P27*%
X170500000Y-102800000D03*
%TD*%
%TO.C,P37*%
X144500000Y-98300000D03*
%TD*%
%TO.C,P43*%
X129000000Y-98300000D03*
%TD*%
D19*
%TO.C,J10*%
X171500000Y-213850000D03*
%TD*%
D11*
%TO.C,P44*%
X126000000Y-93800000D03*
%TD*%
D19*
%TO.C,J8*%
X243950000Y-153500000D03*
%TD*%
D12*
%TO.C,D3*%
X191000000Y-98800000D03*
X187000000Y-98800000D03*
%TD*%
D11*
%TO.C,P3*%
X210000000Y-93800000D03*
%TD*%
D23*
%TO.C,J3*%
X164660000Y-213100000D03*
D24*
X162120000Y-213100000D03*
X159580000Y-213100000D03*
X157040000Y-213100000D03*
X154500000Y-213100000D03*
X151960000Y-213100000D03*
%TD*%
D11*
%TO.C,P92*%
X111000000Y-93800000D03*
%TD*%
%TO.C,P89*%
X192500000Y-93800000D03*
%TD*%
%TO.C,P8*%
X195500000Y-93800000D03*
%TD*%
D14*
%TO.C,R4*%
X233200000Y-99795000D03*
D20*
X233200000Y-100749999D03*
D14*
X233200000Y-103605000D03*
D20*
X233200000Y-102650021D03*
%TD*%
D25*
%TO.C,C2*%
X144216014Y-189763001D03*
X142636012Y-189763001D03*
%TD*%
D11*
%TO.C,P74*%
X167000000Y-190800000D03*
%TD*%
%TO.C,P42*%
X129000000Y-93800000D03*
%TD*%
%TO.C,P6*%
X204500000Y-93800000D03*
%TD*%
%TO.C,P31*%
X150500000Y-93800000D03*
%TD*%
%TO.C,P67*%
X203349999Y-141300000D03*
%TD*%
%TO.C,P57*%
X203300000Y-129300000D03*
%TD*%
%TO.C,P35*%
X153500000Y-93800000D03*
%TD*%
%TO.C,P13*%
X164500000Y-93800000D03*
%TD*%
%TO.C,P46*%
X120000000Y-93800000D03*
%TD*%
%TO.C,P10*%
X176500000Y-93800000D03*
%TD*%
%TO.C,P72*%
X203349999Y-169800000D03*
%TD*%
%TO.C,P15*%
X158500000Y-93800000D03*
%TD*%
%TO.C,P61*%
X203349999Y-151800000D03*
%TD*%
%TO.C,P95*%
X139549999Y-150800000D03*
%TD*%
%TO.C,P26*%
X173500000Y-98300000D03*
%TD*%
%TO.C,P36*%
X150500000Y-98300000D03*
%TD*%
%TO.C,G1*%
X122940001Y-215260000D03*
X122940001Y-212720000D03*
X122940001Y-210180000D03*
X122940001Y-207640000D03*
X122940001Y-205100000D03*
X125480001Y-215260000D03*
X125480001Y-212720000D03*
X125480001Y-210180000D03*
X125480001Y-207640000D03*
X125480001Y-205100000D03*
X128020001Y-215260000D03*
X128020001Y-212720000D03*
X128020001Y-210180000D03*
X128020001Y-207640000D03*
X128020001Y-205100000D03*
%TD*%
%TO.C,P49*%
X108000000Y-93800000D03*
%TD*%
%TO.C,P96*%
X139049999Y-166800000D03*
%TD*%
%TO.C,G8*%
X107700000Y-215260000D03*
X107700000Y-212720000D03*
X107700000Y-210180000D03*
X107700000Y-207640000D03*
X107700000Y-205100000D03*
X110240000Y-215260000D03*
X110240000Y-212720000D03*
X110240000Y-210180000D03*
X110240000Y-207640000D03*
X110240000Y-205100000D03*
X112780000Y-215260000D03*
X112780000Y-212720000D03*
X112780000Y-210180000D03*
X112780000Y-207640000D03*
X112780000Y-205100000D03*
%TD*%
%TO.C,P18*%
X173500000Y-93800000D03*
%TD*%
%TO.C,P30*%
X158500000Y-102800000D03*
%TD*%
%TO.C,P88*%
X139549999Y-139950000D03*
%TD*%
%TO.C,G4*%
X115320000Y-215259999D03*
X115320000Y-212719999D03*
X115320000Y-210179999D03*
X115320000Y-207639999D03*
X115320000Y-205099999D03*
X117860000Y-215259999D03*
X117860000Y-212719999D03*
X117860000Y-210179999D03*
X117860000Y-207639999D03*
X117860000Y-205099999D03*
X120400000Y-215259999D03*
X120400000Y-212719999D03*
X120400000Y-210179999D03*
X120400000Y-207639999D03*
X120400000Y-205099999D03*
%TD*%
%TO.C,P17*%
X176500000Y-98300000D03*
%TD*%
%TO.C,P75*%
X170000000Y-190800000D03*
%TD*%
%TO.C,P45*%
X123000000Y-93800000D03*
%TD*%
%TO.C,P14*%
X161500000Y-93800000D03*
%TD*%
D19*
%TO.C,J11*%
X243950000Y-93000000D03*
%TD*%
D14*
%TO.C,R3*%
X189500000Y-92195000D03*
D20*
X189500000Y-93149999D03*
X189500000Y-95050021D03*
D14*
X189500000Y-96005000D03*
%TD*%
D11*
%TO.C,P76*%
X161000000Y-190800000D03*
%TD*%
%TO.C,P90*%
X108000000Y-98300000D03*
%TD*%
%TO.C,P91*%
X126000000Y-98300000D03*
%TD*%
%TO.C,P58*%
X240400000Y-165800000D03*
%TD*%
%TO.C,P20*%
X167500000Y-98300000D03*
%TD*%
D12*
%TO.C,D1*%
X191000000Y-102500000D03*
X187000000Y-102500000D03*
%TD*%
D19*
%TO.C,J7*%
X99050000Y-138000000D03*
%TD*%
D26*
%TO.C,BRD1*%
X128500000Y-177875000D03*
X210400000Y-112975000D03*
D27*
X150700000Y-170175000D03*
D26*
X232000000Y-176375000D03*
X194900000Y-158875000D03*
D27*
X120700000Y-173175000D03*
X221700000Y-116175000D03*
D26*
X228500000Y-111475000D03*
X146000000Y-176975000D03*
X194900000Y-180475000D03*
X232000000Y-112975000D03*
X213900000Y-177875000D03*
X110400000Y-112975000D03*
X147500000Y-158875000D03*
X146000000Y-162375000D03*
D27*
X120700000Y-116175000D03*
D26*
X132000000Y-176375000D03*
D27*
X221700000Y-173175000D03*
X191700000Y-170175000D03*
D26*
X196400000Y-176975000D03*
X128500000Y-111475000D03*
X213900000Y-111475000D03*
X113900000Y-177875000D03*
X110400000Y-176375000D03*
X113900000Y-111475000D03*
X210400000Y-176375000D03*
X228500000Y-177875000D03*
X147500000Y-180475000D03*
X132000000Y-112975000D03*
X196400000Y-162375000D03*
D28*
X225200000Y-166675000D03*
X225200000Y-162675000D03*
X225200000Y-158675000D03*
X225200000Y-154675000D03*
X225200000Y-150675000D03*
X225200000Y-146675000D03*
X225200000Y-142675000D03*
X225200000Y-138675000D03*
X225200000Y-134675000D03*
X225200000Y-130675000D03*
X225200000Y-126675000D03*
X225200000Y-122675000D03*
X221200000Y-164675000D03*
X221200000Y-160675000D03*
X221200000Y-156675000D03*
X221200000Y-152675000D03*
X221200000Y-148675000D03*
X221200000Y-144675000D03*
X221200000Y-140675000D03*
X221200000Y-136675000D03*
X221200000Y-132675000D03*
X221200000Y-128675000D03*
X221200000Y-124675000D03*
X217200000Y-166675000D03*
X217200000Y-162675000D03*
X217200000Y-158675000D03*
X217200000Y-154675000D03*
X217200000Y-150675000D03*
X217200000Y-146675000D03*
X217200000Y-142675000D03*
X217200000Y-138675000D03*
X217200000Y-134675000D03*
X217200000Y-130675000D03*
X217200000Y-126675000D03*
X217200000Y-122675000D03*
X157200000Y-173675000D03*
X161200000Y-173675000D03*
X165200000Y-173675000D03*
X169200000Y-173675000D03*
X173200000Y-173675000D03*
X177200000Y-173675000D03*
X181200000Y-173675000D03*
X185200000Y-173675000D03*
X159200000Y-169675000D03*
X163200000Y-169675000D03*
X167200000Y-169675000D03*
X171200000Y-169675000D03*
X175200000Y-169675000D03*
X179200000Y-169675000D03*
X183200000Y-169675000D03*
X157200000Y-165675000D03*
X161200000Y-165675000D03*
X165200000Y-165675000D03*
X169200000Y-165675000D03*
X173200000Y-165675000D03*
X177200000Y-165675000D03*
X181200000Y-165675000D03*
X185200000Y-165675000D03*
X117200000Y-122675000D03*
X117200000Y-126675000D03*
X117200000Y-130675000D03*
X117200000Y-134675000D03*
X117200000Y-138675000D03*
X117200000Y-142675000D03*
X117200000Y-146675000D03*
X117200000Y-150675000D03*
X117200000Y-154675000D03*
X117200000Y-158675000D03*
X117200000Y-162675000D03*
X117200000Y-166675000D03*
X121200000Y-124675000D03*
X121200000Y-128675000D03*
X121200000Y-132675000D03*
X121200000Y-136675000D03*
X121200000Y-140675000D03*
X121200000Y-144675000D03*
X121200000Y-148675000D03*
X121200000Y-152675000D03*
X121200000Y-156675000D03*
X121200000Y-160675000D03*
X121200000Y-164675000D03*
X125200000Y-122675000D03*
X125200000Y-126675000D03*
X125200000Y-130675000D03*
X125200000Y-134675000D03*
X125200000Y-138675000D03*
X125200000Y-142675000D03*
X125200000Y-146675000D03*
X125200000Y-150675000D03*
X125200000Y-154675000D03*
X125200000Y-158675000D03*
X125200000Y-162675000D03*
X125200000Y-166675000D03*
%TD*%
D11*
%TO.C,P87*%
X139549999Y-142800000D03*
%TD*%
%TO.C,P7*%
X201500000Y-93800000D03*
%TD*%
%TO.C,P55*%
X115200000Y-102700000D03*
%TD*%
%TO.C,P77*%
X164000000Y-190800000D03*
%TD*%
%TO.C,P52*%
X123000000Y-98300000D03*
%TD*%
%TO.C,P25*%
X176500000Y-102800000D03*
%TD*%
%TO.C,P93*%
X139549999Y-145800000D03*
%TD*%
%TO.C,P70*%
X198849999Y-150300000D03*
%TD*%
%TO.C,P22*%
X161500000Y-98300000D03*
%TD*%
%TO.C,P2*%
X217500000Y-93800000D03*
%TD*%
D29*
%TO.C,F3*%
X108549990Y-102800000D03*
D14*
X107550000Y-102800000D03*
D29*
X111450010Y-102800000D03*
D14*
X112450000Y-102800000D03*
%TD*%
D11*
%TO.C,P34*%
X141500000Y-93800000D03*
%TD*%
%TO.C,P28*%
X167500000Y-102800000D03*
%TD*%
%TO.C,P41*%
X132000000Y-93800000D03*
%TD*%
D19*
%TO.C,J12*%
X243950000Y-201000000D03*
%TD*%
D30*
%TO.C,J1*%
X237700000Y-86550000D03*
X234570000Y-86550000D03*
X231440000Y-86550000D03*
X228310000Y-86550000D03*
X225180000Y-86550000D03*
X222050000Y-86550000D03*
X218920000Y-86550000D03*
X213330000Y-86550000D03*
X210200000Y-86550000D03*
X237700000Y-82150000D03*
X234900000Y-82150000D03*
X232400000Y-82150000D03*
X229900000Y-82150000D03*
X227400000Y-82150000D03*
X224900000Y-82150000D03*
X222400000Y-82150000D03*
X219900000Y-82150000D03*
X217400000Y-82150000D03*
X214900000Y-82150000D03*
X212400000Y-82150000D03*
X209900000Y-82150000D03*
X237700000Y-78550000D03*
X234900000Y-78550000D03*
X232400000Y-78550000D03*
X227400000Y-78550000D03*
X224900000Y-78550000D03*
X219900000Y-78550000D03*
X217400000Y-78550000D03*
X214900000Y-78550000D03*
X212400000Y-78550000D03*
X209900000Y-78550000D03*
X204300000Y-86550000D03*
X201500000Y-86550000D03*
X198370000Y-86550000D03*
X195240000Y-86550000D03*
X192110000Y-86550000D03*
X186800000Y-86550000D03*
X184000000Y-86550000D03*
X204300000Y-82150000D03*
X201800000Y-82150000D03*
X199300000Y-82150000D03*
X196800000Y-82150000D03*
X194300000Y-82150000D03*
X191800000Y-82150000D03*
X189300000Y-82150000D03*
X186800000Y-82150000D03*
X184000000Y-82150000D03*
X204300000Y-78550000D03*
X201800000Y-78550000D03*
X199300000Y-78550000D03*
X194300000Y-78550000D03*
X191800000Y-78550000D03*
X189300000Y-78550000D03*
X186800000Y-78550000D03*
X184000000Y-78550000D03*
X177800000Y-86550000D03*
X175000000Y-86550000D03*
X170000000Y-86550000D03*
X167500000Y-86550000D03*
X165000000Y-86550000D03*
X162500000Y-86550000D03*
X159700000Y-86550000D03*
X177800000Y-82150000D03*
X175000000Y-82150000D03*
X172500000Y-82150000D03*
X170000000Y-82150000D03*
X167500000Y-82150000D03*
X165000000Y-82150000D03*
X162500000Y-82150000D03*
X159700000Y-82150000D03*
X177800000Y-78550000D03*
X175000000Y-78550000D03*
X172500000Y-78550000D03*
X170000000Y-78550000D03*
X167500000Y-78550000D03*
X162500000Y-78550000D03*
X159700000Y-78550000D03*
X153800000Y-86550000D03*
X151300000Y-86550000D03*
X148800000Y-86550000D03*
X146300000Y-86550000D03*
X143800000Y-86550000D03*
X141300000Y-86550000D03*
X153800000Y-82150000D03*
X151300000Y-82150000D03*
X148800000Y-82150000D03*
X146300000Y-82150000D03*
X143800000Y-82150000D03*
X141300000Y-82150000D03*
X153800000Y-78550000D03*
X151300000Y-78550000D03*
X146300000Y-78550000D03*
X143800000Y-78550000D03*
X141300000Y-78550000D03*
X135400000Y-86550000D03*
X132270000Y-86550000D03*
X129140000Y-86550000D03*
X126010000Y-86550000D03*
X122880000Y-86550000D03*
X119750000Y-86550000D03*
X116620000Y-86550000D03*
X111030000Y-86550000D03*
D31*
X107900000Y-86550000D03*
D30*
X135400000Y-82150000D03*
X132600000Y-82150000D03*
X130100000Y-82150000D03*
X127600000Y-82150000D03*
X125100000Y-82150000D03*
X122600000Y-82150000D03*
X120100000Y-82150000D03*
X117600000Y-82150000D03*
X115100000Y-82150000D03*
X112600000Y-82150000D03*
X110100000Y-82150000D03*
X107600000Y-82150000D03*
X135400000Y-78550000D03*
X132600000Y-78550000D03*
X130100000Y-78550000D03*
X125100000Y-78550000D03*
X122600000Y-78550000D03*
X117600000Y-78550000D03*
X115100000Y-78550000D03*
X112600000Y-78550000D03*
X110100000Y-78550000D03*
X107600000Y-78550000D03*
D32*
X119800000Y-73100000D03*
X164700000Y-73100000D03*
X229900000Y-73100000D03*
%TD*%
D11*
%TO.C,P68*%
X203349999Y-144300000D03*
%TD*%
D33*
%TO.C,C1*%
X145726013Y-189763001D03*
X147306015Y-189763001D03*
%TD*%
D11*
%TO.C,P54*%
X114000000Y-98300000D03*
%TD*%
%TO.C,G3*%
X130560000Y-215259999D03*
X130560000Y-212719999D03*
X130560000Y-210179999D03*
X130560000Y-207639999D03*
X130560000Y-205099999D03*
X133100000Y-215259999D03*
X133100000Y-212719999D03*
X133100000Y-210179999D03*
X133100000Y-207639999D03*
X133100000Y-205099999D03*
X135640000Y-215259999D03*
X135640000Y-212719999D03*
X135640000Y-210179999D03*
X135640000Y-207639999D03*
X135640000Y-205099999D03*
%TD*%
D34*
%TO.C,U1*%
X148005000Y-196574000D03*
D35*
X149905000Y-193018000D03*
D34*
X146735000Y-196574000D03*
D35*
X147365000Y-193018000D03*
X144825000Y-193018000D03*
D34*
X145465000Y-196574000D03*
D35*
X142285000Y-193018000D03*
D34*
X144195000Y-196574000D03*
D35*
X142285000Y-209782000D03*
D34*
X144195000Y-206416500D03*
X145465000Y-206416500D03*
D35*
X144825000Y-209782000D03*
D34*
X146735000Y-206416500D03*
D35*
X147365000Y-209782000D03*
D34*
X148005000Y-206416500D03*
D35*
X149905000Y-209782000D03*
%TD*%
D11*
%TO.C,P48*%
X111000000Y-98300000D03*
%TD*%
%TO.C,P56*%
X203300000Y-132300000D03*
%TD*%
%TO.C,P23*%
X158500000Y-98300000D03*
%TD*%
%TO.C,P33*%
X144500000Y-93800000D03*
%TD*%
%TO.C,P47*%
X114000000Y-93800000D03*
%TD*%
M02*
