G04 #@! TF.GenerationSoftware,KiCad,Pcbnew,(5.99.0-12439-g94954386e6)*
G04 #@! TF.CreationDate,2021-10-11T23:11:19+03:00*
G04 #@! TF.ProjectId,proteus125honda,70726f74-6575-4733-9132-35686f6e6461,rev?*
G04 #@! TF.SameCoordinates,PX5a995c0PYcfb5d40*
G04 #@! TF.FileFunction,Soldermask,Bot*
G04 #@! TF.FilePolarity,Negative*
%FSLAX46Y46*%
G04 Gerber Fmt 4.6, Leading zero omitted, Abs format (unit mm)*
G04 Created by KiCad (PCBNEW (5.99.0-12439-g94954386e6)) date 2021-10-11 23:11:19*
%MOMM*%
%LPD*%
G01*
G04 APERTURE LIST*
G04 #@! TA.AperFunction,Profile*
%ADD10C,0.200000*%
G04 #@! TD*
%ADD11C,1.700000*%
%ADD12C,1.524000*%
%ADD13C,0.599999*%
%ADD14C,4.500000*%
%ADD15O,1.700000X1.950000*%
%ADD16R,1.700000X1.700000*%
%ADD17O,1.700000X1.700000*%
%ADD18C,2.000000*%
%ADD19C,2.850000*%
%ADD20C,2.400000*%
%ADD21C,1.950000*%
%ADD22R,1.950000X1.950000*%
%ADD23C,8.500000*%
G04 APERTURE END LIST*
D10*
X4000001Y144299999D02*
G75*
G03*
X7000000Y147300000I-1J3000000D01*
G01*
X153000000Y120000000D02*
X153000000Y140300000D01*
X6999996Y3999998D02*
G75*
G03*
X10999998Y0I4000000J2D01*
G01*
X11000000Y151300000D02*
X142000000Y151300000D01*
X149000002Y7000002D02*
G75*
G03*
X153000000Y11000000I0J3999998D01*
G01*
X146500000Y76000000D02*
X145000000Y76000000D01*
X11000000Y0D02*
X142000000Y0D01*
X144000003Y76999997D02*
G75*
G03*
X145000000Y76000000I999997J0D01*
G01*
X3999996Y7000002D02*
G75*
G02*
X-2Y11000000I0J3999998D01*
G01*
X144000000Y77000000D02*
X144000000Y80000000D01*
X147000000Y114000000D02*
G75*
G02*
X150000000Y117000000I3000000J0D01*
G01*
X149000000Y7000000D02*
G75*
G03*
X146000000Y4000000I0J-3000000D01*
G01*
X6999997Y147300001D02*
G75*
G02*
X11000000Y151300000I4000001J-2D01*
G01*
X-2Y11000000D02*
X0Y140300000D01*
X146000003Y147300001D02*
G75*
G03*
X142000000Y151300000I-4000001J-2D01*
G01*
X150000000Y70000000D02*
G75*
G02*
X153000000Y67000000I0J-3000000D01*
G01*
X145000000Y81000000D02*
X146500000Y81000000D01*
X3999998Y7000000D02*
G75*
G02*
X6999998Y4000000I0J-3000000D01*
G01*
X148999999Y144299999D02*
G75*
G02*
X146000000Y147300000I1J3000000D01*
G01*
X146500001Y76000001D02*
G75*
G02*
X147000000Y75500000I-1J-500000D01*
G01*
X146500001Y81000001D02*
G75*
G03*
X147000000Y81500000I0J499999D01*
G01*
X143999997Y80000003D02*
G75*
G02*
X145000000Y81000000I1000000J-3D01*
G01*
X147000000Y81500000D02*
X147000000Y114000000D01*
X147000000Y73000000D02*
X147000000Y75500000D01*
X150000000Y117000000D02*
G75*
G03*
X153000000Y120000000I0J3000000D01*
G01*
X146000002Y3999998D02*
G75*
G02*
X142000000Y0I-4000000J2D01*
G01*
X3999999Y144299999D02*
G75*
G03*
X0Y140300000I0J-3999999D01*
G01*
X147000000Y73000000D02*
G75*
G03*
X150000000Y70000000I3000000J0D01*
G01*
X153000000Y11000000D02*
X153000000Y67000000D01*
X149000001Y144299999D02*
G75*
G02*
X153000000Y140300000I0J-3999999D01*
G01*
D11*
G04 #@! TO.C,P69*
X108349999Y70500000D03*
G04 #@! TD*
G04 #@! TO.C,P12*
X72500000Y124000000D03*
G04 #@! TD*
G04 #@! TO.C,P51*
X31000000Y115000000D03*
G04 #@! TD*
G04 #@! TO.C,P86*
X44549999Y84000000D03*
G04 #@! TD*
G04 #@! TO.C,P32*
X52500000Y124000000D03*
G04 #@! TD*
G04 #@! TO.C,G7*
X20320000Y15240000D03*
X20320000Y17780000D03*
X20320000Y20320000D03*
X20320000Y22860000D03*
X20320000Y25400000D03*
X22860000Y15240000D03*
X22860000Y17780000D03*
X22860000Y20320000D03*
X22860000Y22860000D03*
X22860000Y25400000D03*
X25400000Y15240000D03*
X25400000Y17780000D03*
X25400000Y20320000D03*
X25400000Y22860000D03*
X25400000Y25400000D03*
G04 #@! TD*
G04 #@! TO.C,P79*
X81000000Y27000000D03*
G04 #@! TD*
G04 #@! TO.C,P40*
X40000000Y124000000D03*
G04 #@! TD*
G04 #@! TO.C,P80*
X93000000Y27000000D03*
G04 #@! TD*
G04 #@! TO.C,P50*
X37000000Y119500000D03*
G04 #@! TD*
G04 #@! TO.C,P24*
X84500000Y115000000D03*
G04 #@! TD*
D12*
G04 #@! TO.C,F2*
X136500000Y123950000D03*
X136500000Y119050000D03*
G04 #@! TD*
D13*
G04 #@! TO.C,M2*
X60656662Y17162502D03*
X61181662Y18037504D03*
X61931660Y16862500D03*
X65481661Y16937503D03*
G04 #@! TD*
D11*
G04 #@! TO.C,P71*
X108349999Y61500000D03*
G04 #@! TD*
G04 #@! TO.C,P60*
X108349999Y57000000D03*
G04 #@! TD*
G04 #@! TO.C,G2*
X12700000Y15240000D03*
X12700000Y17780000D03*
X12700000Y20320000D03*
X12700000Y22860000D03*
X12700000Y25400000D03*
X15240000Y15240000D03*
X15240000Y17780000D03*
X15240000Y20320000D03*
X15240000Y22860000D03*
X15240000Y25400000D03*
X17780000Y15240000D03*
X17780000Y17780000D03*
X17780000Y20320000D03*
X17780000Y22860000D03*
X17780000Y25400000D03*
G04 #@! TD*
G04 #@! TO.C,P83*
X78000000Y27000000D03*
G04 #@! TD*
G04 #@! TO.C,G5*
X40640000Y20320000D03*
X38100000Y20320000D03*
X35560000Y20320000D03*
X33020000Y20320000D03*
X30480000Y20320000D03*
X40640000Y22860000D03*
X38100000Y22860000D03*
X35560000Y22860000D03*
X33020000Y22860000D03*
X30480000Y22860000D03*
X40640000Y25400000D03*
X38100000Y25400000D03*
X35560000Y25400000D03*
X33020000Y25400000D03*
X30480000Y25400000D03*
G04 #@! TD*
G04 #@! TO.C,P16*
X84500000Y119500000D03*
G04 #@! TD*
G04 #@! TO.C,P11*
X75500000Y124000000D03*
G04 #@! TD*
G04 #@! TO.C,P65*
X108349999Y82500000D03*
G04 #@! TD*
G04 #@! TO.C,P19*
X75500000Y119500000D03*
G04 #@! TD*
G04 #@! TO.C,P78*
X90000000Y27000000D03*
G04 #@! TD*
D14*
G04 #@! TO.C,J9*
X4050000Y124800000D03*
G04 #@! TD*
D11*
G04 #@! TO.C,P66*
X108349999Y79500000D03*
G04 #@! TD*
G04 #@! TO.C,P21*
X69500000Y119500000D03*
G04 #@! TD*
G04 #@! TO.C,P1*
X143000000Y120000000D03*
G04 #@! TD*
G04 #@! TO.C,P82*
X87000000Y27000000D03*
G04 #@! TD*
G04 #@! TO.C,P38*
X46500000Y119500000D03*
G04 #@! TD*
G04 #@! TO.C,P94*
X44049999Y62500000D03*
G04 #@! TD*
D12*
G04 #@! TO.C,F1*
X140000000Y123950000D03*
X140000000Y119050000D03*
G04 #@! TD*
D11*
G04 #@! TO.C,P73*
X63000000Y27000000D03*
G04 #@! TD*
D12*
G04 #@! TO.C,R2*
X103600000Y124905000D03*
X103600000Y121095000D03*
G04 #@! TD*
D11*
G04 #@! TO.C,P81*
X96000000Y27000000D03*
G04 #@! TD*
G04 #@! TO.C,P29*
X66500000Y115000000D03*
G04 #@! TD*
G04 #@! TO.C,J4*
G36*
G01*
X116700000Y21825000D02*
X116700000Y23275000D01*
G75*
G02*
X116950000Y23525000I250000J0D01*
G01*
X118150000Y23525000D01*
G75*
G02*
X118400000Y23275000I0J-250000D01*
G01*
X118400000Y21825000D01*
G75*
G02*
X118150000Y21575000I-250000J0D01*
G01*
X116950000Y21575000D01*
G75*
G02*
X116700000Y21825000I0J250000D01*
G01*
G37*
D15*
X120050000Y22550000D03*
X122550000Y22550000D03*
X125050000Y22550000D03*
X127550000Y22550000D03*
X130050000Y22550000D03*
X132550000Y22550000D03*
X135050000Y22550000D03*
X137550000Y22550000D03*
X140050000Y22550000D03*
G04 #@! TD*
D14*
G04 #@! TO.C,J13*
X4050000Y16800000D03*
G04 #@! TD*
D11*
G04 #@! TO.C,P9*
X84500000Y124000000D03*
G04 #@! TD*
G04 #@! TO.C,P53*
X25000000Y119500000D03*
G04 #@! TD*
G04 #@! TO.C,P27*
X75500000Y115000000D03*
G04 #@! TD*
G04 #@! TO.C,P37*
X49500000Y119500000D03*
G04 #@! TD*
G04 #@! TO.C,P43*
X34000000Y119500000D03*
G04 #@! TD*
D14*
G04 #@! TO.C,J10*
X76500000Y3950000D03*
G04 #@! TD*
D11*
G04 #@! TO.C,P44*
X31000000Y124000000D03*
G04 #@! TD*
D14*
G04 #@! TO.C,J8*
X148950000Y64300000D03*
G04 #@! TD*
D11*
G04 #@! TO.C,P3*
X115000000Y124000000D03*
G04 #@! TD*
D16*
G04 #@! TO.C,J3*
X69660000Y4700000D03*
D17*
X67120000Y4700000D03*
X64580000Y4700000D03*
X62040000Y4700000D03*
X59500000Y4700000D03*
X56960000Y4700000D03*
G04 #@! TD*
D11*
G04 #@! TO.C,P92*
X16000000Y124000000D03*
G04 #@! TD*
G04 #@! TO.C,P89*
X97500000Y124000000D03*
G04 #@! TD*
G04 #@! TO.C,P8*
X100500000Y124000000D03*
G04 #@! TD*
D12*
G04 #@! TO.C,R4*
X138200000Y118005000D03*
X138200000Y114195000D03*
G04 #@! TD*
D11*
G04 #@! TO.C,P74*
X72000000Y27000000D03*
G04 #@! TD*
G04 #@! TO.C,P42*
X34000000Y124000000D03*
G04 #@! TD*
G04 #@! TO.C,P6*
X109500000Y124000000D03*
G04 #@! TD*
G04 #@! TO.C,P31*
X55500000Y124000000D03*
G04 #@! TD*
G04 #@! TO.C,P67*
X108349999Y76500000D03*
G04 #@! TD*
G04 #@! TO.C,P57*
X108300000Y88500000D03*
G04 #@! TD*
G04 #@! TO.C,P35*
X58500000Y124000000D03*
G04 #@! TD*
G04 #@! TO.C,P13*
X69500000Y124000000D03*
G04 #@! TD*
G04 #@! TO.C,P46*
X25000000Y124000000D03*
G04 #@! TD*
G04 #@! TO.C,P10*
X81500000Y124000000D03*
G04 #@! TD*
G04 #@! TO.C,P72*
X108349999Y48000000D03*
G04 #@! TD*
G04 #@! TO.C,P15*
X63500000Y124000000D03*
G04 #@! TD*
G04 #@! TO.C,P61*
X108349999Y66000000D03*
G04 #@! TD*
G04 #@! TO.C,P95*
X44549999Y67000000D03*
G04 #@! TD*
G04 #@! TO.C,P26*
X78500000Y119500000D03*
G04 #@! TD*
G04 #@! TO.C,P36*
X55500000Y119500000D03*
G04 #@! TD*
G04 #@! TO.C,G1*
X27940001Y2540000D03*
X27940001Y5080000D03*
X27940001Y7620000D03*
X27940001Y10160000D03*
X27940001Y12700000D03*
X30480001Y2540000D03*
X30480001Y5080000D03*
X30480001Y7620000D03*
X30480001Y10160000D03*
X30480001Y12700000D03*
X33020001Y2540000D03*
X33020001Y5080000D03*
X33020001Y7620000D03*
X33020001Y10160000D03*
X33020001Y12700000D03*
G04 #@! TD*
G04 #@! TO.C,P49*
X13000000Y124000000D03*
G04 #@! TD*
G04 #@! TO.C,P96*
X44049999Y51000000D03*
G04 #@! TD*
G04 #@! TO.C,G8*
X12700000Y2540000D03*
X12700000Y5080000D03*
X12700000Y7620000D03*
X12700000Y10160000D03*
X12700000Y12700000D03*
X15240000Y2540000D03*
X15240000Y5080000D03*
X15240000Y7620000D03*
X15240000Y10160000D03*
X15240000Y12700000D03*
X17780000Y2540000D03*
X17780000Y5080000D03*
X17780000Y7620000D03*
X17780000Y10160000D03*
X17780000Y12700000D03*
G04 #@! TD*
G04 #@! TO.C,P18*
X78500000Y124000000D03*
G04 #@! TD*
G04 #@! TO.C,P30*
X63500000Y115000000D03*
G04 #@! TD*
G04 #@! TO.C,P88*
X44549999Y77850000D03*
G04 #@! TD*
G04 #@! TO.C,G4*
X20320000Y2540001D03*
X20320000Y5080001D03*
X20320000Y7620001D03*
X20320000Y10160001D03*
X20320000Y12700001D03*
X22860000Y2540001D03*
X22860000Y5080001D03*
X22860000Y7620001D03*
X22860000Y10160001D03*
X22860000Y12700001D03*
X25400000Y2540001D03*
X25400000Y5080001D03*
X25400000Y7620001D03*
X25400000Y10160001D03*
X25400000Y12700001D03*
G04 #@! TD*
G04 #@! TO.C,P17*
X81500000Y119500000D03*
G04 #@! TD*
G04 #@! TO.C,P75*
X75000000Y27000000D03*
G04 #@! TD*
G04 #@! TO.C,P45*
X28000000Y124000000D03*
G04 #@! TD*
G04 #@! TO.C,P14*
X66500000Y124000000D03*
G04 #@! TD*
D14*
G04 #@! TO.C,J11*
X148950000Y124800000D03*
G04 #@! TD*
D12*
G04 #@! TO.C,R3*
X94500000Y125605000D03*
X94500000Y121795000D03*
G04 #@! TD*
D11*
G04 #@! TO.C,P76*
X66000000Y27000000D03*
G04 #@! TD*
G04 #@! TO.C,P90*
X13000000Y119500000D03*
G04 #@! TD*
G04 #@! TO.C,P91*
X31000000Y119500000D03*
G04 #@! TD*
G04 #@! TO.C,P58*
X145400000Y52000000D03*
G04 #@! TD*
G04 #@! TO.C,P20*
X72500000Y119500000D03*
G04 #@! TD*
D14*
G04 #@! TO.C,J7*
X4050000Y79800000D03*
G04 #@! TD*
D18*
G04 #@! TO.C,BRD1*
X33500000Y39925000D03*
X115400000Y104825000D03*
D19*
X55700000Y47625000D03*
D18*
X137000000Y41425000D03*
X99900000Y58925000D03*
D19*
X25700000Y44625000D03*
X126700000Y101625000D03*
D18*
X133500000Y106325000D03*
X51000000Y40825000D03*
X99900000Y37325000D03*
X137000000Y104825000D03*
X118900000Y39925000D03*
X15400000Y104825000D03*
X52500000Y58925000D03*
X51000000Y55425000D03*
D19*
X25700000Y101625000D03*
D18*
X37000000Y41425000D03*
D19*
X126700000Y44625000D03*
X96700000Y47625000D03*
D18*
X101400000Y40825000D03*
X33500000Y106325000D03*
X118900000Y106325000D03*
X18900000Y39925000D03*
X15400000Y41425000D03*
X18900000Y106325000D03*
X115400000Y41425000D03*
X133500000Y39925000D03*
X52500000Y37325000D03*
X37000000Y104825000D03*
X101400000Y55425000D03*
D20*
X130200000Y51125000D03*
X130200000Y55125000D03*
X130200000Y59125000D03*
X130200000Y63125000D03*
X130200000Y67125000D03*
X130200000Y71125000D03*
X130200000Y75125000D03*
X130200000Y79125000D03*
X130200000Y83125000D03*
X130200000Y87125000D03*
X130200000Y91125000D03*
X130200000Y95125000D03*
X126200000Y53125000D03*
X126200000Y57125000D03*
X126200000Y61125000D03*
X126200000Y65125000D03*
X126200000Y69125000D03*
X126200000Y73125000D03*
X126200000Y77125000D03*
X126200000Y81125000D03*
X126200000Y85125000D03*
X126200000Y89125000D03*
X126200000Y93125000D03*
X122200000Y51125000D03*
X122200000Y55125000D03*
X122200000Y59125000D03*
X122200000Y63125000D03*
X122200000Y67125000D03*
X122200000Y71125000D03*
X122200000Y75125000D03*
X122200000Y79125000D03*
X122200000Y83125000D03*
X122200000Y87125000D03*
X122200000Y91125000D03*
X122200000Y95125000D03*
X62200000Y44125000D03*
X66200000Y44125000D03*
X70200000Y44125000D03*
X74200000Y44125000D03*
X78200000Y44125000D03*
X82200000Y44125000D03*
X86200000Y44125000D03*
X90200000Y44125000D03*
X64200000Y48125000D03*
X68200000Y48125000D03*
X72200000Y48125000D03*
X76200000Y48125000D03*
X80200000Y48125000D03*
X84200000Y48125000D03*
X88200000Y48125000D03*
X62200000Y52125000D03*
X66200000Y52125000D03*
X70200000Y52125000D03*
X74200000Y52125000D03*
X78200000Y52125000D03*
X82200000Y52125000D03*
X86200000Y52125000D03*
X90200000Y52125000D03*
X22200000Y95125000D03*
X22200000Y91125000D03*
X22200000Y87125000D03*
X22200000Y83125000D03*
X22200000Y79125000D03*
X22200000Y75125000D03*
X22200000Y71125000D03*
X22200000Y67125000D03*
X22200000Y63125000D03*
X22200000Y59125000D03*
X22200000Y55125000D03*
X22200000Y51125000D03*
X26200000Y93125000D03*
X26200000Y89125000D03*
X26200000Y85125000D03*
X26200000Y81125000D03*
X26200000Y77125000D03*
X26200000Y73125000D03*
X26200000Y69125000D03*
X26200000Y65125000D03*
X26200000Y61125000D03*
X26200000Y57125000D03*
X26200000Y53125000D03*
X30200000Y95125000D03*
X30200000Y91125000D03*
X30200000Y87125000D03*
X30200000Y83125000D03*
X30200000Y79125000D03*
X30200000Y75125000D03*
X30200000Y71125000D03*
X30200000Y67125000D03*
X30200000Y63125000D03*
X30200000Y59125000D03*
X30200000Y55125000D03*
X30200000Y51125000D03*
G04 #@! TD*
D11*
G04 #@! TO.C,P87*
X44549999Y75000000D03*
G04 #@! TD*
G04 #@! TO.C,P7*
X106500000Y124000000D03*
G04 #@! TD*
G04 #@! TO.C,P55*
X20200000Y115100000D03*
G04 #@! TD*
G04 #@! TO.C,P77*
X69000000Y27000000D03*
G04 #@! TD*
G04 #@! TO.C,P52*
X28000000Y119500000D03*
G04 #@! TD*
G04 #@! TO.C,P25*
X81500000Y115000000D03*
G04 #@! TD*
G04 #@! TO.C,P93*
X44549999Y72000000D03*
G04 #@! TD*
G04 #@! TO.C,P70*
X103849999Y67500000D03*
G04 #@! TD*
G04 #@! TO.C,P22*
X66500000Y119500000D03*
G04 #@! TD*
G04 #@! TO.C,P2*
X122500000Y124000000D03*
G04 #@! TD*
D12*
G04 #@! TO.C,F3*
X12550000Y115000000D03*
X17450000Y115000000D03*
G04 #@! TD*
D11*
G04 #@! TO.C,P34*
X46500000Y124000000D03*
G04 #@! TD*
G04 #@! TO.C,P28*
X72500000Y115000000D03*
G04 #@! TD*
G04 #@! TO.C,P41*
X37000000Y124000000D03*
G04 #@! TD*
D14*
G04 #@! TO.C,J12*
X148950000Y16800000D03*
G04 #@! TD*
D21*
G04 #@! TO.C,J1*
X142700000Y131250000D03*
X139570000Y131250000D03*
X136440000Y131250000D03*
X133310000Y131250000D03*
X130180000Y131250000D03*
X127050000Y131250000D03*
X123920000Y131250000D03*
X118330000Y131250000D03*
X115200000Y131250000D03*
X142700000Y135650000D03*
X139900000Y135650000D03*
X137400000Y135650000D03*
X134900000Y135650000D03*
X132400000Y135650000D03*
X129900000Y135650000D03*
X127400000Y135650000D03*
X124900000Y135650000D03*
X122400000Y135650000D03*
X119900000Y135650000D03*
X117400000Y135650000D03*
X114900000Y135650000D03*
X142700000Y139250000D03*
X139900000Y139250000D03*
X137400000Y139250000D03*
X132400000Y139250000D03*
X129900000Y139250000D03*
X124900000Y139250000D03*
X122400000Y139250000D03*
X119900000Y139250000D03*
X117400000Y139250000D03*
X114900000Y139250000D03*
X109300000Y131250000D03*
X106500000Y131250000D03*
X103370000Y131250000D03*
X100240000Y131250000D03*
X97110000Y131250000D03*
X91800000Y131250000D03*
X89000000Y131250000D03*
X109300000Y135650000D03*
X106800000Y135650000D03*
X104300000Y135650000D03*
X101800000Y135650000D03*
X99300000Y135650000D03*
X96800000Y135650000D03*
X94300000Y135650000D03*
X91800000Y135650000D03*
X89000000Y135650000D03*
X109300000Y139250000D03*
X106800000Y139250000D03*
X104300000Y139250000D03*
X99300000Y139250000D03*
X96800000Y139250000D03*
X94300000Y139250000D03*
X91800000Y139250000D03*
X89000000Y139250000D03*
X82800000Y131250000D03*
X80000000Y131250000D03*
X75000000Y131250000D03*
X72500000Y131250000D03*
X70000000Y131250000D03*
X67500000Y131250000D03*
X64700000Y131250000D03*
X82800000Y135650000D03*
X80000000Y135650000D03*
X77500000Y135650000D03*
X75000000Y135650000D03*
X72500000Y135650000D03*
X70000000Y135650000D03*
X67500000Y135650000D03*
X64700000Y135650000D03*
X82800000Y139250000D03*
X80000000Y139250000D03*
X77500000Y139250000D03*
X75000000Y139250000D03*
X72500000Y139250000D03*
X67500000Y139250000D03*
X64700000Y139250000D03*
X58800000Y131250000D03*
X56300000Y131250000D03*
X53800000Y131250000D03*
X51300000Y131250000D03*
X48800000Y131250000D03*
X46300000Y131250000D03*
X58800000Y135650000D03*
X56300000Y135650000D03*
X53800000Y135650000D03*
X51300000Y135650000D03*
X48800000Y135650000D03*
X46300000Y135650000D03*
X58800000Y139250000D03*
X56300000Y139250000D03*
X51300000Y139250000D03*
X48800000Y139250000D03*
X46300000Y139250000D03*
X40400000Y131250000D03*
X37270000Y131250000D03*
X34140000Y131250000D03*
X31010000Y131250000D03*
X27880000Y131250000D03*
X24750000Y131250000D03*
X21620000Y131250000D03*
X16030000Y131250000D03*
D22*
X12900000Y131250000D03*
D21*
X40400000Y135650000D03*
X37600000Y135650000D03*
X35100000Y135650000D03*
X32600000Y135650000D03*
X30100000Y135650000D03*
X27600000Y135650000D03*
X25100000Y135650000D03*
X22600000Y135650000D03*
X20100000Y135650000D03*
X17600000Y135650000D03*
X15100000Y135650000D03*
X12600000Y135650000D03*
X40400000Y139250000D03*
X37600000Y139250000D03*
X35100000Y139250000D03*
X30100000Y139250000D03*
X27600000Y139250000D03*
X22600000Y139250000D03*
X20100000Y139250000D03*
X17600000Y139250000D03*
X15100000Y139250000D03*
X12600000Y139250000D03*
D23*
X24800000Y144700000D03*
X69700000Y144700000D03*
X134900000Y144700000D03*
G04 #@! TD*
D11*
G04 #@! TO.C,P68*
X108349999Y73500000D03*
G04 #@! TD*
G04 #@! TO.C,P54*
X19000000Y119500000D03*
G04 #@! TD*
G04 #@! TO.C,G3*
X35560000Y2540001D03*
X35560000Y5080001D03*
X35560000Y7620001D03*
X35560000Y10160001D03*
X35560000Y12700001D03*
X38100000Y2540001D03*
X38100000Y5080001D03*
X38100000Y7620001D03*
X38100000Y10160001D03*
X38100000Y12700001D03*
X40640000Y2540001D03*
X40640000Y5080001D03*
X40640000Y7620001D03*
X40640000Y10160001D03*
X40640000Y12700001D03*
G04 #@! TD*
G04 #@! TO.C,P48*
X16000000Y119500000D03*
G04 #@! TD*
G04 #@! TO.C,P56*
X108300000Y85500000D03*
G04 #@! TD*
G04 #@! TO.C,P23*
X63500000Y119500000D03*
G04 #@! TD*
G04 #@! TO.C,P33*
X49500000Y124000000D03*
G04 #@! TD*
G04 #@! TO.C,P47*
X19000000Y124000000D03*
G04 #@! TD*
M02*
