%TF.GenerationSoftware,KiCad,Pcbnew,(5.99.0-12439-g94954386e6)*%
%TF.CreationDate,2021-10-11T21:16:12+03:00*%
%TF.ProjectId,proteus125honda,70726f74-6575-4733-9132-35686f6e6461,rev?*%
%TF.SameCoordinates,Original*%
%TF.FileFunction,Paste,Top*%
%TF.FilePolarity,Positive*%
%FSLAX46Y46*%
G04 Gerber Fmt 4.6, Leading zero omitted, Abs format (unit mm)*
G04 Created by KiCad (PCBNEW (5.99.0-12439-g94954386e6)) date 2021-10-11 21:16:12*
%MOMM*%
%LPD*%
G01*
G04 APERTURE LIST*
G04 Aperture macros list*
%AMRoundRect*
0 Rectangle with rounded corners*
0 $1 Rounding radius*
0 $2 $3 $4 $5 $6 $7 $8 $9 X,Y pos of 4 corners*
0 Add a 4 corners polygon primitive as box body*
4,1,4,$2,$3,$4,$5,$6,$7,$8,$9,$2,$3,0*
0 Add four circle primitives for the rounded corners*
1,1,$1+$1,$2,$3*
1,1,$1+$1,$4,$5*
1,1,$1+$1,$6,$7*
1,1,$1+$1,$8,$9*
0 Add four rect primitives between the rounded corners*
20,1,$1+$1,$2,$3,$4,$5,0*
20,1,$1+$1,$4,$5,$6,$7,0*
20,1,$1+$1,$6,$7,$8,$9,0*
20,1,$1+$1,$8,$9,$2,$3,0*%
G04 Aperture macros list end*
%TA.AperFunction,Profile*%
%ADD10C,0.200000*%
%TD*%
%ADD11R,2.500000X1.800000*%
%ADD12RoundRect,0.070000X-0.280000X-0.390000X0.280000X-0.390000X0.280000X0.390000X-0.280000X0.390000X0*%
%ADD13RoundRect,0.230000X-0.670000X-0.345000X0.670000X-0.345000X0.670000X0.345000X-0.670000X0.345000X0*%
%ADD14O,0.000001X0.000001*%
%ADD15RoundRect,0.100000X-0.625000X0.400000X-0.625000X-0.400000X0.625000X-0.400000X0.625000X0.400000X0*%
%ADD16RoundRect,0.085000X0.340000X0.340000X-0.340000X0.340000X-0.340000X-0.340000X0.340000X-0.340000X0*%
%ADD17RoundRect,0.230000X0.345000X-0.670000X0.345000X0.670000X-0.345000X0.670000X-0.345000X-0.670000X0*%
%ADD18RoundRect,0.085000X-0.340000X-0.340000X0.340000X-0.340000X0.340000X0.340000X-0.340000X0.340000X0*%
%ADD19R,0.690000X1.350000*%
%ADD20R,1.520000X2.540000*%
G04 APERTURE END LIST*
D10*
X99000001Y-73500001D02*
G75*
G03*
X102000000Y-70500000I-1J3000000D01*
G01*
X248000000Y-97800000D02*
X248000000Y-77500000D01*
X101999996Y-213800002D02*
G75*
G03*
X105999998Y-217800000I4000000J2D01*
G01*
X106000000Y-66500000D02*
X237000000Y-66500000D01*
X244000002Y-210799998D02*
G75*
G03*
X248000000Y-206800000I0J3999998D01*
G01*
X241500000Y-141800000D02*
X240000000Y-141800000D01*
X106000000Y-217800000D02*
X237000000Y-217800000D01*
X239000003Y-140800003D02*
G75*
G03*
X240000000Y-141800000I999997J0D01*
G01*
X98999996Y-210799998D02*
G75*
G02*
X94999998Y-206800000I0J3999998D01*
G01*
X239000000Y-140800000D02*
X239000000Y-137800000D01*
X242000000Y-103800000D02*
G75*
G02*
X245000000Y-100800000I3000000J0D01*
G01*
X244000000Y-210800000D02*
G75*
G03*
X241000000Y-213800000I0J-3000000D01*
G01*
X101999997Y-70499999D02*
G75*
G02*
X106000000Y-66500000I4000001J-2D01*
G01*
X94999998Y-206800000D02*
X95000000Y-77500000D01*
X241000003Y-70499999D02*
G75*
G03*
X237000000Y-66500000I-4000001J-2D01*
G01*
X245000000Y-147800000D02*
G75*
G02*
X248000000Y-150800000I0J-3000000D01*
G01*
X240000000Y-136800000D02*
X241500000Y-136800000D01*
X98999998Y-210800000D02*
G75*
G02*
X101999998Y-213800000I0J-3000000D01*
G01*
X243999999Y-73500001D02*
G75*
G02*
X241000000Y-70500000I1J3000000D01*
G01*
X241500001Y-141799999D02*
G75*
G02*
X242000000Y-142300000I-1J-500000D01*
G01*
X241500001Y-136799999D02*
G75*
G03*
X242000000Y-136300000I0J499999D01*
G01*
X238999997Y-137799997D02*
G75*
G02*
X240000000Y-136800000I1000000J-3D01*
G01*
X242000000Y-136300000D02*
X242000000Y-103800000D01*
X242000000Y-144800000D02*
X242000000Y-142300000D01*
X245000000Y-100800000D02*
G75*
G03*
X248000000Y-97800000I0J3000000D01*
G01*
X241000002Y-213800002D02*
G75*
G02*
X237000000Y-217800000I-4000000J2D01*
G01*
X98999999Y-73500001D02*
G75*
G03*
X95000000Y-77500000I0J-3999999D01*
G01*
X242000000Y-144800000D02*
G75*
G03*
X245000000Y-147800000I3000000J0D01*
G01*
X248000000Y-206800000D02*
X248000000Y-150800000D01*
X244000001Y-73500001D02*
G75*
G02*
X248000000Y-77500000I0J-3999999D01*
G01*
D11*
%TO.C,D2*%
X208500001Y-98700000D03*
X204500001Y-98700000D03*
%TD*%
D12*
%TO.C,R1*%
X142616013Y-188063001D03*
X144216013Y-188063001D03*
%TD*%
D13*
%TO.C,F2*%
X231500000Y-94849990D03*
X231500000Y-97750010D03*
%TD*%
D14*
%TO.C,M2*%
X154556666Y-199312500D03*
%TD*%
D13*
%TO.C,F1*%
X235000000Y-94849990D03*
X235000000Y-97750010D03*
%TD*%
D15*
%TO.C,R2*%
X198600000Y-93849999D03*
X198600000Y-95750021D03*
%TD*%
D11*
%TO.C,D3*%
X191000000Y-98800000D03*
X187000000Y-98800000D03*
%TD*%
D15*
%TO.C,R4*%
X233200000Y-100749999D03*
X233200000Y-102650021D03*
%TD*%
D16*
%TO.C,C2*%
X144216014Y-189763001D03*
X142636012Y-189763001D03*
%TD*%
D15*
%TO.C,R3*%
X189500000Y-93149999D03*
X189500000Y-95050021D03*
%TD*%
D11*
%TO.C,D1*%
X191000000Y-102500000D03*
X187000000Y-102500000D03*
%TD*%
D17*
%TO.C,F3*%
X108549990Y-102800000D03*
X111450010Y-102800000D03*
%TD*%
D18*
%TO.C,C1*%
X145726013Y-189763001D03*
X147306015Y-189763001D03*
%TD*%
D19*
%TO.C,U1*%
X148005000Y-196574000D03*
D20*
X149905000Y-193018000D03*
D19*
X146735000Y-196574000D03*
D20*
X147365000Y-193018000D03*
X144825000Y-193018000D03*
D19*
X145465000Y-196574000D03*
D20*
X142285000Y-193018000D03*
D19*
X144195000Y-196574000D03*
D20*
X142285000Y-209782000D03*
D19*
X144195000Y-206416500D03*
X145465000Y-206416500D03*
D20*
X144825000Y-209782000D03*
D19*
X146735000Y-206416500D03*
D20*
X147365000Y-209782000D03*
D19*
X148005000Y-206416500D03*
D20*
X149905000Y-209782000D03*
%TD*%
M02*
