G04 #@! TF.GenerationSoftware,KiCad,Pcbnew,(5.99.0-12439-g94954386e6)*
G04 #@! TF.CreationDate,2021-10-11T23:11:19+03:00*
G04 #@! TF.ProjectId,proteus125honda,70726f74-6575-4733-9132-35686f6e6461,rev?*
G04 #@! TF.SameCoordinates,PX5a995c0PYcfb5d40*
G04 #@! TF.FileFunction,Paste,Bot*
G04 #@! TF.FilePolarity,Positive*
%FSLAX46Y46*%
G04 Gerber Fmt 4.6, Leading zero omitted, Abs format (unit mm)*
G04 Created by KiCad (PCBNEW (5.99.0-12439-g94954386e6)) date 2021-10-11 23:11:19*
%MOMM*%
%LPD*%
G01*
G04 APERTURE LIST*
G04 #@! TA.AperFunction,Profile*
%ADD10C,0.200000*%
G04 #@! TD*
G04 APERTURE END LIST*
D10*
X4000001Y144299999D02*
G75*
G03*
X7000000Y147300000I-1J3000000D01*
G01*
X153000000Y120000000D02*
X153000000Y140300000D01*
X6999996Y3999998D02*
G75*
G03*
X10999998Y0I4000000J2D01*
G01*
X11000000Y151300000D02*
X142000000Y151300000D01*
X149000002Y7000002D02*
G75*
G03*
X153000000Y11000000I0J3999998D01*
G01*
X146500000Y76000000D02*
X145000000Y76000000D01*
X11000000Y0D02*
X142000000Y0D01*
X144000003Y76999997D02*
G75*
G03*
X145000000Y76000000I999997J0D01*
G01*
X3999996Y7000002D02*
G75*
G02*
X-2Y11000000I0J3999998D01*
G01*
X144000000Y77000000D02*
X144000000Y80000000D01*
X147000000Y114000000D02*
G75*
G02*
X150000000Y117000000I3000000J0D01*
G01*
X149000000Y7000000D02*
G75*
G03*
X146000000Y4000000I0J-3000000D01*
G01*
X6999997Y147300001D02*
G75*
G02*
X11000000Y151300000I4000001J-2D01*
G01*
X-2Y11000000D02*
X0Y140300000D01*
X146000003Y147300001D02*
G75*
G03*
X142000000Y151300000I-4000001J-2D01*
G01*
X150000000Y70000000D02*
G75*
G02*
X153000000Y67000000I0J-3000000D01*
G01*
X145000000Y81000000D02*
X146500000Y81000000D01*
X3999998Y7000000D02*
G75*
G02*
X6999998Y4000000I0J-3000000D01*
G01*
X148999999Y144299999D02*
G75*
G02*
X146000000Y147300000I1J3000000D01*
G01*
X146500001Y76000001D02*
G75*
G02*
X147000000Y75500000I-1J-500000D01*
G01*
X146500001Y81000001D02*
G75*
G03*
X147000000Y81500000I0J499999D01*
G01*
X143999997Y80000003D02*
G75*
G02*
X145000000Y81000000I1000000J-3D01*
G01*
X147000000Y81500000D02*
X147000000Y114000000D01*
X147000000Y73000000D02*
X147000000Y75500000D01*
X150000000Y117000000D02*
G75*
G03*
X153000000Y120000000I0J3000000D01*
G01*
X146000002Y3999998D02*
G75*
G02*
X142000000Y0I-4000000J2D01*
G01*
X3999999Y144299999D02*
G75*
G03*
X0Y140300000I0J-3999999D01*
G01*
X147000000Y73000000D02*
G75*
G03*
X150000000Y70000000I3000000J0D01*
G01*
X153000000Y11000000D02*
X153000000Y67000000D01*
X149000001Y144299999D02*
G75*
G02*
X153000000Y140300000I0J-3999999D01*
G01*
M02*
