M48
; DRILL file {KiCad (5.99.0-12439-g94954386e6)} date Mon Oct 11 23:11:21 2021
; FORMAT={2:4/ absolute / inch / suppress leading zeros}
; #@! TF.CreationDate,2021-10-11T23:11:21+03:00
; #@! TF.GenerationSoftware,Kicad,Pcbnew,(5.99.0-12439-g94954386e6)
; #@! TF.FileFunction,MixedPlating,1,2
FMAT,2
INCH,TZ
; #@! TA.AperFunction,Plated,PTH,ComponentDrill
T1C0.0118
; #@! TA.AperFunction,Plated,PTH,ViaDrill
T2C0.0118
; #@! TA.AperFunction,Plated,PTH,ComponentDrill
T3C0.0118
; #@! TA.AperFunction,Plated,PTH,ComponentDrill
T4C0.0320
; #@! TA.AperFunction,Plated,PTH,ComponentDrill
T5C0.0374
; #@! TA.AperFunction,Plated,PTH,ComponentDrill
T6C0.0394
; #@! TA.AperFunction,Plated,PTH,ComponentDrill
T7C0.0512
; #@! TA.AperFunction,Plated,PTH,ComponentDrill
T8C0.0689
; #@! TA.AperFunction,Plated,PTH,ComponentDrill
T9C0.1417
; #@! TA.AperFunction,NonPlated,NPTH,ComponentDrill
T10C0.0787
; #@! TA.AperFunction,NonPlated,NPTH,ComponentDrill
T11C0.1122
; #@! TA.AperFunction,NonPlated,NPTH,ComponentDrill
T12C0.1772
%
G90
G05
T1
X23881Y6757
X24087Y7101
X24383Y6639
X25780Y6668
T2
X315Y33307
X472Y51339
X551Y28858
X591Y8898
X827Y46693
X906Y55945
X906Y39094
X1969Y3622
X2756Y52214
X3268Y58110
X3858Y58819
X3937Y18307
X4016Y984
X4055Y25394
X4134Y43465
X4567Y39882
X4882Y36575
X4921Y11890
X5039Y58386
X5197Y44370
X5669Y32047
X6890Y41142
X7165Y39803
X7480Y31220
X7520Y36181
X7520Y27717
X7559Y20984
X7874Y44173
X9055Y44764
X9085Y44409
X10315Y37756
X10315Y12598
X10433Y42165
X10787Y43898
X10945Y29331
X10984Y9213
X11024Y30984
X11063Y45433
X11102Y34803
X11220Y39843
X11378Y6378
X11622Y43701
X11839Y43964
X12047Y44173
X12283Y43110
X12598Y42992
X12873Y42854
X13189Y42717
X13228Y17480
X13465Y40630
X13780Y42579
X13937Y57008
X13937Y33071
X14488Y45512
X14685Y23701
X14843Y37362
X14961Y27283
X15157Y29252
X15315Y25984
X15433Y32323
X15433Y6299
X15472Y14724
X15669Y47677
X15787Y54173
X15906Y18937
X16102Y11929
X16220Y45236
X16220Y41732
X16339Y30787
X16378Y29606
X16654Y33622
X16969Y38110
X17598Y45157
X17598Y38976
X17717Y42047
X17913Y31417
X18031Y5236
X18268Y58228
X18386Y7795
X18465Y35669
X18701Y472
X18740Y31890
X18858Y50315
X19370Y54055
X19409Y25472
X19567Y25000
X19646Y18307
X19646Y10512
X19882Y11850
X20039Y50315
X20591Y11417
X21063Y15787
X21693Y41496
X21693Y20866
X21693Y5197
X21850Y39094
X22165Y8307
X22402Y17480
X22480Y10630
X22598Y56969
X22795Y5591
X22874Y8386
X22953Y2756
X23307Y45118
X23465Y52441
X23740Y10433
X23898Y24370
X23898Y16220
X24094Y18504
X24134Y42166
X24213Y35748
X24213Y19843
X24213Y13661
X25276Y4724
X25787Y22677
X25984Y24882
X26260Y52598
X26339Y13150
X26378Y5787
X26496Y41654
X26496Y9449
X26535Y7126
X26693Y4882
X27087Y3622
X27323Y15945
X27362Y45709
X27559Y42166
X27835Y42441
X27953Y41142
X27953Y21339
X28110Y315
X28425Y42273
X28664Y42029
X28942Y41891
X28976Y33268
X29134Y18386
X29173Y41142
X29370Y21929
X29528Y37480
X29685Y29409
X30197Y41891
X30748Y18307
X30906Y45000
X31378Y41142
X31614Y3504
X32126Y36535
X32126Y22087
X32126Y354
X32402Y31220
X32402Y18228
X32638Y50472
X33031Y10197
X33780Y57244
X33937Y55079
X34409Y46535
X34528Y25315
X34724Y15748
X34961Y45079
X35000Y21614
X35118Y433
X35354Y37323
X35512Y41063
X35630Y29685
X35866Y19213
X35906Y11654
X36220Y33110
X36260Y54134
X36496Y22441
X36870Y43209
X36929Y3425
X36969Y58307
X37126Y13465
X37756Y41102
X37795Y32559
X37795Y46102
X38031Y21457
X38071Y17205
X38543Y46850
X38622Y38031
X38701Y13386
X38740Y10906
X38898Y45709
X38937Y46850
X39134Y26260
X39449Y472
X39488Y10157
X39764Y32126
X39803Y44390
X40001Y41123
X40157Y44980
X40394Y42639
X40472Y19252
X40512Y54370
X41063Y27756
X41102Y41575
X41103Y28386
X41103Y20630
X41299Y45236
X41378Y18071
X41772Y21220
X41811Y19843
X41850Y26063
X42008Y35866
X42008Y3465
X42087Y13583
X42205Y10157
X42402Y45492
X42638Y9449
X42638Y8937
X42638Y8465
X42638Y7953
X42717Y38937
X42992Y16929
X43366Y42914
X43386Y41142
X43661Y43051
X43740Y12087
X44094Y54961
X44291Y31890
X44331Y30394
X44567Y47598
X44567Y24882
X44606Y46181
X44606Y23661
X44764Y37441
X45039Y58976
X45433Y46850
X45709Y52480
X45787Y25433
X45787Y20118
X45787Y551
X46024Y34213
X46260Y43484
X46378Y23189
X46654Y40669
X46732Y17402
X46772Y46181
X46811Y47559
X46969Y37008
X47008Y43484
X47244Y34606
X47254Y42443
X47283Y30512
X47283Y6063
X47441Y43957
X47753Y43073
X47795Y39646
X47972Y43547
X48189Y42441
X48937Y47441
X49252Y44390
X49606Y45747
X49606Y42520
X49685Y15866
X49882Y13661
X50039Y43543
X50079Y41457
X50315Y3976
X50394Y38976
X50771Y44173
X50984Y44685
X51181Y52520
X51181Y50630
X51220Y45984
X51278Y44781
X51579Y44827
X51772Y17520
X51811Y47441
X51864Y44901
X52402Y52441
X52402Y50472
X52480Y21811
X52559Y45945
X52559Y40866
X52638Y39252
X52638Y19409
X52972Y35197
X53071Y24449
X53110Y34882
X53189Y43980
X53622Y45787
X53701Y26496
X53780Y35551
X53780Y29213
X53858Y37008
X53898Y40197
X53937Y42441
X54094Y31457
X54567Y37480
X54764Y58819
X54803Y36693
X54882Y14488
X55354Y45669
X55709Y43898
X55984Y1063
X56457Y45512
X56850Y34055
X57087Y40630
X57756Y27677
X58346Y12323
X58819Y17480
X59685Y51496
X59764Y55827
X59764Y22598
X59803Y8701
X59843Y4252
X59882Y47205
T3
X27047Y8337
X27047Y7943
X27047Y6545
X27047Y6152
X42106Y5719
X42106Y5325
X42106Y4931
X42106Y4537
T4
X4941Y45276
X6870Y45276
X37205Y49451
X37205Y47951
X40787Y49175
X40787Y47675
X53740Y48799
X53740Y46870
X54409Y46459
X54409Y44959
X55118Y48799
X55118Y46870
T5
X46280Y8878
X47264Y8878
X48248Y8878
X49232Y8878
X50217Y8878
X51201Y8878
X52185Y8878
X53169Y8878
X54154Y8878
X55138Y8878
T6
X5000Y10000
X5000Y9000
X5000Y8000
X5000Y7000
X5000Y6000
X5000Y5000
X5000Y4000
X5000Y3000
X5000Y2000
X5000Y1000
X5118Y48819
X5118Y47047
X6000Y10000
X6000Y9000
X6000Y8000
X6000Y7000
X6000Y6000
X6000Y5000
X6000Y4000
X6000Y3000
X6000Y2000
X6000Y1000
X6299Y48819
X6299Y47047
X7000Y10000
X7000Y9000
X7000Y8000
X7000Y7000
X7000Y6000
X7000Y5000
X7000Y4000
X7000Y3000
X7000Y2000
X7000Y1000
X7480Y48819
X7480Y47047
X7953Y45315
X8000Y10000
X8000Y9000
X8000Y8000
X8000Y7000
X8000Y6000
X8000Y5000
X8000Y4000
X8000Y3000
X8000Y2000
X8000Y1000
X9000Y10000
X9000Y9000
X9000Y8000
X9000Y7000
X9000Y6000
X9000Y5000
X9000Y4000
X9000Y3000
X9000Y2000
X9000Y1000
X9843Y48819
X9843Y47047
X10000Y10000
X10000Y9000
X10000Y8000
X10000Y7000
X10000Y6000
X10000Y5000
X10000Y4000
X10000Y3000
X10000Y2000
X10000Y1000
X11000Y5000
X11000Y4000
X11000Y3000
X11000Y2000
X11000Y1000
X11024Y48819
X11024Y47047
X12000Y10000
X12000Y9000
X12000Y8000
X12000Y5000
X12000Y4000
X12000Y3000
X12000Y2000
X12000Y1000
X12205Y48819
X12205Y47047
X12205Y45276
X13000Y10000
X13000Y9000
X13000Y8000
X13000Y5000
X13000Y4000
X13000Y3000
X13000Y2000
X13000Y1000
X13386Y48819
X13386Y47047
X14000Y10000
X14000Y9000
X14000Y8000
X14000Y5000
X14000Y4000
X14000Y3000
X14000Y2000
X14000Y1000
X14567Y48819
X14567Y47047
X15000Y10000
X15000Y9000
X15000Y8000
X15000Y5000
X15000Y4000
X15000Y3000
X15000Y2000
X15000Y1000
X15748Y48819
X16000Y10000
X16000Y9000
X16000Y8000
X16000Y5000
X16000Y4000
X16000Y3000
X16000Y2000
X16000Y1000
X17343Y24606
X17343Y20079
X17539Y33071
X17539Y30650
X17539Y29528
X17539Y28346
X17539Y26378
X18307Y48819
X18307Y47047
X19488Y48819
X19488Y47047
X20669Y48819
X21850Y48819
X21850Y47047
X22425Y1850
X23031Y48819
X23425Y1850
X24425Y1850
X24803Y10630
X25000Y48819
X25000Y47047
X25000Y45276
X25425Y1850
X25984Y10630
X26181Y48819
X26181Y47047
X26181Y45276
X26425Y1850
X27165Y10630
X27362Y48819
X27362Y47047
X27425Y1850
X28346Y10630
X28543Y48819
X28543Y47047
X28543Y45276
X29528Y10630
X29724Y48819
X29724Y47047
X29724Y45276
X30709Y10630
X30906Y48819
X30906Y47047
X31890Y10630
X32087Y48819
X32087Y47047
X32087Y45276
X33268Y48819
X33268Y47047
X33268Y45276
X34252Y10630
X35433Y10630
X36614Y10630
X37795Y10630
X38386Y48819
X39567Y48819
X40886Y26575
X41929Y48819
X42638Y34843
X42638Y33661
X42657Y32480
X42657Y31299
X42657Y30118
X42657Y28937
X42657Y27756
X42657Y25984
X42657Y24213
X42657Y22441
X42657Y18898
X43110Y48819
X45276Y48819
X48228Y48819
X56299Y47244
X57244Y20472
T7
X4961Y54823
X4961Y53406
X5079Y51673
X5945Y54823
X5945Y53406
X6311Y51673
X6929Y54823
X6929Y53406
X7913Y54823
X7913Y53406
X8512Y51673
X8898Y54823
X8898Y53406
X9744Y51673
X9882Y53406
X10866Y54823
X10866Y53406
X10976Y51673
X11850Y54823
X11850Y53406
X12209Y51673
X12835Y53406
X13441Y51673
X13819Y54823
X13819Y53406
X14673Y51673
X14803Y54823
X14803Y53406
X15906Y54823
X15906Y53406
X15906Y51673
X18228Y54823
X18228Y53406
X18228Y51673
X19213Y54823
X19213Y53406
X19213Y51673
X20197Y54823
X20197Y53406
X20197Y51673
X21181Y53406
X21181Y51673
X22165Y54823
X22165Y53406
X22165Y51673
X23150Y54823
X23150Y53406
X23150Y51673
X25472Y54823
X25472Y53406
X25472Y51673
X26575Y54823
X26575Y53406
X26575Y51673
X27559Y53406
X27559Y51673
X28543Y54823
X28543Y53406
X28543Y51673
X29528Y54823
X29528Y53406
X29528Y51673
X30512Y54823
X30512Y53406
X31496Y54823
X31496Y53406
X31496Y51673
X32598Y54823
X32598Y53406
X32598Y51673
X35039Y54823
X35039Y53406
X35039Y51673
X36142Y54823
X36142Y53406
X36142Y51673
X37126Y54823
X37126Y53406
X38110Y54823
X38110Y53406
X38232Y51673
X39094Y54823
X39094Y53406
X39465Y51673
X40079Y53406
X40697Y51673
X41063Y54823
X41063Y53406
X41929Y51673
X42047Y54823
X42047Y53406
X43031Y54823
X43031Y53406
X43031Y51673
X45236Y54823
X45236Y53406
X45354Y51673
X46220Y54823
X46220Y53406
X46587Y51673
X47205Y54823
X47205Y53406
X48189Y54823
X48189Y53406
X48787Y51673
X49173Y54823
X49173Y53406
X50020Y51673
X50157Y53406
X51142Y54823
X51142Y53406
X51252Y51673
X52126Y54823
X52126Y53406
X52484Y51673
X53110Y53406
X53717Y51673
X54094Y54823
X54094Y53406
X54949Y51673
X55079Y54823
X55079Y53406
X56181Y54823
X56181Y53406
X56181Y51673
T8
X8740Y37451
X8740Y35876
X8740Y34301
X8740Y32726
X8740Y31152
X8740Y29577
X8740Y28002
X8740Y26427
X8740Y24852
X8740Y23278
X8740Y21703
X8740Y20128
X10315Y36663
X10315Y35089
X10315Y33514
X10315Y31939
X10315Y30364
X10315Y28789
X10315Y27215
X10315Y25640
X10315Y24065
X10315Y22490
X10315Y20915
X11890Y37451
X11890Y35876
X11890Y34301
X11890Y32726
X11890Y31152
X11890Y29577
X11890Y28002
X11890Y26427
X11890Y24852
X11890Y23278
X11890Y21703
X11890Y20128
X24488Y20522
X24488Y17372
X25276Y18947
X26063Y20522
X26063Y17372
X26850Y18947
X27638Y20522
X27638Y17372
X28425Y18947
X29213Y20522
X29213Y17372
X30000Y18947
X30787Y20522
X30787Y17372
X31575Y18947
X32362Y20522
X32362Y17372
X33150Y18947
X33937Y20522
X33937Y17372
X34724Y18947
X35512Y20522
X35512Y17372
X48110Y37451
X48110Y35876
X48110Y34301
X48110Y32726
X48110Y31152
X48110Y29577
X48110Y28002
X48110Y26427
X48110Y24852
X48110Y23278
X48110Y21703
X48110Y20128
X49685Y36663
X49685Y35089
X49685Y33514
X49685Y31939
X49685Y30364
X49685Y28789
X49685Y27215
X49685Y25640
X49685Y24065
X49685Y22490
X49685Y20915
X51260Y37451
X51260Y35876
X51260Y34301
X51260Y32726
X51260Y31152
X51260Y29577
X51260Y28002
X51260Y26427
X51260Y24852
X51260Y23278
X51260Y21703
X51260Y20128
T9
X9764Y56969
X27441Y56969
X53110Y56969
T10
X6063Y41270
X6063Y16309
X7441Y41860
X7441Y15719
X13189Y41860
X13189Y15719
X14567Y41270
X14567Y16309
X20079Y21821
X20079Y16073
X20669Y23199
X20669Y14695
X39331Y23199
X39331Y14695
X39921Y21821
X39921Y16073
X45433Y41270
X45433Y16309
X46811Y41860
X46811Y15719
X52559Y41860
X52559Y15719
X53937Y41270
X53937Y16309
T11
X10118Y40010
X10118Y17569
X21929Y18750
X38071Y18750
X49882Y40010
X49882Y17569
T12
X1594Y49134
X1594Y31417
X1594Y6614
X30118Y1555
X58642Y49134
X58642Y25315
X58642Y6614
T0
M30
