M48
; DRILL file {KiCad (5.99.0-12439-g94954386e6)} date Mon Oct 11 21:16:15 2021
; FORMAT={2:4/ absolute / inch / suppress leading zeros}
; #@! TF.CreationDate,2021-10-11T21:16:15+03:00
; #@! TF.GenerationSoftware,Kicad,Pcbnew,(5.99.0-12439-g94954386e6)
; #@! TF.FileFunction,MixedPlating,1,2
FMAT,2
INCH,TZ
; #@! TA.AperFunction,Plated,PTH,ComponentDrill
T1C0.0118
; #@! TA.AperFunction,Plated,PTH,ViaDrill
T2C0.0118
; #@! TA.AperFunction,Plated,PTH,ComponentDrill
T3C0.0118
; #@! TA.AperFunction,Plated,PTH,ComponentDrill
T4C0.0320
; #@! TA.AperFunction,Plated,PTH,ComponentDrill
T5C0.0374
; #@! TA.AperFunction,Plated,PTH,ComponentDrill
T6C0.0394
; #@! TA.AperFunction,Plated,PTH,ComponentDrill
T7C0.0512
; #@! TA.AperFunction,Plated,PTH,ComponentDrill
T8C0.0689
; #@! TA.AperFunction,Plated,PTH,ComponentDrill
T9C0.1417
; #@! TA.AperFunction,NonPlated,NPTH,ComponentDrill
T10C0.0787
; #@! TA.AperFunction,NonPlated,NPTH,ComponentDrill
T11C0.1122
; #@! TA.AperFunction,NonPlated,NPTH,ComponentDrill
T12C0.1772
%
G90
G05
T1
X61282Y-78991
X61489Y-78647
X61784Y-79109
X63182Y-79080
T2
X37717Y-52441
X37874Y-34409
X37953Y-56890
X37992Y-76850
X38228Y-39055
X38307Y-29803
X38307Y-46654
X39370Y-82126
X40157Y-33534
X40669Y-27638
X41260Y-26929
X41339Y-67441
X41417Y-84764
X41457Y-60354
X41535Y-42283
X41969Y-45866
X42283Y-49173
X42323Y-73858
X42441Y-27362
X42598Y-41378
X43071Y-53701
X44291Y-44606
X44567Y-45945
X44882Y-54528
X44921Y-49567
X44921Y-58031
X44961Y-64764
X45276Y-41575
X46457Y-40984
X46487Y-41339
X47717Y-47992
X47717Y-73150
X47835Y-43583
X48189Y-41850
X48346Y-56417
X48386Y-76535
X48425Y-54764
X48465Y-40315
X48504Y-50945
X48622Y-45906
X48780Y-79370
X49024Y-42047
X49240Y-41784
X49449Y-41575
X49685Y-42638
X50000Y-42756
X50274Y-42894
X50591Y-43031
X50630Y-68268
X50866Y-45118
X51181Y-43169
X51339Y-28740
X51339Y-52677
X51890Y-40236
X52087Y-62047
X52244Y-48386
X52362Y-58465
X52559Y-56496
X52717Y-59764
X52835Y-53425
X52835Y-79449
X52874Y-71024
X53071Y-38071
X53189Y-31575
X53307Y-66811
X53504Y-73819
X53622Y-40512
X53622Y-44016
X53740Y-54961
X53780Y-56142
X54055Y-52126
X54370Y-47638
X55000Y-40591
X55000Y-46772
X55118Y-43701
X55315Y-54331
X55433Y-80512
X55669Y-27520
X55787Y-77953
X55866Y-50079
X56102Y-85276
X56142Y-53858
X56260Y-35433
X56772Y-31693
X56811Y-60276
X56969Y-60748
X57047Y-67441
X57047Y-75236
X57283Y-73898
X57441Y-35433
X57992Y-74331
X58465Y-69961
X59094Y-44252
X59094Y-64882
X59094Y-80551
X59252Y-46654
X59567Y-77441
X59803Y-68268
X59882Y-75118
X60000Y-28780
X60197Y-80157
X60276Y-77362
X60354Y-82992
X60709Y-40630
X60866Y-33307
X61142Y-75315
X61299Y-61378
X61299Y-69528
X61496Y-67244
X61535Y-43582
X61614Y-50000
X61614Y-65906
X61614Y-72087
X62677Y-81024
X63189Y-63071
X63386Y-60866
X63661Y-33150
X63740Y-72598
X63780Y-79961
X63898Y-44094
X63898Y-76299
X63937Y-78622
X64094Y-80866
X64488Y-82126
X64724Y-69803
X64764Y-40039
X64961Y-43582
X65236Y-43307
X65354Y-44606
X65354Y-64409
X65512Y-85433
X65827Y-43475
X66066Y-43719
X66343Y-43857
X66378Y-52480
X66535Y-67362
X66575Y-44606
X66772Y-63819
X66929Y-48268
X67087Y-56339
X67598Y-43857
X68150Y-67441
X68307Y-40748
X68780Y-44606
X69016Y-82244
X69528Y-49213
X69528Y-63661
X69528Y-85394
X69803Y-54528
X69803Y-67520
X70039Y-35276
X70433Y-75551
X71181Y-28504
X71339Y-30669
X71811Y-39213
X71929Y-60433
X72126Y-70000
X72362Y-40669
X72402Y-64134
X72520Y-85315
X72756Y-48425
X72913Y-44685
X73031Y-56063
X73268Y-66535
X73307Y-74094
X73622Y-52638
X73661Y-31614
X73898Y-63307
X74271Y-42539
X74331Y-82323
X74370Y-27441
X74528Y-72283
X75157Y-44646
X75197Y-53189
X75197Y-39646
X75433Y-64291
X75472Y-68543
X75945Y-38898
X76024Y-47717
X76102Y-72362
X76142Y-74843
X76299Y-40039
X76339Y-38898
X76535Y-59488
X76850Y-85276
X76890Y-75591
X77165Y-53622
X77205Y-41358
X77403Y-44625
X77559Y-40768
X77795Y-43109
X77874Y-66496
X77913Y-31378
X78465Y-57992
X78504Y-44173
X78504Y-57362
X78504Y-65118
X78701Y-40512
X78780Y-67677
X79173Y-64528
X79213Y-65906
X79252Y-59685
X79409Y-49882
X79409Y-82283
X79488Y-72165
X79606Y-75591
X79803Y-40256
X80039Y-76299
X80039Y-76811
X80039Y-77283
X80039Y-77795
X80118Y-46811
X80394Y-68819
X80768Y-42834
X80787Y-44606
X81063Y-42697
X81142Y-73661
X81496Y-30787
X81693Y-53858
X81732Y-55354
X81969Y-38150
X81969Y-60866
X82008Y-39567
X82008Y-62087
X82165Y-48307
X82441Y-26772
X82835Y-38898
X83110Y-33268
X83189Y-60315
X83189Y-65630
X83189Y-85197
X83425Y-51535
X83661Y-42264
X83780Y-62559
X84055Y-45079
X84134Y-68346
X84173Y-39567
X84213Y-38189
X84370Y-48740
X84410Y-42264
X84646Y-51142
X84656Y-43305
X84685Y-55236
X84685Y-79685
X84843Y-41791
X85155Y-42675
X85197Y-46102
X85374Y-42201
X85591Y-43307
X86339Y-38307
X86654Y-41358
X87008Y-40001
X87008Y-43228
X87087Y-69882
X87283Y-72087
X87441Y-42205
X87480Y-44291
X87717Y-81772
X87795Y-46772
X88172Y-41575
X88386Y-41063
X88583Y-33228
X88583Y-35118
X88622Y-39764
X88679Y-40967
X88980Y-40921
X89173Y-68228
X89213Y-38307
X89266Y-40847
X89803Y-33307
X89803Y-35276
X89882Y-63937
X89961Y-39803
X89961Y-44882
X90039Y-46496
X90039Y-66339
X90373Y-50551
X90472Y-61299
X90512Y-50866
X90591Y-41768
X91024Y-39961
X91102Y-59252
X91181Y-50197
X91181Y-56535
X91260Y-48740
X91299Y-45551
X91339Y-43307
X91496Y-54291
X91969Y-48268
X92165Y-26929
X92205Y-49055
X92283Y-71260
X92756Y-40079
X93110Y-41850
X93386Y-84685
X93858Y-40236
X94252Y-51693
X94488Y-45118
X95157Y-58071
X95748Y-73425
X96220Y-68268
X97087Y-34252
X97165Y-29921
X97165Y-63150
X97205Y-77047
X97244Y-81496
X97283Y-38543
T3
X64449Y-77411
X64449Y-77805
X64449Y-79203
X64449Y-79596
X79508Y-80030
X79508Y-80423
X79508Y-80817
X79508Y-81211
T4
X42343Y-40472
X44272Y-40472
X74606Y-36297
X74606Y-37797
X78189Y-36573
X78189Y-38073
X91142Y-36949
X91142Y-38878
X91811Y-39289
X91811Y-40789
X92520Y-36949
X92520Y-38878
T5
X83681Y-76870
X84665Y-76870
X85650Y-76870
X86634Y-76870
X87618Y-76870
X88602Y-76870
X89587Y-76870
X90571Y-76870
X91555Y-76870
X92539Y-76870
T6
X42402Y-75748
X42402Y-76748
X42402Y-77748
X42402Y-78748
X42402Y-79748
X42402Y-80748
X42402Y-81748
X42402Y-82748
X42402Y-83748
X42402Y-84748
X42520Y-36929
X42520Y-38701
X43402Y-75748
X43402Y-76748
X43402Y-77748
X43402Y-78748
X43402Y-79748
X43402Y-80748
X43402Y-81748
X43402Y-82748
X43402Y-83748
X43402Y-84748
X43701Y-36929
X43701Y-38701
X44402Y-75748
X44402Y-76748
X44402Y-77748
X44402Y-78748
X44402Y-79748
X44402Y-80748
X44402Y-81748
X44402Y-82748
X44402Y-83748
X44402Y-84748
X44882Y-36929
X44882Y-38701
X45354Y-40433
X45402Y-75748
X45402Y-76748
X45402Y-77748
X45402Y-78748
X45402Y-79748
X45402Y-80748
X45402Y-81748
X45402Y-82748
X45402Y-83748
X45402Y-84748
X46402Y-75748
X46402Y-76748
X46402Y-77748
X46402Y-78748
X46402Y-79748
X46402Y-80748
X46402Y-81748
X46402Y-82748
X46402Y-83748
X46402Y-84748
X47244Y-36929
X47244Y-38701
X47402Y-75748
X47402Y-76748
X47402Y-77748
X47402Y-78748
X47402Y-79748
X47402Y-80748
X47402Y-81748
X47402Y-82748
X47402Y-83748
X47402Y-84748
X48402Y-80748
X48402Y-81748
X48402Y-82748
X48402Y-83748
X48402Y-84748
X48425Y-36929
X48425Y-38701
X49402Y-75748
X49402Y-76748
X49402Y-77748
X49402Y-80748
X49402Y-81748
X49402Y-82748
X49402Y-83748
X49402Y-84748
X49606Y-36929
X49606Y-38701
X49606Y-40472
X50402Y-75748
X50402Y-76748
X50402Y-77748
X50402Y-80748
X50402Y-81748
X50402Y-82748
X50402Y-83748
X50402Y-84748
X50787Y-36929
X50787Y-38701
X51402Y-75748
X51402Y-76748
X51402Y-77748
X51402Y-80748
X51402Y-81748
X51402Y-82748
X51402Y-83748
X51402Y-84748
X51969Y-36929
X51969Y-38701
X52402Y-75748
X52402Y-76748
X52402Y-77748
X52402Y-80748
X52402Y-81748
X52402Y-82748
X52402Y-83748
X52402Y-84748
X53150Y-36929
X53402Y-75748
X53402Y-76748
X53402Y-77748
X53402Y-80748
X53402Y-81748
X53402Y-82748
X53402Y-83748
X53402Y-84748
X54744Y-61142
X54744Y-65669
X54941Y-52677
X54941Y-55098
X54941Y-56220
X54941Y-57402
X54941Y-59370
X55709Y-36929
X55709Y-38701
X56890Y-36929
X56890Y-38701
X58071Y-36929
X59252Y-36929
X59252Y-38701
X59827Y-83898
X60433Y-36929
X60827Y-83898
X61827Y-83898
X62205Y-75118
X62402Y-36929
X62402Y-38701
X62402Y-40472
X62827Y-83898
X63386Y-75118
X63583Y-36929
X63583Y-38701
X63583Y-40472
X63827Y-83898
X64567Y-75118
X64764Y-36929
X64764Y-38701
X64827Y-83898
X65748Y-75118
X65945Y-36929
X65945Y-38701
X65945Y-40472
X66929Y-75118
X67126Y-36929
X67126Y-38701
X67126Y-40472
X68110Y-75118
X68307Y-36929
X68307Y-38701
X69291Y-75118
X69488Y-36929
X69488Y-38701
X69488Y-40472
X70669Y-36929
X70669Y-38701
X70669Y-40472
X71654Y-75118
X72835Y-75118
X74016Y-75118
X75197Y-75118
X75787Y-36929
X76969Y-36929
X78287Y-59173
X79331Y-36929
X80039Y-50906
X80039Y-52087
X80059Y-53268
X80059Y-54449
X80059Y-55630
X80059Y-56811
X80059Y-57992
X80059Y-59764
X80059Y-61535
X80059Y-63307
X80059Y-66850
X80512Y-36929
X82677Y-36929
X85630Y-36929
X93701Y-38504
X94646Y-65276
T7
X42362Y-30925
X42362Y-32343
X42480Y-34075
X43346Y-30925
X43346Y-32343
X43713Y-34075
X44331Y-30925
X44331Y-32343
X45315Y-30925
X45315Y-32343
X45913Y-34075
X46299Y-30925
X46299Y-32343
X47146Y-34075
X47283Y-32343
X48268Y-30925
X48268Y-32343
X48378Y-34075
X49252Y-30925
X49252Y-32343
X49610Y-34075
X50236Y-32343
X50843Y-34075
X51220Y-30925
X51220Y-32343
X52075Y-34075
X52205Y-30925
X52205Y-32343
X53307Y-30925
X53307Y-32343
X53307Y-34075
X55630Y-30925
X55630Y-32343
X55630Y-34075
X56614Y-30925
X56614Y-32343
X56614Y-34075
X57598Y-30925
X57598Y-32343
X57598Y-34075
X58583Y-32343
X58583Y-34075
X59567Y-30925
X59567Y-32343
X59567Y-34075
X60551Y-30925
X60551Y-32343
X60551Y-34075
X62874Y-30925
X62874Y-32343
X62874Y-34075
X63976Y-30925
X63976Y-32343
X63976Y-34075
X64961Y-32343
X64961Y-34075
X65945Y-30925
X65945Y-32343
X65945Y-34075
X66929Y-30925
X66929Y-32343
X66929Y-34075
X67913Y-30925
X67913Y-32343
X68898Y-30925
X68898Y-32343
X68898Y-34075
X70000Y-30925
X70000Y-32343
X70000Y-34075
X72441Y-30925
X72441Y-32343
X72441Y-34075
X73543Y-30925
X73543Y-32343
X73543Y-34075
X74528Y-30925
X74528Y-32343
X75512Y-30925
X75512Y-32343
X75634Y-34075
X76496Y-30925
X76496Y-32343
X76866Y-34075
X77480Y-32343
X78098Y-34075
X78465Y-30925
X78465Y-32343
X79331Y-34075
X79449Y-30925
X79449Y-32343
X80433Y-30925
X80433Y-32343
X80433Y-34075
X82638Y-30925
X82638Y-32343
X82756Y-34075
X83622Y-30925
X83622Y-32343
X83988Y-34075
X84606Y-30925
X84606Y-32343
X85591Y-30925
X85591Y-32343
X86189Y-34075
X86575Y-30925
X86575Y-32343
X87421Y-34075
X87559Y-32343
X88543Y-30925
X88543Y-32343
X88654Y-34075
X89528Y-30925
X89528Y-32343
X89886Y-34075
X90512Y-32343
X91118Y-34075
X91496Y-30925
X91496Y-32343
X92350Y-34075
X92480Y-30925
X92480Y-32343
X93583Y-30925
X93583Y-32343
X93583Y-34075
T8
X46142Y-48297
X46142Y-49872
X46142Y-51447
X46142Y-53022
X46142Y-54596
X46142Y-56171
X46142Y-57746
X46142Y-59321
X46142Y-60896
X46142Y-62470
X46142Y-64045
X46142Y-65620
X47717Y-49085
X47717Y-50659
X47717Y-52234
X47717Y-53809
X47717Y-55384
X47717Y-56959
X47717Y-58533
X47717Y-60108
X47717Y-61683
X47717Y-63258
X47717Y-64833
X49291Y-48297
X49291Y-49872
X49291Y-51447
X49291Y-53022
X49291Y-54596
X49291Y-56171
X49291Y-57746
X49291Y-59321
X49291Y-60896
X49291Y-62470
X49291Y-64045
X49291Y-65620
X61890Y-65226
X61890Y-68376
X62677Y-66801
X63465Y-65226
X63465Y-68376
X64252Y-66801
X65039Y-65226
X65039Y-68376
X65827Y-66801
X66614Y-65226
X66614Y-68376
X67402Y-66801
X68189Y-65226
X68189Y-68376
X68976Y-66801
X69764Y-65226
X69764Y-68376
X70551Y-66801
X71339Y-65226
X71339Y-68376
X72126Y-66801
X72913Y-65226
X72913Y-68376
X85512Y-48297
X85512Y-49872
X85512Y-51447
X85512Y-53022
X85512Y-54596
X85512Y-56171
X85512Y-57746
X85512Y-59321
X85512Y-60896
X85512Y-62470
X85512Y-64045
X85512Y-65620
X87087Y-49085
X87087Y-50659
X87087Y-52234
X87087Y-53809
X87087Y-55384
X87087Y-56959
X87087Y-58533
X87087Y-60108
X87087Y-61683
X87087Y-63258
X87087Y-64833
X88661Y-48297
X88661Y-49872
X88661Y-51447
X88661Y-53022
X88661Y-54596
X88661Y-56171
X88661Y-57746
X88661Y-59321
X88661Y-60896
X88661Y-62470
X88661Y-64045
X88661Y-65620
T9
X47165Y-28780
X64843Y-28780
X90512Y-28780
T10
X43465Y-44478
X43465Y-69439
X44843Y-43888
X44843Y-70030
X50591Y-43888
X50591Y-70030
X51969Y-44478
X51969Y-69439
X57480Y-63927
X57480Y-69675
X58071Y-62549
X58071Y-71053
X76732Y-62549
X76732Y-71053
X77323Y-63927
X77323Y-69675
X82835Y-44478
X82835Y-69439
X84213Y-43888
X84213Y-70030
X89961Y-43888
X89961Y-70030
X91339Y-44478
X91339Y-69439
T11
X47520Y-45738
X47520Y-68179
X59331Y-66998
X75472Y-66998
X87283Y-45738
X87283Y-68179
T12
X38996Y-36614
X38996Y-54331
X38996Y-79134
X67520Y-84193
X96043Y-36614
X96043Y-60433
X96043Y-79134
T0
M30
